<svg width="275" height="292" viewBox="0 0 275 292" fill="none" xmlns="http://www.w3.org/2000/svg">
<path fill-rule="evenodd" clip-rule="evenodd" d="M170.049 24.267C172.177 27.6577 170.448 32.1412 166.67 33.4645C154.509 37.7237 143.342 43.701 133.167 51.3964C120.897 60.6764 110.431 71.384 101.77 83.5193C93.1084 94.9407 86.6125 107.433 82.2818 120.996C78.5494 132.685 76.9616 144.11 77.5183 155.269C77.6705 158.319 80.2604 160.614 83.3149 160.614H137.71C139.618 160.614 141.423 161.515 142.504 163.088C147.479 170.326 151.585 178.424 154.82 187.383C158.429 197.377 160.233 206.3 160.233 214.152C160.233 226.287 158.429 238.066 154.82 249.487C151.581 259.095 147.471 267.841 142.49 275.725C141.424 277.412 139.549 278.398 137.554 278.398H23.4128C21.0286 278.398 18.8643 276.986 17.9386 274.789C7.35719 249.675 1.37768 225.537 0 202.374C0 161.685 7.57859 127.777 22.7358 100.651C38.6147 72.8117 57.7416 50.6826 80.1165 34.2643C102.028 18.0109 125.564 6.89744 150.724 0.923868C153.177 0.341559 155.711 1.42062 157.051 3.55576L170.049 24.267ZM145.25 292C143.571 292 142.048 291.007 141.39 289.462C141.251 289.136 141.113 288.81 140.975 288.484C140.313 286.913 141.047 285.108 142.609 284.426C142.777 284.353 142.95 284.294 143.128 284.251L148.451 282.966C149.908 282.615 151.186 281.734 151.999 280.474C157.577 271.826 162.117 262.249 165.646 251.779L165.668 251.715L165.688 251.649C169.521 239.518 171.435 227.01 171.435 214.152C171.435 205.234 169.394 195.464 165.595 184.945C161.95 174.851 157.229 165.699 151.403 157.534C150.845 156.751 150.095 156.127 149.233 155.702L145.74 153.979C144.915 153.571 144.006 153.359 143.086 153.359H118.748C114.821 153.359 111.95 149.647 113.095 145.89C116.574 134.481 121.018 123.936 126.428 114.254C142.307 86.4141 161.434 64.2851 183.809 47.8668C205.721 31.6134 229.257 20.4999 254.417 14.5264C256.87 13.944 259.404 15.0231 260.744 17.1583L273.742 37.8694C275.87 41.2602 274.14 45.7436 270.362 47.0669C258.202 51.3262 247.034 57.3035 236.859 64.9989C224.589 74.2789 214.123 84.9865 205.462 97.1218C196.801 108.543 190.305 121.035 185.974 134.598C182.242 146.288 180.654 157.712 181.211 168.871C181.363 171.922 183.953 174.216 187.007 174.216H241.402C243.311 174.216 245.115 175.117 246.197 176.69C251.172 183.928 255.277 192.027 258.512 200.985C262.121 210.979 263.925 219.902 263.925 227.754C263.925 239.89 262.121 251.668 258.512 263.089C255.274 272.698 251.164 281.444 246.182 289.328C245.116 291.014 243.242 292 241.246 292H145.25Z" fill="url(#paint0_linear_101_212)"/>
<defs>
<linearGradient id="paint0_linear_101_212" x1="139" y1="0" x2="139" y2="292" gradientUnits="userSpaceOnUse">
<stop stop-color="#F3B4C4"/>
<stop offset="0.385417" stop-color="#FAA6C1"/>
<stop offset="0.953125" stop-color="#B79DE4"/>
</linearGradient>
</defs>
</svg>
