<svg width="27" height="18" viewBox="0 0 27 18" fill="none" xmlns="http://www.w3.org/2000/svg">
<path d="M1.18738 3.2828C1.18738 2.12553 2.12553 1.18738 3.2828 1.18738H4.67974C5.83701 1.18738 6.77516 2.12553 6.77516 3.2828V13.8831C6.77516 15.0404 5.83701 15.9786 4.67974 15.9786H3.2828C2.12553 15.9786 1.18738 15.0404 1.18738 13.8831V3.2828Z" fill="#F3B4C4"/>
<path fill-rule="evenodd" clip-rule="evenodd" d="M0 3.28282C0 1.46977 1.46977 0 3.28282 0H4.67977C6.49282 0 7.96259 1.46977 7.96259 3.28282V13.8832C7.96259 15.6962 6.49282 17.166 4.67977 17.166H3.28282C1.46977 17.166 0 15.6962 0 13.8832V3.28282ZM3.28282 2.37481C2.78134 2.37481 2.37481 2.78134 2.37481 3.28282V13.8832C2.37481 14.3847 2.78134 14.7912 3.28282 14.7912H4.67977C5.18125 14.7912 5.58778 14.3847 5.58778 13.8832V3.28282C5.58778 2.78134 5.18125 2.37481 4.67977 2.37481H3.28282Z" fill="#F3B4C4"/>
<path d="M10.144 3.98127C10.144 2.43825 11.3949 1.18738 12.9379 1.18738H22.1413C23.6844 1.18738 24.9352 2.43825 24.9352 3.98127V13.1847C24.9352 14.7277 23.6844 15.9786 22.1413 15.9786H12.9379C11.3949 15.9786 10.144 14.7277 10.144 13.1847V3.98127Z" fill="#F3B4C4"/>
<path fill-rule="evenodd" clip-rule="evenodd" d="M8.95667 3.9813C8.95667 1.78249 10.7392 0 12.938 0H22.1414C24.3402 0 26.1227 1.78249 26.1227 3.9813V13.1847C26.1227 15.3835 24.3402 17.166 22.1414 17.166H12.938C10.7392 17.166 8.95667 15.3835 8.95667 13.1847V3.9813ZM12.938 2.37481C12.0507 2.37481 11.3315 3.09406 11.3315 3.9813V13.1847C11.3315 14.0719 12.0507 14.7912 12.938 14.7912H22.1414C23.0286 14.7912 23.7479 14.0719 23.7479 13.1847V3.9813C23.7479 3.09406 23.0286 2.37481 22.1414 2.37481H12.938Z" fill="#F3B4C4"/>
</svg>
