<svg width="27" height="18" viewBox="0 0 27 18" fill="none" xmlns="http://www.w3.org/2000/svg">
<g opacity="0.3">
<path d="M1.18726 3.28283C1.18726 2.12556 2.12541 1.18741 3.28267 1.18741H4.67962C5.83689 1.18741 6.77504 2.12556 6.77504 3.28283V13.8832C6.77504 15.0404 5.83689 15.9786 4.67962 15.9786H3.28267C2.12541 15.9786 1.18726 15.0404 1.18726 13.8832V3.28283Z" fill="black" fill-opacity="0.12"/>
<path fill-rule="evenodd" clip-rule="evenodd" d="M0 3.28282C0 1.46977 1.46977 0 3.28282 0H4.67977C6.49282 0 7.96259 1.46977 7.96259 3.28282V13.8832C7.96259 15.6962 6.49282 17.166 4.67977 17.166H3.28282C1.46977 17.166 0 15.6962 0 13.8832V3.28282ZM3.28282 2.37481C2.78134 2.37481 2.37481 2.78134 2.37481 3.28282V13.8832C2.37481 14.3847 2.78134 14.7912 3.28282 14.7912H4.67977C5.18125 14.7912 5.58778 14.3847 5.58778 13.8832V3.28282C5.58778 2.78134 5.18125 2.37481 4.67977 2.37481H3.28282Z" fill="black"/>
<path d="M10.144 3.9813C10.144 2.43828 11.3949 1.18741 12.9379 1.18741H22.1413C23.6844 1.18741 24.9352 2.43828 24.9352 3.9813V13.1847C24.9352 14.7277 23.6844 15.9786 22.1413 15.9786H12.9379C11.3949 15.9786 10.144 14.7277 10.144 13.1847V3.9813Z" fill="black" fill-opacity="0.12"/>
<path fill-rule="evenodd" clip-rule="evenodd" d="M8.95679 3.9813C8.95679 1.78249 10.7393 0 12.9381 0H22.1415C24.3403 0 26.1228 1.78249 26.1228 3.9813V13.1847C26.1228 15.3835 24.3403 17.166 22.1415 17.166H12.9381C10.7393 17.166 8.95679 15.3835 8.95679 13.1847V3.9813ZM12.9381 2.37481C12.0508 2.37481 11.3316 3.09406 11.3316 3.9813V13.1847C11.3316 14.0719 12.0508 14.7912 12.9381 14.7912H22.1415C23.0287 14.7912 23.748 14.0719 23.748 13.1847V3.9813C23.748 3.09406 23.0287 2.37481 22.1415 2.37481H12.9381Z" fill="black"/>
</g>
</svg>
