<svg width="169" height="162" viewBox="0 0 169 162" fill="none" xmlns="http://www.w3.org/2000/svg">
<g opacity="0.95">
<g clip-path="url(#clip0_2141_44486)">
<path d="M168.958 85.112C168.681 127.433 147.734 148.122 120.662 156.742C108.989 160.464 96.1716 161.941 83.3858 161.941C72.069 161.941 60.6257 159.985 49.9938 156.065C20.7594 145.287 -2.32916 119.652 0.284219 78.9665C1.08821 66.4422 4.69132 54.8639 10.4566 44.6521C12.5751 40.8983 14.9824 37.3345 17.6552 33.9728C22.8739 27.3999 29.0907 21.6146 36.0715 16.764C38.7483 14.9029 41.5357 13.1805 44.4225 11.6046C55.1098 5.77589 67.1469 1.95469 79.8694 0.584807C122.087 -3.95301 152.003 18.5737 163.616 51.803C164.23 53.561 164.796 55.3507 165.307 57.1725C165.854 59.1126 166.34 61.0887 166.764 63.0922C167.168 64.9729 167.512 66.8777 167.806 68.8098C168.602 74.0922 168.994 79.5408 168.958 85.112Z" fill="#FFF9F9"/>
<path d="M141.559 130.854C141.559 130.859 141.475 130.864 141.311 130.87C141.133 130.873 140.891 130.878 140.583 130.885C139.926 130.891 138.985 130.901 137.781 130.914C135.333 130.926 131.816 130.942 127.478 130.963C118.766 130.974 106.754 130.99 93.4877 131.007C80.2165 130.99 68.2038 130.974 59.4911 130.963C55.1533 130.942 51.6375 130.926 49.189 130.914C47.9851 130.901 47.0442 130.891 46.3882 130.885C46.0792 130.878 45.838 130.873 45.6597 130.87C45.4955 130.864 45.4114 130.859 45.4114 130.854C45.4114 130.848 45.4955 130.843 45.6597 130.838C45.838 130.834 46.0792 130.829 46.3882 130.823C47.0448 130.816 47.9851 130.806 49.189 130.794C51.6375 130.782 55.1533 130.766 59.4911 130.745C68.2038 130.733 80.2165 130.717 93.4877 130.7C106.754 130.718 118.766 130.734 127.478 130.745C131.816 130.766 135.333 130.782 137.781 130.794C138.985 130.806 139.926 130.816 140.583 130.823C140.891 130.829 141.133 130.834 141.311 130.838C141.475 130.843 141.559 130.848 141.559 130.854Z" fill="#262626"/>
<path d="M65.5876 62.9761L78.5682 55.9492L91.4117 54.1963L103.195 99.0351L102.111 112.859L68.874 114.648L70.2279 82.4758L65.5876 62.9761Z" fill="#EBEBEB"/>
<path d="M88.0406 30.5487C81.894 26.7687 74.1833 26.611 67.8872 30.1368C67.8872 30.1368 68.2732 43.3197 68.9411 49.0074C69.6095 54.6957 75.399 54.9834 75.399 54.9834L75.6361 57.057C76.0868 60.993 79.6227 63.8321 83.5627 63.422C87.3639 63.0259 90.1995 59.739 90.033 55.9208L88.9521 31.1094L88.0406 30.5487Z" fill="#EFD0BA"/>
<path d="M75.3813 54.9024C75.3813 54.9024 79.0119 54.8171 82.5854 52.0127C82.5854 52.0127 81.2603 56.2958 75.5232 56.38L75.3813 54.9024Z" fill="#AA6550"/>
<path d="M88.8704 37.0835C88.9633 37.0311 92.6621 35.5147 92.9469 39.4219C93.2311 43.329 89.2499 42.8088 89.2352 42.697C89.2205 42.5858 88.8704 37.0835 88.8704 37.0835Z" fill="#EFD0BA"/>
<path d="M90.3208 41.13C90.3373 41.1165 90.3926 41.1729 90.5114 41.2171C90.6274 41.26 90.8227 41.2818 91.021 41.1906C91.4229 41.0088 91.7224 40.3286 91.69 39.623C91.6742 39.2665 91.5747 38.9334 91.4288 38.6622C91.2887 38.385 91.0893 38.1985 90.8786 38.1767C90.6685 38.1438 90.5303 38.2791 90.4903 38.3927C90.4461 38.5056 90.4761 38.5821 90.4561 38.5898C90.4461 38.6004 90.3673 38.5304 90.3873 38.3668C90.3979 38.2879 90.4367 38.1926 90.5232 38.1108C90.6115 38.0278 90.7462 37.979 90.8927 37.9837C91.1952 37.9825 91.487 38.2403 91.6477 38.538C91.8254 38.8357 91.9448 39.2094 91.9631 39.6101C91.9954 40.3992 91.6459 41.1653 91.0928 41.3695C90.8233 41.4613 90.5879 41.3948 90.4626 41.3112C90.3349 41.2241 90.3078 41.1382 90.3208 41.13Z" fill="#AA6550"/>
<path d="M70.5868 39.486C70.6168 39.9173 71.0063 40.2474 71.4571 40.2245C71.9072 40.2015 72.2485 39.8343 72.2185 39.403C72.1885 38.9717 71.7989 38.641 71.3488 38.664C70.8981 38.6869 70.5568 39.0547 70.5868 39.486Z" fill="#262626"/>
<path d="M69.8059 38.0357C69.9177 38.131 70.4862 37.6103 71.3617 37.5209C72.2349 37.4191 72.9246 37.8015 73.0081 37.6844C73.0499 37.6321 72.9269 37.4514 72.6257 37.2772C72.3291 37.1037 71.8389 36.9554 71.2935 37.0148C70.7486 37.0748 70.3108 37.3237 70.069 37.5567C69.8224 37.7921 69.7518 37.9934 69.8059 38.0357Z" fill="#262626"/>
<path d="M79.3172 38.9511C79.3472 39.3824 79.7367 39.7125 80.1875 39.6895C80.6376 39.6666 80.9789 39.2994 80.9489 38.8681C80.9189 38.4368 80.5293 38.1061 80.0792 38.1291C79.6291 38.152 79.2878 38.5204 79.3172 38.9511Z" fill="#262626"/>
<path d="M78.4269 37.2963C78.5393 37.3916 79.1083 36.8708 79.9833 36.7814C80.8565 36.6796 81.5461 37.0621 81.6297 36.945C81.6715 36.8926 81.5497 36.712 81.2472 36.5378C80.9506 36.3636 80.4605 36.2159 79.9156 36.2753C79.3707 36.336 78.9335 36.5843 78.6911 36.8179C78.4446 37.0521 78.3728 37.2539 78.4269 37.2963Z" fill="#262626"/>
<path d="M75.9321 44.1203C75.9309 44.0703 75.3772 44.0332 74.4834 44.0132C74.2574 44.0138 74.0415 43.9914 73.9879 43.8426C73.9185 43.6866 73.9862 43.436 74.0674 43.1647C74.221 42.6022 74.381 42.012 74.5499 41.3936C75.2136 38.8739 75.6685 36.8115 75.5673 36.7856C75.4655 36.7598 74.8453 38.781 74.1815 41.3006C74.0232 41.9214 73.872 42.5133 73.7285 43.0794C73.6702 43.3424 73.5555 43.6455 73.7043 43.9685C73.782 44.1291 73.9585 44.2333 74.1062 44.2568C74.2539 44.2856 74.3798 44.2745 74.491 44.2698C75.3831 44.2239 75.9339 44.1703 75.9321 44.1203Z" fill="#262626"/>
<path d="M77.8407 33.8899C77.9519 34.1188 78.814 33.914 79.8537 33.9305C80.894 33.9257 81.7537 34.1393 81.8673 33.9116C81.9173 33.8034 81.7496 33.5945 81.3901 33.3991C81.0341 33.2038 80.4816 33.0408 79.8578 33.0366C79.2341 33.0343 78.6804 33.1914 78.3221 33.3826C77.9619 33.5739 77.7919 33.781 77.8407 33.8899Z" fill="#262626"/>
<path d="M69.862 35.469C70.0367 35.6514 70.6181 35.3819 71.3424 35.296C72.0632 35.1848 72.6952 35.2889 72.8153 35.0659C72.8664 34.9582 72.7488 34.7693 72.461 34.6093C72.1768 34.4492 71.719 34.3427 71.2218 34.4098C70.7252 34.4781 70.3127 34.7034 70.0815 34.9335C69.8467 35.1654 69.7843 35.3789 69.862 35.469Z" fill="#262626"/>
<path d="M64.7349 26.8323C64.5996 26.1327 64.7832 25.3472 65.314 24.8723C65.8447 24.3974 66.7385 24.3298 67.2616 24.814C66.8945 23.8908 67.557 22.7122 68.5361 22.5463C69.4588 22.3898 70.3249 23.0082 71.2482 23.16C72.1496 23.3083 73.0682 23.0017 73.8755 22.5739C74.6828 22.1462 75.4213 21.5948 76.2421 21.1935C77.9538 20.3568 79.9974 20.2244 81.8027 20.8346C83.608 21.4442 85.1526 22.7887 86.0064 24.4922C87.2114 23.972 88.6931 24.4563 89.5722 25.4301C90.4507 26.4046 90.7937 27.7697 90.7767 29.0819C90.7655 29.9686 90.6007 30.8412 90.3936 31.7062C90.4013 31.7792 90.416 31.8504 90.4224 31.9239C90.6925 35.062 90.7243 38.7773 89.3904 38.9379C87.0649 39.218 87.1591 34.7719 87.1591 34.7719C84.1852 33.9675 84.8001 29.5738 84.0175 28.9989C83.2349 28.4246 81.5814 27.0718 75.9185 30.7583C73.7195 32.1899 70.6262 32.4771 68.8992 32.2717C68.8486 32.2664 68.7974 32.264 68.7474 32.257C68.7368 32.2552 68.7227 32.2552 68.7121 32.2534C68.6933 32.2505 68.6791 32.2417 68.6603 32.2387C68.1078 32.1552 67.5676 32.0016 67.0574 31.7486C66.4796 31.4626 65.9377 31.0501 65.6452 30.4752C65.3528 29.9004 65.3604 29.1436 65.7847 28.6582C65.2845 28.151 64.8697 27.532 64.7349 26.8323Z" fill="#262626"/>
<path d="M75.472 46.8906C75.6455 47.2237 75.8232 47.562 76.0839 47.8321C76.3446 48.1022 76.7059 48.3005 77.0807 48.2787C77.4802 48.2558 77.8392 47.9804 78.0263 47.6262C78.2134 47.2719 78.2458 46.8524 78.1863 46.4564C78.1322 46.0986 77.9227 45.6867 77.5608 45.6814C77.4102 45.6797 77.2702 45.752 77.1372 45.8232C76.5376 46.1427 75.938 46.4629 75.3384 46.7824" fill="#AA6550"/>
<path d="M76.3846 48.3576C76.3881 48.2976 76.8183 48.4218 77.3737 48.1287C77.6426 47.9863 77.9263 47.7304 78.0592 47.3608C78.1922 46.9954 78.1763 46.5218 77.9551 46.1293C77.9027 46.0304 77.8309 45.9433 77.7621 45.8657C77.6797 45.7956 77.6932 45.7974 77.6138 45.818C77.5391 45.8468 77.422 45.918 77.3249 45.968C77.2249 46.0216 77.126 46.0746 77.0295 46.1263C76.6447 46.3311 76.2952 46.5117 75.9998 46.6589C75.4084 46.9531 75.0318 47.1149 75.0089 47.0743C74.9865 47.0337 75.3219 46.7983 75.8833 46.4506C76.1639 46.2764 76.5011 46.0746 76.8777 45.8551C76.9724 45.8003 77.0689 45.7439 77.1678 45.6868C77.2725 45.6303 77.3514 45.572 77.4961 45.5097C77.5673 45.4814 77.6703 45.4585 77.7756 45.4885C77.8792 45.5185 77.948 45.5791 77.9998 45.6303C78.0957 45.7333 78.1816 45.8404 78.2487 45.9645C78.5235 46.4553 78.53 47.029 78.3493 47.4738C78.1646 47.9281 77.7986 48.2111 77.4767 48.3447C77.1495 48.4841 76.8559 48.49 76.6659 48.4618C76.4734 48.4318 76.3793 48.377 76.3846 48.3576Z" fill="#262626"/>
<path d="M84.1504 28.4487C84.1281 28.4487 84.1834 28.1945 84.081 27.7591C83.9804 27.3313 83.6685 26.7229 83.0224 26.2527C82.3916 25.7661 81.4137 25.5396 80.3692 25.6749C79.3165 25.7943 78.2327 26.258 77.1159 26.7699C76.5539 27.023 75.9996 27.266 75.4436 27.4513C74.8869 27.6343 74.3326 27.7597 73.7989 27.8285C72.7304 27.9733 71.7524 27.8997 70.9545 27.7538C70.156 27.5996 69.5346 27.3743 69.1198 27.1936C68.9109 27.1053 68.755 27.0247 68.6503 26.9677C68.5449 26.9118 68.4914 26.88 68.4937 26.8747C68.5014 26.8588 68.7238 26.9735 69.1445 27.133C69.5635 27.2936 70.1843 27.4996 70.9751 27.6367C71.7654 27.7656 72.7286 27.825 73.7777 27.6743C74.302 27.602 74.8446 27.4761 75.3906 27.2942C75.9367 27.1095 76.4851 26.8682 77.0458 26.6158C78.1609 26.105 79.2677 25.6343 80.3504 25.5201C81.4231 25.3877 82.4464 25.6372 83.093 26.1562C83.7544 26.6564 84.0604 27.2983 84.1439 27.7438C84.2304 28.198 84.1504 28.4487 84.1504 28.4487Z" fill="#455A64"/>
<path d="M89.5897 37.6092C89.585 37.6121 89.555 37.5739 89.502 37.4974C89.4479 37.4221 89.3755 37.3055 89.2867 37.1531C89.1107 36.8478 88.8824 36.387 88.6841 35.7851C88.49 35.1837 88.3293 34.4382 88.3064 33.5985C88.2711 32.7559 88.4388 31.845 88.537 30.8988C88.6429 29.955 88.5935 29.0312 88.2675 28.2804C88.1098 27.9067 87.8833 27.5872 87.6179 27.3453C87.3519 27.11 87.0401 26.9623 86.7429 26.8946C86.1416 26.7516 85.6285 26.8982 85.3407 27.0782C85.0512 27.2665 84.9512 27.4436 84.9353 27.4307C84.9353 27.4307 85.0124 27.2388 85.3042 27.0235C85.5937 26.8181 86.131 26.6428 86.7682 26.7787C87.0836 26.8428 87.4184 26.9917 87.7097 27.2412C87.9951 27.4925 88.2399 27.8284 88.4087 28.2186C88.7583 29 88.8112 29.9609 88.7036 30.9153C88.6035 31.8738 88.434 32.7706 88.4605 33.5944C88.4747 34.4176 88.62 35.1519 88.7971 35.7492C88.9778 36.3464 89.1866 36.8095 89.3432 37.122C89.502 37.435 89.6027 37.6015 89.5897 37.6092Z" fill="#455A64"/>
<path d="M84.6494 27.9308C84.6435 27.9308 84.6364 27.852 84.6276 27.7019C84.6164 27.5354 84.6017 27.3177 84.5834 27.0464C84.5299 26.4833 84.4605 25.6454 84.0721 24.7086C83.875 24.2461 83.5814 23.7654 83.1601 23.3517C82.7429 22.9387 82.1815 22.5986 81.5272 22.5032C80.8746 22.3967 80.1679 22.5327 79.4977 22.801C78.8228 23.0699 78.1891 23.4877 77.5565 23.939C76.9228 24.3897 76.305 24.8457 75.6447 25.1911C74.981 25.5295 74.2837 25.7437 73.6059 25.8284C72.928 25.9149 72.2719 25.8955 71.6735 25.7943C71.0751 25.6901 70.5337 25.5201 70.0589 25.3188C69.1133 24.8999 68.4595 24.3579 68.0624 23.9472C67.8588 23.7442 67.7223 23.5677 67.634 23.4447C67.5434 23.3241 67.4981 23.2594 67.5028 23.2558C67.5075 23.2523 67.5616 23.3106 67.6605 23.4235C67.757 23.5383 67.9 23.7072 68.1088 23.9007C68.5154 24.2932 69.1715 24.8122 70.1059 25.2094C70.5755 25.3995 71.1086 25.5601 71.6959 25.656C72.2831 25.749 72.9245 25.7625 73.5859 25.6742C74.2478 25.5872 74.9228 25.3765 75.5688 25.0452C76.2132 24.7063 76.8239 24.2544 77.46 23.8019C78.0943 23.3494 78.7422 22.9228 79.4377 22.648C80.1279 22.3744 80.8652 22.2343 81.5531 22.3502C82.2439 22.4556 82.8323 22.8204 83.2601 23.2529C83.6932 23.6871 83.9886 24.1855 84.1833 24.6633C84.5664 25.6283 84.6164 26.4757 84.6499 27.0429C84.6629 27.3289 84.6641 27.5513 84.6629 27.7019C84.6594 27.852 84.6546 27.9308 84.6494 27.9308Z" fill="#455A64"/>
<path d="M45.9097 184.886L49.2719 130.717C49.8797 122.437 51.2355 118.659 57.9093 115.38L60.7596 113.4L90.4137 110.663L92.2384 130.508L69.0734 135.693L63.0051 187.616L45.9097 184.886Z" fill="#262626"/>
<path d="M92.2395 130.509L107.036 136.61L110.242 183.79L129.403 181.445L128.234 130.409C128.147 126.596 126.44 123.001 123.542 120.522L110.146 109.066L90.4148 110.663L89.019 131.229L92.2395 130.509Z" fill="#262626"/>
<path d="M69.7071 129.002C69.7913 129.011 69.6053 131.482 69.2911 134.52C68.9769 137.559 68.6544 140.015 68.5703 140.007C68.4861 139.998 68.6721 137.528 68.9863 134.489C69.3005 131.45 69.623 128.994 69.7071 129.002Z" fill="#455A64"/>
<path d="M66.8397 120.499C66.842 120.504 66.7885 120.539 66.6802 120.604C66.5566 120.676 66.3978 120.769 66.1977 120.885C65.7523 121.137 65.1256 121.49 64.3289 121.939C62.6801 122.853 60.327 124.156 57.4267 125.763L57.4838 125.672C57.1607 131.957 56.7206 140.523 56.2352 149.962C55.7321 159.645 55.2319 168.409 54.8135 174.749C54.5923 177.902 54.4128 180.461 54.2869 182.255C54.2163 183.124 54.1604 183.806 54.121 184.294C54.0998 184.513 54.0833 184.687 54.0704 184.823C54.0574 184.943 54.048 185.003 54.0427 185.003C54.0374 185.003 54.0362 184.941 54.0392 184.821C54.0445 184.685 54.0515 184.51 54.0598 184.29C54.0857 183.802 54.1221 183.117 54.1686 182.247C54.271 180.452 54.4175 177.892 54.5976 174.736C54.9395 168.374 55.4096 159.619 55.9292 149.946C56.4199 140.499 56.8818 131.924 57.2637 125.66L57.2672 125.598L57.3208 125.569C60.2411 123.999 62.6101 122.725 64.27 121.832C65.0791 121.404 65.7146 121.069 66.1671 120.83C66.3731 120.725 66.5372 120.641 66.6643 120.576C66.7779 120.52 66.8367 120.494 66.8397 120.499Z" fill="#455A64"/>
<path d="M106.349 126.798C106.433 126.791 106.68 129.034 106.9 131.807C107.12 134.581 107.23 136.834 107.146 136.841C107.062 136.847 106.815 134.605 106.595 131.831C106.374 129.058 106.264 126.805 106.349 126.798Z" fill="#455A64"/>
<path d="M107.036 136.61C106.957 136.64 106.418 135.375 105.833 133.785C105.247 132.196 104.837 130.883 104.917 130.855C104.996 130.825 105.535 132.09 106.12 133.68C106.705 135.269 107.116 136.581 107.036 136.61Z" fill="#455A64"/>
<path d="M105.976 117.813C105.98 117.807 106.07 117.858 106.242 117.96C106.427 118.074 106.677 118.228 106.994 118.423C107.667 118.846 108.623 119.449 109.834 120.213C112.292 121.782 115.78 124.01 119.977 126.689L120.034 126.726L120.036 126.794C120.185 132.404 120.364 139.12 120.556 146.33C120.806 156.303 121.008 165.331 121.129 171.868C121.177 175.12 121.216 177.759 121.244 179.608C121.245 180.506 121.245 181.212 121.246 181.714C121.239 181.941 121.234 182.121 121.23 182.261C121.225 182.384 121.22 182.447 121.215 182.447C121.209 182.447 121.204 182.383 121.199 182.26C121.195 182.12 121.19 181.94 121.184 181.714C121.17 181.212 121.15 180.508 121.125 179.611C121.074 177.763 121.001 175.125 120.913 171.873C120.743 165.321 120.509 156.302 120.251 146.338C120.076 139.128 119.915 132.412 119.779 126.801L119.838 126.906C115.666 124.188 112.198 121.929 109.754 120.337C108.559 119.549 107.616 118.926 106.952 118.488C106.644 118.28 106.402 118.115 106.221 117.993C106.056 117.88 105.973 117.818 105.976 117.813Z" fill="#455A64"/>
<path d="M90.373 128.312C90.4189 128.289 90.8596 128.768 91.3798 129.407C91.8952 130.046 92.2706 130.6 92.2053 130.654C92.1406 130.708 91.6592 130.241 91.1414 129.6C90.6248 128.965 90.2676 128.368 90.373 128.312Z" fill="#455A64"/>
<path d="M90.373 128.313C90.2883 128.318 90.1047 126.437 89.9623 124.112C89.8199 121.785 89.7729 119.896 89.8576 119.891C89.9417 119.886 90.1259 121.767 90.2683 124.093C90.4107 126.418 90.4578 128.308 90.373 128.313Z" fill="#455A64"/>
<path d="M70.2773 132.996C70.2973 133.079 70.1214 133.192 69.8849 133.25C69.6477 133.308 69.44 133.288 69.42 133.206C69.4 133.124 69.5754 133.011 69.8125 132.952C70.049 132.895 70.2573 132.914 70.2773 132.996Z" fill="#455A64"/>
<path d="M73.712 132.159C73.732 132.242 73.3637 132.402 72.8894 132.518C72.4151 132.633 72.0144 132.661 71.9944 132.578C71.9744 132.496 72.3428 132.336 72.817 132.22C73.2913 132.104 73.692 132.077 73.712 132.159Z" fill="#455A64"/>
<path d="M77.1466 131.321C77.1666 131.403 76.7983 131.563 76.324 131.679C75.8497 131.795 75.449 131.822 75.429 131.74C75.409 131.657 75.7773 131.497 76.2516 131.381C76.7259 131.266 77.1266 131.238 77.1466 131.321Z" fill="#455A64"/>
<path d="M80.5817 130.484C80.6017 130.566 80.2333 130.726 79.759 130.842C79.2848 130.958 78.8841 130.985 78.8641 130.902C78.8441 130.82 79.2124 130.66 79.6867 130.544C80.1603 130.429 80.5611 130.402 80.5817 130.484Z" fill="#455A64"/>
<path d="M84.0165 129.646C84.0365 129.729 83.6681 129.889 83.1939 130.005C82.7196 130.121 82.3189 130.147 82.2989 130.065C82.2789 129.983 82.6472 129.823 83.1215 129.707C83.5952 129.592 83.9965 129.564 84.0165 129.646Z" fill="#455A64"/>
<path d="M87.451 128.809C87.4711 128.892 87.1027 129.052 86.6284 129.167C86.1542 129.283 85.7535 129.31 85.7334 129.228C85.7134 129.146 86.0818 128.986 86.5561 128.87C87.0303 128.754 87.431 128.727 87.451 128.809Z" fill="#455A64"/>
<path d="M90.0254 128.181C90.0454 128.264 89.8695 128.377 89.6329 128.435C89.3964 128.493 89.1881 128.473 89.1681 128.391C89.1481 128.308 89.3234 128.195 89.5605 128.137C89.7977 128.079 90.0054 128.099 90.0254 128.181Z" fill="#455A64"/>
<path d="M91.4334 128.393C91.4111 128.475 91.2028 128.492 90.9674 128.43C90.732 128.368 90.5585 128.252 90.5791 128.17C90.5996 128.088 90.808 128.072 91.0451 128.133C91.2816 128.196 91.4552 128.312 91.4334 128.393Z" fill="#455A64"/>
<path d="M94.6969 129.377C94.6698 129.457 94.2856 129.407 93.8384 129.265C93.3912 129.123 93.0481 128.942 93.0722 128.861C93.0964 128.78 93.4806 128.83 93.9307 128.973C94.3809 129.116 94.7239 129.297 94.6969 129.377Z" fill="#455A64"/>
<path d="M97.8971 130.547C97.8654 130.626 97.4847 130.554 97.0469 130.386C96.6085 130.218 96.2766 130.018 96.3055 129.938C96.3343 129.859 96.715 129.931 97.1563 130.099C97.5965 130.269 97.9283 130.469 97.8971 130.547Z" fill="#455A64"/>
<path d="M101.025 131.904C100.989 131.98 100.612 131.886 100.185 131.693C99.7571 131.5 99.4376 131.281 99.4712 131.204C99.5047 131.126 99.8807 131.22 100.311 131.414C100.741 131.608 101.06 131.827 101.025 131.904Z" fill="#455A64"/>
<path d="M104.068 133.437C104.027 133.511 103.658 133.395 103.242 133.178C102.826 132.961 102.52 132.723 102.558 132.648C102.595 132.572 102.965 132.688 103.384 132.906C103.802 133.125 104.108 133.363 104.068 133.437Z" fill="#455A64"/>
<path d="M106.316 134.719C106.272 134.792 106.067 134.75 105.858 134.627C105.649 134.503 105.513 134.344 105.556 134.271C105.598 134.198 105.803 134.239 106.013 134.363C106.225 134.487 106.36 134.647 106.316 134.719Z" fill="#455A64"/>
<path d="M89.2249 59.3148C89.2249 59.3148 85.1666 78.1089 88.2893 85.9161C91.412 93.7227 103.487 109.606 103.487 109.606L112.686 109.067C112.686 109.067 109.368 60.544 108.587 59.5678C107.807 58.5916 89.9157 53.4412 89.9157 53.4412L89.2249 59.3148Z" fill="#F3B4C4"/>
<path d="M101.312 119.801C101.312 119.801 122.696 112.102 124.443 107.752C128.649 97.2753 113.438 61.6458 108.586 59.5675C103.734 57.4892 100.952 68.7863 101.755 72.0585C104.812 84.5148 110.855 97.4312 110.855 97.4312L96.4573 106.745L101.312 119.801Z" fill="#F3B4C4"/>
<path d="M77.1647 72.6439C76.2515 68.8804 74.7116 58.0364 74.7116 58.0364L63.7687 63.7594C61.8252 65.211 57.3726 70.2779 57.3738 76.0491C57.3761 86.4618 58.8501 110.203 60.7601 113.4C63.1121 117.337 73.0658 123.388 73.0658 123.388L80.0921 112.584L77.2277 110.325C78.947 106.931 82.7629 99.2099 83.2149 96.6497C83.8003 93.3316 77.9079 75.7078 77.1647 72.6439Z" fill="#F3B4C4"/>
<path d="M101.567 75.1065C101.577 75.1024 101.641 75.2342 101.752 75.4884C101.872 75.772 102.03 76.1427 102.227 76.6058C102.64 77.6132 103.215 79.0166 103.92 80.7365C105.334 84.2635 107.266 89.0827 109.4 94.4061C109.932 95.7483 110.452 97.0581 110.953 98.3233L111.001 98.4439L110.889 98.5086C106.798 100.868 103.211 102.937 100.611 104.437C99.3416 105.155 98.3154 105.736 97.574 106.155C97.2363 106.339 96.9638 106.488 96.7514 106.604C96.5625 106.704 96.4619 106.752 96.4572 106.744C96.4525 106.736 96.5443 106.672 96.7243 106.557C96.9303 106.429 97.1939 106.266 97.5217 106.063C98.2519 105.625 99.2628 105.018 100.513 104.267C103.099 102.745 106.668 100.644 110.738 98.2485L110.674 98.4333C110.17 97.1688 109.649 95.8595 109.115 94.5179C107.013 89.181 105.111 84.3506 103.719 80.8148C103.052 79.0801 102.507 77.665 102.116 76.6482C101.941 76.1769 101.801 75.7985 101.695 75.5096C101.601 75.2495 101.557 75.1101 101.567 75.1065Z" fill="#262626"/>
<path d="M116.834 101.919C116.798 101.946 116.521 101.615 116.078 101.085C115.633 100.561 115.018 99.8264 114.177 99.2256C113.336 98.6278 112.412 98.3595 111.742 98.3353C111.067 98.3024 110.657 98.4571 110.641 98.4048C110.625 98.3795 111.022 98.1423 111.744 98.1182C112.459 98.0858 113.463 98.3401 114.354 98.975C115.241 99.6093 115.844 100.39 116.25 100.952C116.652 101.522 116.866 101.895 116.834 101.919Z" fill="#262626"/>
<path d="M107.924 59.3773C107.944 59.4344 107.188 59.6192 106.179 60.3059C105.168 60.9772 103.973 62.2194 103.112 63.8699C102.251 65.5234 101.806 67.1739 101.484 68.3578C101.169 69.5476 100.979 70.2884 100.935 70.2784C100.915 70.2737 100.936 70.0836 100.992 69.7424C101.049 69.4017 101.141 68.9103 101.274 68.3066C101.544 67.1051 101.959 65.4228 102.841 63.7275C103.725 62.0317 104.989 60.7678 106.062 60.1246C106.595 59.7969 107.064 59.5974 107.397 59.495C107.729 59.3897 107.919 59.3603 107.924 59.3773Z" fill="#262626"/>
<path d="M71.9812 104.044C71.9712 104.047 71.9342 103.958 71.8736 103.786C71.8047 103.579 71.7223 103.329 71.6229 103.028C71.4034 102.32 71.111 101.373 70.7556 100.225C70.0359 97.8552 69.0621 94.5759 68.0047 90.9483C66.9473 87.3195 66.0064 84.0296 65.3397 81.6442C65.0226 80.485 64.7613 79.53 64.566 78.8145C64.4883 78.5073 64.4236 78.2525 64.3706 78.0407C64.3294 77.863 64.3124 77.7677 64.3224 77.7647C64.3324 77.7618 64.3689 77.8506 64.4295 78.0224C64.4983 78.2296 64.5807 78.4797 64.6801 78.7797C64.8996 79.4882 65.1921 80.4344 65.5475 81.5818C66.2671 83.952 67.2409 87.2324 68.2989 90.8618C69.3563 94.49 70.2972 97.7804 70.9639 100.166C71.281 101.324 71.5423 102.28 71.7376 102.996C71.8153 103.303 71.8794 103.558 71.933 103.769C71.9742 103.946 71.9913 104.041 71.9812 104.044Z" fill="#262626"/>
<path d="M72.039 59.4351C72.0496 59.4339 72.0731 59.5798 72.1078 59.8587C72.1426 60.1676 72.1885 60.5731 72.2455 61.0785C72.355 62.1736 72.508 63.6994 72.6951 65.5705C73.0523 69.3958 73.5401 74.6234 74.0791 80.3987C74.1856 81.4202 74.2903 82.4247 74.3921 83.4044L74.3168 83.2896C75.4701 83.954 76.5851 84.5959 77.6496 85.2085L77.8132 85.3026L77.6802 85.4362C76.9988 86.1205 76.3445 86.7766 75.7202 87.4033L75.7466 87.2503C76.1073 88.0158 76.4657 88.7514 76.8517 89.4151C77.2542 90.0682 77.6837 90.6702 78.1027 91.2186C78.9453 92.3166 79.7597 93.2163 80.4405 93.9495C81.113 94.6562 81.6514 95.2222 82.0457 95.6365C82.2163 95.8177 82.3552 95.9654 82.4676 96.0854C82.5617 96.189 82.6076 96.2449 82.6023 96.2496C82.597 96.2549 82.5411 96.209 82.437 96.116C82.3164 96.0042 82.1681 95.8659 81.9857 95.6971C81.595 95.3258 81.0254 94.7785 80.324 94.0607C79.6243 93.3416 78.7905 92.4525 77.9256 91.3563C77.4943 90.8067 77.0571 90.2101 76.6369 89.544C76.2344 88.8673 75.8708 88.1365 75.5001 87.3656L75.4595 87.2809L75.5272 87.212C76.1474 86.5813 76.7976 85.9211 77.4743 85.2332L77.5048 85.4609C76.438 84.8519 75.3212 84.2135 74.165 83.5538L74.0979 83.5156L74.0897 83.4391C73.9867 82.4582 73.8808 81.452 73.7731 80.4287C73.2247 74.6375 72.7969 69.39 72.4786 65.5905C72.332 63.7158 72.212 62.1871 72.1261 61.0897C72.0926 60.5819 72.0661 60.1747 72.0455 59.8646C72.0308 59.5834 72.0284 59.4357 72.039 59.4351Z" fill="#262626"/>
<path d="M82.4922 110.42L77.1188 103.277L64.3024 105.19L64.0117 106.022L77.553 122.44L89.1561 120.2L82.4922 110.42Z" fill="#455A64"/>
<path d="M82.201 111.252L76.8281 104.108L64.0117 106.022L77.2624 123.272L88.4824 120.958L89.1561 120.2L82.201 111.252Z" fill="#455A64"/>
<path d="M71.5435 108.314C71.8542 108.494 72.2525 108.39 72.4337 108.079C72.6144 107.768 72.5097 107.37 72.199 107.189C71.8883 107.009 71.4899 107.113 71.3087 107.424C71.1275 107.734 71.2328 108.133 71.5435 108.314Z" fill="#EBEBEB"/>
<path d="M97.1052 108.487L92.2819 109.816C90.6996 108.36 88.543 107.697 86.4153 108.014L84.6448 108.278L83.6397 109.818C83.6397 109.818 75.0282 111.489 74.8687 112.606L74.9123 112.952L74.9382 113.154L82.4264 112.546C82.4264 112.546 76.1168 113.467 75.7414 113.538C75.3283 113.615 73.9655 113.695 74.1038 114.43C74.2174 115.035 75.0088 115.408 76.1227 115.404C76.5811 115.403 82.1146 115.062 82.1146 115.062C82.1146 115.062 76.3704 115.864 76.0927 115.904C75.4183 116.001 75.6649 117.069 76.0856 117.145C76.4181 117.205 84.4553 118.302 84.4553 118.302C84.4553 118.302 83.2902 119.364 82.2216 119.446C81.1531 119.528 79.1383 118.44 78.8565 119.138C78.5746 119.836 78.7064 120.202 78.9559 120.319C79.2048 120.436 81.8886 121.348 82.753 121.451C83.6174 121.553 91.81 119.366 91.81 119.366L100.527 117.81L97.1052 108.487Z" fill="#EFD0BA"/>
<path d="M66.1348 108.785C66.1348 108.785 64.9844 109.452 65.9236 111.073C67.2981 113.445 69.2864 114.973 69.2864 114.973C69.2864 114.973 69.1816 115.899 70.0507 116.436C70.0507 116.436 69.1369 116.815 69.9695 118.328C69.9695 118.328 69.5647 120.087 71.4512 120.533C71.4512 120.533 71.1799 121.969 72.9981 122.364C74.8164 122.76 76.3092 121.384 76.3092 121.384L66.1348 108.785Z" fill="#EFD0BA"/>
<path d="M69.9243 114.744C71.1918 114.891 72.5687 114.954 73.7596 115.213C74.1515 115.299 74.5199 115.251 74.8123 115.526C75.1048 115.8 75.2354 116.287 74.9959 116.609C74.7853 116.892 74.3881 116.947 74.035 116.957C72.7117 116.994 71.4007 116.733 70.1026 116.474" fill="#EFD0BA"/>
<path d="M70.7139 116.705C71.9813 116.852 73.3588 116.914 74.5492 117.174C74.9411 117.259 75.3094 117.211 75.6019 117.486C75.8943 117.76 76.0249 118.247 75.7855 118.569C75.5748 118.853 75.177 118.907 74.8246 118.917C73.5012 118.954 72.1902 118.693 70.8922 118.435" fill="#EFD0BA"/>
<path d="M71.7183 118.694C72.9857 118.841 74.3632 118.903 75.5536 119.163C75.9455 119.248 76.3138 119.2 76.6063 119.475C76.8987 119.749 77.0293 120.237 76.7899 120.559C76.5792 120.842 76.182 120.896 75.829 120.906C74.5062 120.943 73.1946 120.683 71.8965 120.424" fill="#EFD0BA"/>
<path d="M70.1813 116.504C70.1936 116.45 71.0986 116.623 72.2225 116.761C73.3464 116.903 74.2661 116.958 74.2649 117.014C74.2649 117.065 73.3352 117.096 72.199 116.953C71.0627 116.812 70.1689 116.554 70.1813 116.504Z" fill="#AA6550"/>
<path d="M70.2225 118.333C70.2337 118.28 71.267 118.458 72.5462 118.634C73.8254 118.812 74.8687 118.919 74.8651 118.974C74.8622 119.025 73.8077 119.003 72.5203 118.824C71.2328 118.647 70.2113 118.383 70.2225 118.333Z" fill="#AA6550"/>
<path d="M71.3665 120.52C71.3718 120.467 72.3374 120.517 73.523 120.632C74.7093 120.747 75.6667 120.883 75.6614 120.936C75.6561 120.989 74.6905 120.939 73.5048 120.824C72.3185 120.709 71.3612 120.573 71.3665 120.52Z" fill="#AA6550"/>
<path d="M68.8738 114.647C68.8856 114.591 70.0189 114.796 71.4282 114.943C72.8374 115.093 73.9884 115.129 73.9884 115.186C73.9884 115.211 73.6995 115.235 73.2317 115.236C72.7645 115.236 72.1178 115.209 71.4082 115.134C70.6985 115.059 70.0607 114.951 69.6035 114.853C69.1463 114.755 68.8691 114.671 68.8738 114.647Z" fill="#EFD0BA"/>
<path d="M80.7051 110.363C80.6969 110.311 82.0514 110.058 83.7296 109.798C85.4089 109.539 86.7758 109.371 86.7841 109.423C86.7923 109.475 85.4378 109.728 83.759 109.988C82.0808 110.248 80.7134 110.416 80.7051 110.363Z" fill="#AA6550"/>
<path d="M81.1789 109.894C81.1789 109.894 81.0577 109.75 80.8488 109.474C80.6093 109.152 80.3133 108.756 79.9603 108.282C79.17 107.206 78.1244 105.782 76.9205 104.144L76.9764 104.167C76.0579 104.304 75.067 104.451 74.0384 104.604C71.3011 105.001 68.8256 105.36 66.9521 105.632C66.0906 105.751 65.3698 105.851 64.8026 105.93C64.5801 105.958 64.3871 105.982 64.2171 106.004C64.0829 106.02 64.0123 106.026 64.0117 106.022C64.0111 106.018 64.0806 106.003 64.2136 105.98C64.383 105.951 64.5743 105.919 64.7955 105.882C65.361 105.793 66.08 105.681 66.9391 105.546C68.8115 105.265 71.2852 104.893 74.0202 104.482C75.0487 104.331 76.0402 104.185 76.9587 104.051L76.994 104.045L77.0146 104.074C78.2038 105.723 79.2377 107.156 80.0191 108.238C80.3616 108.72 80.6481 109.123 80.88 109.45C81.0794 109.734 81.1789 109.894 81.1789 109.894Z" fill="#262626"/>
<g opacity="0.3">
<path d="M99.7937 104.655C100.068 103.233 101.031 102.399 102.367 101.84C103.703 101.281 105.192 100.767 105.966 99.5433C106.941 98.001 106.391 96.0004 105.949 94.2299C105.081 90.7494 102.915 82.1349 103.148 78.5549L110.814 98.3794L99.7937 104.655Z" fill="black"/>
</g>
<path d="M96.4573 99.8105C96.4497 99.8129 96.4132 99.7246 96.3496 99.551C96.2902 99.3763 96.1849 99.1215 96.0884 98.7778C95.8742 98.097 95.6317 97.0779 95.4352 95.7734C95.234 94.4694 95.1157 92.8789 94.8774 91.0895C94.7538 90.1957 94.5902 89.2525 94.3402 88.2822C94.2172 87.7961 94.0613 87.3077 93.8953 86.8111C93.7353 86.3057 93.5717 85.7896 93.4052 85.2636L93.4405 85.3236C93.251 85.1765 92.9344 85.0547 92.6532 84.9464C92.3619 84.8364 92.0606 84.7369 91.7564 84.6393C91.1468 84.4457 90.5178 84.2633 89.8776 84.0897L89.6816 84.0367L89.7911 83.8661C90.5696 82.6486 91.3798 81.3824 92.2107 80.0837L92.1871 80.1531C92.2166 79.6571 92.2477 79.1252 92.2795 78.5903C92.3719 75.1728 92.0824 71.9123 91.9118 68.9449C91.7246 65.9781 91.6693 63.2884 91.8429 61.0389C92.0177 58.7911 92.389 56.9894 92.8062 55.7978C92.8885 55.493 92.9909 55.2324 93.0898 55.0099C93.181 54.7928 93.2598 54.6051 93.3281 54.4445C93.4587 54.1397 93.5317 53.982 93.5411 53.9867C93.5505 53.9914 93.4964 54.1573 93.3852 54.468C93.3257 54.631 93.2557 54.8216 93.1757 55.0417C93.0868 55.2659 92.9939 55.5277 92.9209 55.8337C92.5414 57.0276 92.206 58.82 92.06 61.0548C91.9153 63.2914 91.9924 65.9651 92.1948 68.9284C92.3801 71.8911 92.6796 75.1551 92.5867 78.6021C92.5543 79.1428 92.5225 79.6795 92.4925 80.1808L92.4902 80.2167L92.4684 80.2502C91.6352 81.5471 90.8226 82.8122 90.0418 84.0279L89.9553 83.8043C90.6008 83.9808 91.2304 84.1662 91.8458 84.3645C92.153 84.4651 92.4572 84.5663 92.755 84.6805C93.0556 84.8058 93.341 84.8905 93.6399 85.1259L93.6623 85.1435L93.6752 85.1859C93.8371 85.7084 93.9965 86.2209 94.1519 86.7229C94.3172 87.2283 94.472 87.7255 94.5932 88.2192C94.8397 89.2048 94.9957 90.1592 95.111 91.0601C95.3316 92.8636 95.4276 94.45 95.6041 95.751C95.7759 97.052 95.9907 98.0688 96.176 98.7543C96.259 99.0997 96.3496 99.358 96.3943 99.5375C96.4426 99.7146 96.465 99.8082 96.4573 99.8105Z" fill="#262626"/>
<path d="M91.6747 96.0479C91.6929 96.0473 91.7235 96.2626 91.7317 96.6551C91.7412 97.0476 91.7117 97.6178 91.5929 98.3121C91.3646 99.6925 90.6726 101.597 89.2357 103.227C87.797 104.857 85.9935 105.782 84.6525 106.181C83.9787 106.386 83.4162 106.486 83.0261 106.526C82.6359 106.566 82.4182 106.564 82.4171 106.545C82.4088 106.487 83.2791 106.43 84.5848 105.975C85.8817 105.532 87.6122 104.603 89.0056 103.025C90.3972 101.445 91.1021 99.6125 91.3799 98.2703C91.6682 96.9181 91.6158 96.0467 91.6747 96.0479Z" fill="#262626"/>
</g>
<path d="M43.0186 26.8874C43.0186 27.5851 43.5842 28.1504 44.2815 28.1504C44.9792 28.1504 45.5444 27.5851 45.5444 26.8874C45.5444 26.1897 44.9787 25.6245 44.2815 25.6245C43.5838 25.6245 43.0186 26.1897 43.0186 26.8874Z" fill="#263238"/>
<path d="M39.2266 28.1504C39.9241 28.1504 40.4895 27.5849 40.4895 26.8874C40.4895 26.1899 39.9241 25.6245 39.2266 25.6245C38.5291 25.6245 37.9636 26.1899 37.9636 26.8874C37.9636 27.5849 38.5291 28.1504 39.2266 28.1504Z" fill="#263238"/>
<path d="M32.9221 26.2559C32.5734 26.8601 32.7802 27.6325 33.3844 27.9812C33.9885 28.3298 34.761 28.123 35.1096 27.5189C35.4582 26.9147 35.2514 26.1423 34.6473 25.7936C34.0431 25.445 33.2707 25.6518 32.9221 26.2559Z" fill="#263238"/>
<path d="M39.148 12.135C39.148 12.1292 39.0616 12.1279 38.8929 12.131C38.7076 12.1364 38.4592 12.1431 38.1424 12.152C37.9777 12.1597 37.792 12.1597 37.5892 12.1767C37.386 12.2053 37.1654 12.2362 36.9273 12.2697C36.687 12.3042 36.4297 12.3413 36.1544 12.3807C35.8837 12.4479 35.5959 12.5195 35.2912 12.5946C34.0784 12.9066 32.6091 13.4391 31.1072 14.4188C29.6062 15.3823 28.0461 16.7603 26.78 18.6327C25.5377 20.5079 24.5791 22.8668 24.3253 25.5162C24.3002 26.179 24.2206 26.8534 24.2846 27.539C24.3083 27.881 24.3016 28.2291 24.3517 28.5737C24.4036 28.9183 24.456 29.2661 24.5088 29.6156C24.7912 30.9976 25.2025 32.414 25.9149 33.7324C26.6108 35.0544 27.5081 36.3124 28.6037 37.4326C29.7207 38.5299 31.0257 39.4823 32.478 40.2158C33.9262 40.9556 35.5301 41.4662 37.2003 41.6654C37.6138 41.7473 38.0372 41.7468 38.4597 41.7723C38.8821 41.8001 39.3069 41.8153 39.7329 41.7956C40.5846 41.7611 41.4389 41.6542 42.2834 41.4734C44.1173 41.0831 45.8444 40.3362 47.3606 39.3368L47.2067 39.3525C48.9664 40.0587 50.6929 40.7519 52.3783 41.4282L52.6844 41.5512L52.5972 41.2335C52.0754 39.336 51.5679 37.4899 51.0769 35.7047L51.0509 35.8412C52.5023 33.9123 53.4273 31.71 53.8104 29.5234C54.0029 28.431 54.0839 27.3403 54.0114 26.2869C53.989 25.7588 53.9635 25.2383 53.8646 24.7321C53.8252 24.4784 53.7863 24.226 53.7473 23.9758C53.7012 23.727 53.6256 23.4862 53.5665 23.2436C52.5676 19.3519 50.1702 16.4774 47.7965 14.8323C46.6079 13.9954 45.4362 13.3953 44.3626 13.0207C44.0954 12.9249 43.8372 12.8327 43.5893 12.7437C43.3346 12.6788 43.0898 12.6166 42.8549 12.5571C42.6208 12.4989 42.3966 12.4434 42.1831 12.3906C41.9674 12.3494 41.7598 12.327 41.5647 12.297C41.1735 12.2474 40.8302 12.1798 40.5291 12.165C40.2328 12.1552 39.9799 12.1467 39.7691 12.1395C39.5767 12.1355 39.4237 12.1319 39.3051 12.1292C39.2012 12.1288 39.148 12.1306 39.148 12.135C39.148 12.1395 39.2008 12.1467 39.3051 12.1565C39.4232 12.1659 39.5754 12.178 39.7674 12.1932C39.9768 12.2075 40.2279 12.2241 40.5223 12.2442C40.8208 12.2675 41.1614 12.3427 41.5481 12.4C43.0702 12.6788 45.3516 13.2861 47.6828 14.9903C50.0104 16.6359 52.3465 19.483 53.3074 23.309C53.3638 23.5475 53.4372 23.7843 53.4815 24.0286C53.5182 24.2748 53.5553 24.5222 53.5929 24.772C53.6882 25.2687 53.7102 25.7802 53.7299 26.2985C53.797 27.3327 53.7124 28.4019 53.5204 29.4715C53.1369 31.6129 52.2244 33.7664 50.7986 35.6519L50.752 35.7136L50.7726 35.7888C51.26 37.5754 51.7634 39.4219 52.2817 41.3208L52.5005 41.1256C50.816 40.4472 49.0903 39.7526 47.3315 39.0442L47.2505 39.0115L47.1771 39.0598C45.6936 40.0359 44.0059 40.7649 42.2136 41.1467C41.3883 41.3234 40.5532 41.4277 39.7208 41.4622C39.3042 41.4819 38.8893 41.4667 38.4758 41.4398C38.0627 41.4152 37.6487 41.4165 37.2442 41.336C35.6111 41.1431 34.0425 40.6454 32.6257 39.9236C31.2048 39.208 29.9266 38.2793 28.8306 37.2075C27.7561 36.1133 26.8749 34.8839 26.1897 33.5919C25.488 32.3026 25.0816 30.917 24.7993 29.5632C24.7464 29.2204 24.6936 28.8803 24.6413 28.5424C24.5907 28.2045 24.5965 27.8631 24.5719 27.5279C24.5057 26.8557 24.5822 26.1938 24.6032 25.5426C24.8404 22.9416 25.7681 20.6198 26.9778 18.7657C28.2112 16.9147 29.7368 15.5434 31.2097 14.5772C32.6829 13.5949 34.1289 13.0498 35.3256 12.7217C35.6259 12.6416 35.9105 12.566 36.1782 12.4949C36.4503 12.4501 36.7049 12.4085 36.9426 12.3695C37.1784 12.3306 37.3972 12.2948 37.5982 12.2612C37.7996 12.2389 37.9835 12.2339 38.1473 12.2205C38.4624 12.1977 38.7098 12.1798 38.8938 12.1664C39.0616 12.1507 39.148 12.1409 39.148 12.135Z" fill="#263238"/>
</g>
<defs>
<clipPath id="clip0_2141_44486">
<rect width="168.878" height="161.937" fill="white" transform="translate(0.0822754 0.00415039)"/>
</clipPath>
</defs>
</svg>
