<svg width="18" height="18" viewBox="0 0 18 18" fill="none" xmlns="http://www.w3.org/2000/svg">
<path d="M3.64505 12.8416L3.66517 11.4137C3.67068 11.0232 3.82824 10.6503 4.10437 10.3742L10.0942 4.3843C10.8587 3.61977 12.0983 3.61977 12.8628 4.3843C13.6273 5.14882 13.6273 6.38836 12.8628 7.15289L6.87296 13.1427C6.59683 13.4189 6.2239 13.5764 5.83344 13.5819L4.40554 13.6021C3.98309 13.608 3.63909 13.264 3.64505 12.8416Z" fill="black" fill-opacity="0.12"/>
<path fill-rule="evenodd" clip-rule="evenodd" d="M9.64344 3.93371C10.6569 2.92022 12.3001 2.92022 13.3136 3.93371C14.3271 4.94719 14.3271 6.59038 13.3136 7.60386L7.32374 13.5937C6.93025 13.9872 6.39884 14.2117 5.84242 14.2196L4.41453 14.2397C3.63299 14.2507 2.99659 13.6143 3.00761 12.8328L3.02774 11.4049C3.03558 10.8485 3.2601 10.317 3.65358 9.92356L9.64344 3.93371ZM12.412 4.83527C11.8965 4.3197 11.0606 4.3197 10.545 4.83527L4.55515 10.8251C4.39637 10.9839 4.30578 11.1983 4.30261 11.4228L3.66517 11.4139L4.30261 11.4228L4.28248 12.8507C4.28159 12.9141 4.33319 12.9657 4.39656 12.9648L5.82445 12.9447C6.04897 12.9415 6.2634 12.8509 6.42218 12.6922L12.412 6.7023C12.9276 6.18673 12.9276 5.35084 12.412 4.83527Z" fill="black"/>
<path fill-rule="evenodd" clip-rule="evenodd" d="M11.4775 8.07714L9.17091 5.76945L10.0723 4.86768L12.3789 7.17537L11.4775 8.07714Z" fill="black"/>
<path fill-rule="evenodd" clip-rule="evenodd" d="M9.22656 14.1116C9.22656 13.7595 9.51198 13.4741 9.86406 13.4741H15.1132C15.4653 13.4741 15.7507 13.7595 15.7507 14.1116C15.7507 14.4637 15.4653 14.7491 15.1132 14.7491H9.86406C9.51198 14.7491 9.22656 14.4637 9.22656 14.1116Z" fill="black"/>
</svg>
