<svg width="170" height="163" viewBox="0 0 170 163" fill="none" xmlns="http://www.w3.org/2000/svg">
<g opacity="0.95">
<g clip-path="url(#clip0_2141_44980)">
<path d="M169.437 85.9611C169.16 128.282 148.213 148.971 121.141 157.591C109.468 161.314 96.6504 162.791 83.8646 162.791C72.5477 162.791 61.1045 160.834 50.4726 156.915C21.2382 146.136 -1.8504 120.501 0.762979 79.8157C1.56697 67.2913 5.17008 55.713 10.9354 45.5012C13.0539 41.7474 15.4612 38.1836 18.1339 34.822C23.3527 28.249 29.5695 22.4637 36.5503 17.6131C39.227 15.752 42.0145 14.0296 44.9013 12.4537C55.5886 6.62501 67.6257 2.80381 80.3481 1.43393C122.566 -3.10389 152.481 19.4228 164.095 52.6521C164.709 54.4101 165.275 56.1999 165.786 58.0216C166.332 59.9617 166.819 61.9378 167.243 63.9413C167.647 65.822 167.991 67.7268 168.284 69.6589C169.08 74.9414 169.473 80.3899 169.437 85.9611Z" fill="#0E0E0E"/>
<path d="M142.038 131.703C142.038 131.708 141.954 131.713 141.79 131.719C141.611 131.722 141.37 131.728 141.061 131.734C140.405 131.741 139.464 131.751 138.26 131.763C135.811 131.775 132.295 131.791 127.957 131.812C119.244 131.824 107.233 131.839 93.9665 131.856C80.6952 131.839 68.6826 131.823 59.9699 131.812C55.632 131.791 52.1162 131.775 49.6678 131.763C48.4639 131.751 47.523 131.741 46.8669 131.734C46.558 131.728 46.3167 131.722 46.1385 131.719C45.9743 131.713 45.8901 131.708 45.8901 131.703C45.8901 131.698 45.9743 131.692 46.1385 131.687C46.3167 131.683 46.558 131.678 46.8669 131.672C47.5236 131.665 48.4639 131.655 49.6678 131.643C52.1162 131.631 55.632 131.615 59.9699 131.594C68.6826 131.582 80.6952 131.566 93.9665 131.549C107.233 131.567 119.244 131.583 127.957 131.594C132.295 131.615 135.811 131.631 138.26 131.643C139.464 131.655 140.405 131.665 141.061 131.672C141.37 131.678 141.611 131.683 141.79 131.687C141.954 131.692 142.038 131.698 142.038 131.703Z" fill="#454343"/>
<path d="M66.0664 63.8252L79.047 56.7983L91.8904 55.0454L103.674 99.8842L102.59 113.708L69.3527 115.497L70.7067 83.3249L66.0664 63.8252Z" fill="#EBEBEB"/>
<path d="M88.5194 31.3978C82.3727 27.6178 74.6621 27.4601 68.366 30.9859C68.366 30.9859 68.752 44.1689 69.4198 49.8565C70.0883 55.5448 75.8777 55.8325 75.8777 55.8325L76.1149 57.9061C76.5656 61.8421 80.1014 64.6812 84.0415 64.2711C87.8427 63.8751 90.6783 60.5882 90.5118 56.7699L89.4308 31.9586L88.5194 31.3978Z" fill="#EFD0BA"/>
<path d="M75.8601 55.7515C75.8601 55.7515 79.4907 55.6662 83.0641 52.8618C83.0641 52.8618 81.739 57.1449 76.0019 57.2291L75.8601 55.7515Z" fill="#AA6550"/>
<path d="M89.3491 37.9326C89.4421 37.8802 93.1409 36.3639 93.4257 40.271C93.7099 44.1781 89.7286 43.6579 89.7139 43.5461C89.6992 43.4349 89.3491 37.9326 89.3491 37.9326Z" fill="#EFD0BA"/>
<path d="M90.7996 41.9791C90.816 41.9656 90.8713 42.0221 90.9902 42.0662C91.1061 42.1092 91.3015 42.1309 91.4998 42.0397C91.9017 41.8579 92.2012 41.1777 92.1688 40.4722C92.1529 40.1156 92.0535 39.7825 91.9075 39.5113C91.7675 39.2341 91.568 39.0476 91.3574 39.0258C91.1473 38.9929 91.009 39.1282 90.969 39.2418C90.9249 39.3548 90.9549 39.4313 90.9349 39.4389C90.9249 39.4495 90.846 39.3795 90.866 39.2159C90.8766 39.137 90.9155 39.0417 91.002 38.9599C91.0902 38.877 91.225 38.8281 91.3715 38.8328C91.6739 38.8317 91.9658 39.0894 92.1264 39.3871C92.3041 39.6849 92.4236 40.0585 92.4418 40.4592C92.4742 41.2483 92.1247 42.0144 91.5716 42.2186C91.3021 42.3104 91.0667 42.2439 90.9414 42.1603C90.8137 42.0733 90.7866 41.9874 90.7996 41.9791Z" fill="#AA6550"/>
<path d="M71.0656 40.3351C71.0956 40.7664 71.4851 41.0965 71.9358 41.0736C72.386 41.0506 72.7273 40.6835 72.6972 40.2521C72.6672 39.8208 72.2777 39.4901 71.8276 39.5131C71.3768 39.536 71.0355 39.9038 71.0656 40.3351Z" fill="#262626"/>
<path d="M70.2847 38.8848C70.3965 38.9802 70.9649 38.4594 71.8405 38.37C72.7137 38.2682 73.4033 38.6506 73.4869 38.5336C73.5287 38.4812 73.4057 38.3005 73.1044 38.1264C72.8079 37.9528 72.3177 37.8045 71.7722 37.8639C71.2274 37.9239 70.7896 38.1729 70.5477 38.4059C70.3012 38.6412 70.2306 38.8425 70.2847 38.8848Z" fill="#262626"/>
<path d="M79.796 39.8002C79.826 40.2315 80.2155 40.5616 80.6662 40.5387C81.1164 40.5157 81.4577 40.1485 81.4276 39.7172C81.3976 39.2859 81.0081 38.9552 80.558 38.9782C80.1078 39.0011 79.7665 39.3695 79.796 39.8002Z" fill="#262626"/>
<path d="M78.9057 38.1454C79.0181 38.2407 79.5871 37.7199 80.462 37.6305C81.3353 37.5287 82.0249 37.9112 82.1084 37.7941C82.1502 37.7417 82.0284 37.5611 81.726 37.3869C81.4294 37.2127 80.9393 37.065 80.3944 37.1245C79.8495 37.1851 79.4123 37.4334 79.1699 37.667C78.9233 37.9012 78.8515 38.103 78.9057 38.1454Z" fill="#262626"/>
<path d="M76.4108 44.9694C76.4097 44.9194 75.856 44.8823 74.9621 44.8623C74.7362 44.8629 74.5202 44.8406 74.4667 44.6917C74.3973 44.5358 74.4649 44.2851 74.5461 44.0138C74.6997 43.4513 74.8598 42.8611 75.0286 42.2427C75.6924 39.7231 76.1472 37.6607 76.046 37.6348C75.9442 37.6089 75.324 39.6301 74.6603 42.1497C74.502 42.7705 74.3508 43.3625 74.2072 43.9285C74.149 44.1915 74.0342 44.4946 74.1831 44.8176C74.2608 44.9783 74.4373 45.0824 74.585 45.1059C74.7327 45.1348 74.8586 45.1236 74.9698 45.1189C75.8618 45.073 76.4126 45.0194 76.4108 44.9694Z" fill="#262626"/>
<path d="M78.3195 34.739C78.4307 34.9679 79.2927 34.7631 80.3325 34.7796C81.3728 34.7749 82.2325 34.9885 82.3461 34.7607C82.3961 34.6525 82.2284 34.4436 81.8688 34.2482C81.5128 34.0529 80.9603 33.8899 80.3366 33.8858C79.7129 33.8834 79.1592 34.0405 78.8008 34.2318C78.4407 34.423 78.2707 34.6301 78.3195 34.739Z" fill="#262626"/>
<path d="M70.3407 36.3181C70.5155 36.5005 71.0968 36.231 71.8212 36.1451C72.542 36.0339 73.174 36.138 73.294 35.915C73.3452 35.8073 73.2275 35.6185 72.9398 35.4584C72.6556 35.2984 72.1978 35.1919 71.7006 35.2589C71.2039 35.3272 70.7915 35.5526 70.5602 35.7826C70.3254 36.0145 70.2631 36.2281 70.3407 36.3181Z" fill="#262626"/>
<path d="M65.2137 27.6815C65.0784 26.9818 65.262 26.1963 65.7927 25.7214C66.3235 25.2466 67.2173 25.1789 67.7404 25.6632C67.3732 24.7399 68.0358 23.5613 69.0149 23.3954C69.9375 23.2389 70.8037 23.8573 71.7269 24.0091C72.6284 24.1574 73.5469 23.8508 74.3542 23.4231C75.1616 22.9953 75.9 22.4439 76.7209 22.0426C78.4326 21.2059 80.4762 21.0735 82.2814 21.6837C84.0867 22.2933 85.6313 23.6378 86.4851 25.3413C87.6902 24.8211 89.1718 25.3054 90.0509 26.2793C90.9295 27.2537 91.2725 28.6188 91.2554 29.931C91.2443 30.8177 91.0795 31.6904 90.8724 32.5553C90.88 32.6283 90.8947 32.6995 90.9012 32.7731C91.1713 35.9111 91.2031 39.6264 89.8691 39.787C87.5437 40.0671 87.6378 35.621 87.6378 35.621C84.664 34.8166 85.2788 30.4229 84.4962 29.848C83.7136 29.2737 82.0602 27.9209 76.3972 31.6074C74.1983 33.039 71.105 33.3262 69.378 33.1208C69.3274 33.1155 69.2762 33.1132 69.2261 33.1061C69.2156 33.1043 69.2014 33.1043 69.1908 33.1026C69.172 33.0996 69.1579 33.0908 69.1391 33.0879C68.5865 33.0043 68.0464 32.8507 67.5362 32.5977C66.9584 32.3117 66.4164 31.8992 66.124 31.3244C65.8316 30.7495 65.8392 29.9928 66.2635 29.5073C65.7633 29.0001 65.3485 28.3811 65.2137 27.6815Z" fill="#262626"/>
<path d="M75.9507 47.7398C76.1243 48.0728 76.302 48.4111 76.5627 48.6812C76.8233 48.9513 77.1846 49.1496 77.5595 49.1278C77.959 49.1049 78.3179 48.8295 78.505 48.4753C78.6922 48.1211 78.7245 47.7015 78.6651 47.3055C78.611 46.9477 78.4015 46.5358 78.0396 46.5305C77.889 46.5288 77.7489 46.6012 77.6159 46.6724C77.0163 46.9919 76.4167 47.312 75.8171 47.6315" fill="#AA6550"/>
<path d="M76.8634 49.2067C76.8669 49.1467 77.297 49.2709 77.8525 48.9778C78.1214 48.8355 78.405 48.5795 78.538 48.21C78.671 47.8446 78.6551 47.3709 78.4338 46.9784C78.3815 46.8795 78.3097 46.7925 78.2408 46.7148C78.1585 46.6448 78.172 46.6465 78.0926 46.6671C78.0178 46.696 77.9007 46.7672 77.8037 46.8172C77.7036 46.8707 77.6048 46.9237 77.5083 46.9755C77.1234 47.1802 76.7739 47.3609 76.4785 47.508C75.8872 47.8022 75.5106 47.964 75.4876 47.9234C75.4653 47.8828 75.8007 47.6474 76.362 47.2997C76.6427 47.1255 76.9799 46.9237 77.3564 46.7042C77.4512 46.6495 77.5477 46.593 77.6465 46.5359C77.7513 46.4794 77.8301 46.4212 77.9749 46.3588C78.0461 46.3306 78.149 46.3076 78.2544 46.3376C78.3579 46.3676 78.4268 46.4282 78.4786 46.4794C78.5745 46.5824 78.6604 46.6895 78.7275 46.8136C79.0023 47.3044 79.0087 47.8781 78.8281 48.3229C78.6433 48.7772 78.2773 49.0602 77.9555 49.1938C77.6283 49.3333 77.3347 49.3391 77.1446 49.3109C76.9522 49.2809 76.8581 49.2262 76.8634 49.2067Z" fill="#262626"/>
<path d="M84.6292 29.2978C84.6068 29.2978 84.6621 29.0436 84.5597 28.6082C84.4591 28.1804 84.1473 27.572 83.5012 27.1018C82.8704 26.6152 81.8924 26.3887 80.848 26.524C79.7953 26.6435 78.7114 27.1071 77.5946 27.6191C77.0327 27.8721 76.4784 28.1151 75.9223 28.3005C75.3657 28.4835 74.8114 28.6088 74.2777 28.6776C73.2091 28.8224 72.2312 28.7488 71.4333 28.6029C70.6348 28.4487 70.0134 28.2234 69.5986 28.0427C69.3897 27.9545 69.2337 27.8738 69.129 27.8168C69.0237 27.7609 68.9701 27.7291 68.9725 27.7238C68.9801 27.7079 69.2026 27.8227 69.6233 27.9821C70.0422 28.1428 70.663 28.3487 71.4539 28.4858C72.2441 28.6147 73.2074 28.6741 74.2565 28.5235C74.7808 28.4511 75.3233 28.3252 75.8694 28.1434C76.4154 27.9586 76.9638 27.7173 77.5246 27.4649C78.6397 26.9542 79.7465 26.4834 80.8292 26.3693C81.9019 26.2369 82.9251 26.4864 83.5718 27.0053C84.2332 27.5055 84.5392 28.1475 84.6227 28.5929C84.7092 29.0472 84.6292 29.2978 84.6292 29.2978Z" fill="#455A64"/>
<path d="M90.0685 38.4583C90.0638 38.4612 90.0338 38.423 89.9808 38.3465C89.9267 38.2712 89.8543 38.1547 89.7654 38.0023C89.5895 37.6969 89.3612 37.2361 89.1629 36.6342C88.9687 36.0328 88.8081 35.2873 88.7851 34.4476C88.7498 33.605 88.9175 32.6941 89.0158 31.7479C89.1217 30.8041 89.0723 29.8803 88.7463 29.1295C88.5886 28.7558 88.3621 28.4363 88.0967 28.1945C87.8307 27.9591 87.5188 27.8114 87.2217 27.7437C86.6203 27.6008 86.1072 27.7473 85.8195 27.9273C85.53 28.1156 85.4299 28.2927 85.4141 28.2798C85.4141 28.2798 85.4911 28.088 85.783 27.8726C86.0725 27.6672 86.6097 27.4919 87.247 27.6278C87.5624 27.692 87.8972 27.8408 88.1885 28.0903C88.4739 28.3416 88.7186 28.6776 88.8875 29.0677C89.237 29.8491 89.29 30.81 89.1823 31.7644C89.0823 32.723 88.9128 33.6197 88.9393 34.4435C88.9534 35.2667 89.0988 36.001 89.2759 36.5983C89.4565 37.1955 89.6654 37.6586 89.8219 37.9711C89.9808 38.2841 90.0814 38.4506 90.0685 38.4583Z" fill="#455A64"/>
<path d="M85.1281 28.78C85.1222 28.78 85.1152 28.7011 85.1063 28.5511C85.0952 28.3845 85.0805 28.1668 85.0622 27.8956C85.0087 27.3324 84.9392 26.4945 84.5509 25.5578C84.3537 25.0953 84.0601 24.6145 83.6388 24.2009C83.2216 23.7878 82.6603 23.4477 82.006 23.3524C81.3534 23.2459 80.6467 23.3818 79.9765 23.6501C79.3016 23.919 78.6678 24.3368 78.0353 24.7881C77.4016 25.2388 76.7837 25.6949 76.1235 26.0403C75.4598 26.3786 74.7625 26.5928 74.0846 26.6775C73.4068 26.764 72.7507 26.7446 72.1523 26.6434C71.5538 26.5392 71.0125 26.3692 70.5376 26.168C69.592 25.749 68.9383 25.2071 68.5411 24.7963C68.3375 24.5933 68.201 24.4168 68.1127 24.2938C68.0221 24.1732 67.9768 24.1085 67.9815 24.105C67.9862 24.1014 68.0404 24.1597 68.1392 24.2727C68.2357 24.3874 68.3787 24.5563 68.5876 24.7499C68.9942 25.1423 69.6503 25.6613 70.5847 26.0585C71.0543 26.2486 71.5874 26.4092 72.1746 26.5051C72.7619 26.5981 73.4032 26.6116 74.0646 26.5234C74.7266 26.4363 75.4015 26.2256 76.0476 25.8943C76.6919 25.5554 77.3027 25.1035 77.9388 24.651C78.5731 24.1985 79.221 23.7719 79.9165 23.4971C80.6067 23.2235 81.344 23.0835 82.0318 23.1994C82.7226 23.3047 83.3111 23.6695 83.7388 24.102C84.1719 24.5363 84.4673 25.0347 84.6621 25.5125C85.0451 26.4775 85.0952 27.3248 85.1287 27.892C85.1416 28.178 85.1428 28.4004 85.1416 28.5511C85.1381 28.7011 85.1334 28.78 85.1281 28.78Z" fill="#455A64"/>
<path d="M46.3884 185.735L49.7507 131.567C50.3585 123.286 51.7142 119.509 58.3881 116.229L61.2384 114.249L90.8924 111.512L92.7171 131.358L69.5522 136.542L63.4838 188.466L46.3884 185.735Z" fill="#262626"/>
<path d="M92.7182 131.358L107.515 137.459L110.721 184.639L129.882 182.294L128.712 131.258C128.625 127.445 126.919 123.85 124.021 121.372L110.625 109.915L90.8935 111.512L89.4978 132.078L92.7182 131.358Z" fill="#262626"/>
<path d="M70.1859 129.852C70.27 129.86 70.0841 132.331 69.7699 135.369C69.4556 138.408 69.1332 140.864 69.049 140.856C68.9649 140.847 69.1508 138.377 69.4651 135.338C69.7793 132.299 70.1017 129.843 70.1859 129.852Z" fill="#455A64"/>
<path d="M67.3184 121.348C67.3208 121.353 67.2672 121.389 67.159 121.453C67.0354 121.525 66.8765 121.618 66.6765 121.735C66.231 121.986 65.6044 122.339 64.8076 122.788C63.1589 123.702 60.8058 125.006 57.9055 126.612L57.9625 126.521C57.6395 132.806 57.1994 141.372 56.7139 150.811C56.2108 160.494 55.7107 169.258 55.2923 175.598C55.071 178.751 54.8916 181.31 54.7657 183.104C54.695 183.973 54.6391 184.656 54.5997 185.143C54.5785 185.362 54.5621 185.536 54.5491 185.672C54.5362 185.792 54.5268 185.852 54.5215 185.852C54.5162 185.852 54.515 185.791 54.5179 185.671C54.5232 185.534 54.5303 185.359 54.5385 185.139C54.5644 184.651 54.6009 183.966 54.6474 183.096C54.7498 181.302 54.8963 178.741 55.0763 175.585C55.4182 169.223 55.8884 160.468 56.4079 150.795C56.8987 141.348 57.3606 132.773 57.7425 126.509L57.746 126.447L57.7996 126.418C60.7199 124.848 63.0889 123.574 64.7488 122.681C65.5579 122.254 66.1934 121.918 66.6459 121.679C66.8518 121.574 67.016 121.49 67.1431 121.426C67.2567 121.369 67.3155 121.343 67.3184 121.348Z" fill="#455A64"/>
<path d="M106.827 127.647C106.911 127.64 107.159 129.883 107.379 132.656C107.599 135.43 107.709 137.683 107.625 137.69C107.541 137.696 107.293 135.454 107.073 132.68C106.853 129.907 106.743 127.654 106.827 127.647Z" fill="#455A64"/>
<path d="M107.515 137.46C107.435 137.489 106.896 136.224 106.312 134.635C105.726 133.045 105.316 131.732 105.395 131.704C105.475 131.674 106.014 132.939 106.599 134.529C107.184 136.118 107.594 137.43 107.515 137.46Z" fill="#455A64"/>
<path d="M106.455 118.662C106.458 118.656 106.548 118.707 106.72 118.809C106.906 118.923 107.156 119.077 107.473 119.272C108.145 119.695 109.102 120.298 110.313 121.062C112.771 122.631 116.259 124.859 120.456 127.538L120.513 127.575L120.515 127.643C120.664 133.253 120.843 139.969 121.035 147.179C121.285 157.152 121.487 166.181 121.607 172.717C121.656 175.97 121.695 178.609 121.723 180.457C121.723 181.355 121.724 182.061 121.724 182.563C121.718 182.79 121.713 182.971 121.709 183.111C121.704 183.234 121.699 183.297 121.693 183.297C121.688 183.296 121.683 183.232 121.678 183.109C121.674 182.969 121.669 182.789 121.663 182.563C121.649 182.061 121.629 181.357 121.604 180.46C121.553 178.612 121.48 175.974 121.391 172.722C121.221 166.17 120.988 157.151 120.729 147.187C120.555 139.977 120.393 133.261 120.258 127.65L120.317 127.755C116.144 125.037 112.677 122.778 110.233 121.186C109.038 120.398 108.094 119.775 107.431 119.337C107.123 119.129 106.88 118.965 106.7 118.842C106.534 118.729 106.451 118.667 106.455 118.662Z" fill="#455A64"/>
<path d="M90.8517 129.161C90.8976 129.139 91.3383 129.617 91.8585 130.257C92.374 130.895 92.7494 131.449 92.6841 131.503C92.6193 131.558 92.138 131.09 91.6202 130.449C91.1036 129.814 90.7464 129.217 90.8517 129.161Z" fill="#455A64"/>
<path d="M90.8518 129.162C90.7671 129.167 90.5835 127.286 90.4411 124.961C90.2987 122.635 90.2516 120.745 90.3363 120.74C90.4205 120.735 90.6047 122.616 90.7471 124.942C90.8895 127.267 90.9365 129.157 90.8518 129.162Z" fill="#455A64"/>
<path d="M70.7561 133.846C70.7761 133.928 70.6002 134.041 70.3636 134.099C70.1265 134.157 69.9188 134.137 69.8988 134.055C69.8788 133.973 70.0541 133.86 70.2913 133.801C70.5278 133.744 70.7361 133.763 70.7561 133.846Z" fill="#455A64"/>
<path d="M74.1908 133.008C74.2108 133.091 73.8424 133.251 73.3682 133.367C72.8939 133.483 72.4932 133.51 72.4732 133.427C72.4532 133.345 72.8215 133.185 73.2958 133.069C73.7701 132.953 74.1708 132.926 74.1908 133.008Z" fill="#455A64"/>
<path d="M77.6254 132.17C77.6454 132.252 77.277 132.412 76.8027 132.528C76.3285 132.644 75.9278 132.671 75.9078 132.589C75.8878 132.507 76.2561 132.347 76.7304 132.231C77.2046 132.115 77.6053 132.088 77.6254 132.17Z" fill="#455A64"/>
<path d="M81.0604 131.333C81.0804 131.415 80.7121 131.575 80.2378 131.691C79.7635 131.807 79.3628 131.834 79.3428 131.752C79.3228 131.669 79.6912 131.509 80.1654 131.393C80.6391 131.278 81.0398 131.251 81.0604 131.333Z" fill="#455A64"/>
<path d="M84.4952 130.495C84.5152 130.578 84.1469 130.738 83.6726 130.854C83.1984 130.97 82.7976 130.996 82.7776 130.914C82.7576 130.832 83.126 130.672 83.6003 130.556C84.0739 130.441 84.4752 130.413 84.4952 130.495Z" fill="#455A64"/>
<path d="M87.9298 129.658C87.9498 129.741 87.5815 129.901 87.1072 130.017C86.6329 130.133 86.2322 130.159 86.2122 130.077C86.1922 129.995 86.5605 129.835 87.0348 129.719C87.5091 129.603 87.9098 129.576 87.9298 129.658Z" fill="#455A64"/>
<path d="M90.5041 129.03C90.5242 129.113 90.3482 129.226 90.1117 129.284C89.8751 129.342 89.6668 129.322 89.6468 129.24C89.6268 129.157 89.8022 129.044 90.0393 128.986C90.2764 128.929 90.4841 128.948 90.5041 129.03Z" fill="#455A64"/>
<path d="M91.9122 129.243C91.8898 129.324 91.6815 129.341 91.4462 129.279C91.2108 129.217 91.0372 129.101 91.0578 129.019C91.0784 128.937 91.2867 128.921 91.5238 128.982C91.7604 129.045 91.934 129.161 91.9122 129.243Z" fill="#455A64"/>
<path d="M95.1756 130.226C95.1486 130.306 94.7643 130.256 94.3171 130.114C93.8699 129.972 93.5269 129.791 93.551 129.71C93.5751 129.629 93.9594 129.679 94.4095 129.822C94.8597 129.965 95.2027 130.146 95.1756 130.226Z" fill="#455A64"/>
<path d="M98.3759 131.396C98.3441 131.475 97.9634 131.403 97.5256 131.235C97.0873 131.067 96.7554 130.867 96.7842 130.787C96.813 130.708 97.1938 130.78 97.6351 130.949C98.0752 131.118 98.4071 131.318 98.3759 131.396Z" fill="#455A64"/>
<path d="M101.503 132.753C101.467 132.83 101.091 132.735 100.664 132.542C100.236 132.349 99.9164 132.131 99.9499 132.053C99.9835 131.975 100.359 132.069 100.79 132.264C101.22 132.457 101.539 132.677 101.503 132.753Z" fill="#455A64"/>
<path d="M104.547 134.286C104.506 134.36 104.137 134.245 103.721 134.027C103.305 133.81 102.999 133.573 103.036 133.497C103.074 133.421 103.444 133.537 103.862 133.756C104.281 133.974 104.587 134.212 104.547 134.286Z" fill="#455A64"/>
<path d="M106.795 135.568C106.751 135.641 106.546 135.6 106.337 135.476C106.127 135.352 105.992 135.193 106.034 135.12C106.077 135.047 106.282 135.088 106.492 135.212C106.703 135.337 106.839 135.496 106.795 135.568Z" fill="#455A64"/>
<path d="M89.7037 60.1639C89.7037 60.1639 85.6453 78.958 88.7681 86.7652C91.8908 94.5718 103.966 110.455 103.966 110.455L113.165 109.916C113.165 109.916 109.846 61.3931 109.066 60.4169C108.285 59.4407 90.3945 54.2903 90.3945 54.2903L89.7037 60.1639Z" fill="#F3B4C4"/>
<path d="M101.791 120.65C101.791 120.65 123.175 112.951 124.921 108.601C129.128 98.1244 113.917 62.4949 109.065 60.4166C104.213 58.3383 101.431 69.6354 102.234 72.9076C105.291 85.3639 111.334 98.2803 111.334 98.2803L96.936 107.594L101.791 120.65Z" fill="#F3B4C4"/>
<path d="M77.6435 73.493C76.7302 69.7295 75.1903 58.8855 75.1903 58.8855L64.2475 64.6085C62.3039 66.0601 57.8514 71.127 57.8525 76.8982C57.8549 87.3109 59.3289 111.053 61.2389 114.249C63.5908 118.187 73.5445 124.237 73.5445 124.237L80.5709 113.433L77.7064 111.174C79.4258 107.78 83.2417 100.059 83.6936 97.4988C84.2791 94.1807 78.3867 76.5569 77.6435 73.493Z" fill="#F3B4C4"/>
<path d="M102.046 75.9557C102.056 75.9515 102.119 76.0833 102.231 76.3375C102.351 76.6212 102.509 76.9919 102.705 77.455C103.118 78.4623 103.694 79.8657 104.399 81.5857C105.813 85.1127 107.745 89.9318 109.879 95.2553C110.411 96.5975 110.93 97.9073 111.432 99.1724L111.479 99.293L111.368 99.3577C107.277 101.717 103.689 103.786 101.09 105.286C99.8204 106.004 98.7942 106.585 98.0528 107.004C97.715 107.188 97.4426 107.337 97.2302 107.453C97.0413 107.553 96.9407 107.601 96.936 107.593C96.9313 107.585 97.023 107.521 97.2031 107.406C97.4091 107.278 97.6727 107.115 98.0004 106.912C98.7306 106.474 99.7415 105.867 100.992 105.117C103.578 103.594 107.147 101.493 111.217 99.0977L111.153 99.2824C110.649 98.0179 110.128 96.7087 109.594 95.3671C107.492 90.0301 105.59 85.1997 104.198 81.6639C103.53 79.9293 102.986 78.5141 102.595 77.4973C102.42 77.026 102.28 76.6476 102.173 76.3587C102.08 76.0986 102.036 75.9592 102.046 75.9557Z" fill="#262626"/>
<path d="M117.312 102.769C117.276 102.795 116.999 102.464 116.557 101.934C116.112 101.41 115.497 100.676 114.656 100.075C113.815 99.4769 112.89 99.2086 112.221 99.1845C111.546 99.1515 111.136 99.3063 111.12 99.2539C111.104 99.2286 111.501 98.9914 112.223 98.9673C112.937 98.935 113.942 99.1892 114.833 99.8241C115.72 100.458 116.323 101.239 116.729 101.801C117.131 102.371 117.345 102.744 117.312 102.769Z" fill="#262626"/>
<path d="M108.403 60.2265C108.423 60.2835 107.667 60.4683 106.658 61.155C105.647 61.8264 104.451 63.0685 103.591 64.719C102.73 66.3725 102.285 68.023 101.962 69.2069C101.648 70.3967 101.458 71.1375 101.414 71.1275C101.393 71.1228 101.415 70.9328 101.471 70.5915C101.528 70.2508 101.62 69.7594 101.752 69.1557C102.022 67.9542 102.438 66.2719 103.32 64.5766C104.204 62.8808 105.468 61.6169 106.54 60.9737C107.074 60.646 107.542 60.4465 107.875 60.3441C108.207 60.2388 108.398 60.2094 108.403 60.2265Z" fill="#262626"/>
<path d="M72.46 104.893C72.45 104.896 72.4129 104.807 72.3523 104.635C72.2835 104.428 72.2011 104.178 72.1017 103.877C71.8822 103.169 71.5897 102.222 71.2343 101.074C70.5147 98.7043 69.5409 95.425 68.4835 91.7974C67.4261 88.1686 66.4852 84.8788 65.8185 82.4933C65.5013 81.3341 65.2401 80.3791 65.0447 79.6636C64.9671 79.3564 64.9023 79.1016 64.8494 78.8898C64.8082 78.7121 64.7911 78.6168 64.8011 78.6138C64.8111 78.6109 64.8476 78.6998 64.9082 78.8716C64.9771 79.0787 65.0594 79.3288 65.1589 79.6289C65.3784 80.3373 65.6708 81.2835 66.0262 82.4309C66.7459 84.8011 67.7197 88.0815 68.7777 91.7109C69.8351 95.3391 70.776 98.6296 71.4426 101.015C71.7598 102.174 72.021 103.129 72.2164 103.845C72.2941 104.152 72.3582 104.407 72.4118 104.618C72.4529 104.796 72.47 104.89 72.46 104.893Z" fill="#262626"/>
<path d="M72.5178 60.2842C72.5284 60.283 72.5519 60.4289 72.5866 60.7079C72.6213 61.0168 72.6672 61.4222 72.7243 61.9277C72.8338 63.0227 72.9867 64.5485 73.1739 66.4196C73.531 70.245 74.0188 75.4725 74.5578 81.2479C74.6643 82.2694 74.7691 83.2738 74.8709 84.2535L74.7955 84.1388C75.9489 84.8031 77.0639 85.445 78.1284 86.0576L78.2919 86.1517L78.159 86.2853C77.4776 86.9697 76.8232 87.6257 76.1989 88.2524L76.2254 88.0994C76.5861 88.8649 76.9445 89.6005 77.3305 90.2642C77.7329 90.9174 78.1625 91.5193 78.5814 92.0677C79.4241 93.1657 80.2384 94.0654 80.9192 94.7986C81.5918 95.5053 82.1302 96.0713 82.5244 96.4856C82.6951 96.6668 82.834 96.8145 82.9463 96.9346C83.0405 97.0381 83.0864 97.094 83.0811 97.0987C83.0758 97.104 83.0199 97.0581 82.9157 96.9652C82.7951 96.8534 82.6468 96.7151 82.4644 96.5462C82.0737 96.1749 81.5041 95.6277 80.8027 94.9098C80.1031 94.1907 79.2693 93.3016 78.4043 92.2054C77.973 91.6558 77.5358 91.0592 77.1157 90.3931C76.7132 89.7164 76.3496 88.9856 75.9789 88.2147L75.9383 88.13L76.0059 88.0612C76.6261 87.4304 77.2763 86.7702 77.953 86.0823L77.9836 86.31C76.9168 85.701 75.8 85.0626 74.6437 84.403L74.5766 84.3647L74.5684 84.2882C74.4654 83.3073 74.3595 82.3011 74.2518 81.2779C73.7034 75.4866 73.2757 70.2391 72.9573 66.4397C72.8108 64.565 72.6908 63.0362 72.6049 61.9388C72.5713 61.431 72.5448 61.0238 72.5242 60.7137C72.5095 60.4325 72.5072 60.2848 72.5178 60.2842Z" fill="#262626"/>
<path d="M82.971 111.269L77.5975 104.126L64.7812 106.039L64.4905 106.871L78.0318 123.289L89.6349 121.049L82.971 111.269Z" fill="#455A64"/>
<path d="M82.6797 112.102L77.3069 104.958L64.4905 106.871L77.7411 124.121L88.9611 121.807L89.6349 121.049L82.6797 112.102Z" fill="#455A64"/>
<path d="M72.0222 109.163C72.3329 109.344 72.7313 109.239 72.9125 108.928C73.0932 108.617 72.9884 108.219 72.6777 108.038C72.367 107.858 71.9687 107.963 71.7875 108.273C71.6062 108.583 71.7115 108.982 72.0222 109.163Z" fill="#EBEBEB"/>
<path d="M97.5839 109.336L92.7606 110.666C91.1784 109.209 89.0218 108.546 86.8941 108.863L85.1235 109.127L84.1185 110.667C84.1185 110.667 75.507 112.338 75.3475 113.455L75.391 113.801L75.4169 114.003L82.9052 113.395C82.9052 113.395 76.5955 114.316 76.2201 114.387C75.8071 114.464 74.4443 114.544 74.5826 115.279C74.6961 115.884 75.4876 116.257 76.6014 116.253C77.0598 116.252 82.5933 115.911 82.5933 115.911C82.5933 115.911 76.8492 116.713 76.5714 116.753C75.8971 116.85 76.1436 117.918 76.5644 117.994C76.8968 118.054 84.9341 119.151 84.9341 119.151C84.9341 119.151 83.769 120.213 82.7004 120.295C81.6318 120.377 79.6171 119.289 79.3352 119.987C79.0534 120.685 79.1852 121.051 79.4347 121.168C79.6836 121.285 82.3674 122.197 83.2317 122.3C84.0961 122.402 92.2887 120.215 92.2887 120.215L101.006 118.659L97.5839 109.336Z" fill="#EFD0BA"/>
<path d="M66.6136 109.634C66.6136 109.634 65.4632 110.302 66.4023 111.922C67.7769 114.294 69.7651 115.822 69.7651 115.822C69.7651 115.822 69.6604 116.748 70.5295 117.285C70.5295 117.285 69.6157 117.664 70.4483 119.177C70.4483 119.177 70.0435 120.936 71.9299 121.382C71.9299 121.382 71.6587 122.818 73.4769 123.213C75.2951 123.609 76.7879 122.233 76.7879 122.233L66.6136 109.634Z" fill="#EFD0BA"/>
<path d="M70.4031 115.594C71.6705 115.74 73.0474 115.803 74.2384 116.062C74.6303 116.148 74.9986 116.1 75.2911 116.375C75.5835 116.649 75.7142 117.136 75.4747 117.458C75.264 117.741 74.8668 117.796 74.5138 117.806C73.1904 117.843 71.8794 117.582 70.5814 117.323" fill="#EFD0BA"/>
<path d="M71.1926 117.554C72.4601 117.701 73.8376 117.763 75.0279 118.023C75.4198 118.108 75.7882 118.06 76.0806 118.335C76.3731 118.609 76.5037 119.097 76.2642 119.418C76.0536 119.702 75.6558 119.756 75.3033 119.766C73.98 119.803 72.669 119.543 71.3709 119.284" fill="#EFD0BA"/>
<path d="M72.197 119.543C73.4645 119.69 74.842 119.752 76.0323 120.012C76.4242 120.097 76.7926 120.05 77.085 120.324C77.3775 120.599 77.5081 121.086 77.2686 121.408C77.058 121.691 76.6608 121.745 76.3077 121.755C74.985 121.792 73.6734 121.532 72.3753 121.273" fill="#EFD0BA"/>
<path d="M70.66 117.353C70.6724 117.299 71.5774 117.472 72.7013 117.611C73.8251 117.752 74.7448 117.807 74.7437 117.863C74.7437 117.914 73.814 117.945 72.6777 117.802C71.5415 117.661 70.6477 117.403 70.66 117.353Z" fill="#AA6550"/>
<path d="M70.7013 119.182C70.7124 119.129 71.7457 119.308 73.0249 119.483C74.3042 119.661 75.3474 119.768 75.3439 119.823C75.341 119.874 74.2865 119.852 72.999 119.674C71.7116 119.496 70.6901 119.232 70.7013 119.182Z" fill="#AA6550"/>
<path d="M71.8452 121.369C71.8505 121.316 72.8161 121.367 74.0018 121.481C75.1881 121.596 76.1454 121.733 76.1401 121.786C76.1348 121.838 75.1692 121.788 73.9836 121.673C72.7973 121.558 71.8399 121.422 71.8452 121.369Z" fill="#AA6550"/>
<path d="M69.3526 115.496C69.3644 115.441 70.4977 115.645 71.9069 115.792C73.3162 115.942 74.4672 115.978 74.4672 116.035C74.4672 116.06 74.1782 116.084 73.7104 116.085C73.2432 116.085 72.5966 116.058 71.8869 115.983C71.1773 115.908 70.5394 115.8 70.0822 115.702C69.625 115.604 69.3479 115.521 69.3526 115.496Z" fill="#EFD0BA"/>
<path d="M81.1839 111.212C81.1756 111.16 82.5302 110.907 84.2084 110.647C85.8877 110.388 87.2546 110.22 87.2628 110.272C87.2711 110.324 85.9165 110.577 84.2378 110.837C82.5596 111.097 81.1921 111.265 81.1839 111.212Z" fill="#AA6550"/>
<path d="M81.6576 110.743C81.6576 110.743 81.5364 110.599 81.3275 110.323C81.0881 110.001 80.7921 109.605 80.439 109.131C79.6488 108.056 78.6031 106.632 77.3992 104.993L77.4551 105.016C76.5366 105.153 75.5457 105.3 74.5172 105.453C71.7798 105.85 69.3043 106.209 67.4308 106.481C66.5694 106.6 65.8486 106.7 65.2813 106.779C65.0589 106.807 64.8659 106.832 64.6958 106.853C64.5617 106.869 64.4911 106.875 64.4905 106.871C64.4899 106.867 64.5593 106.852 64.6923 106.829C64.8618 106.8 65.053 106.768 65.2743 106.731C65.8397 106.642 66.5588 106.53 67.4179 106.395C69.2902 106.114 71.7639 105.742 74.4989 105.331C75.5275 105.18 76.519 105.035 77.4375 104.9L77.4728 104.895L77.4934 104.923C78.6826 106.572 79.7164 108.005 80.4979 109.088C80.8403 109.57 81.1269 109.973 81.3587 110.299C81.5582 110.583 81.6576 110.743 81.6576 110.743Z" fill="#262626"/>
<g opacity="0.3">
<path d="M100.272 105.504C100.547 104.082 101.509 103.248 102.846 102.689C104.181 102.13 105.671 101.616 106.445 100.392C107.42 98.8502 106.87 96.8495 106.428 95.079C105.559 91.5985 103.393 82.984 103.626 79.4041L111.292 99.2285L100.272 105.504Z" fill="black"/>
</g>
<path d="M96.9361 100.66C96.9284 100.662 96.8919 100.574 96.8284 100.4C96.769 100.225 96.6636 99.9706 96.5671 99.6269C96.3529 98.9461 96.1105 97.927 95.914 96.6225C95.7127 95.3185 95.5945 93.728 95.3562 91.9387C95.2326 91.0448 95.069 90.1016 94.8189 89.1313C94.6959 88.6453 94.54 88.1569 94.3741 87.6602C94.214 87.1548 94.0504 86.6388 93.8839 86.1127L93.9192 86.1727C93.7298 86.0256 93.4132 85.9038 93.1319 85.7955C92.8406 85.6855 92.5394 85.5861 92.2352 85.4884C91.6256 85.2948 90.9965 85.1124 90.3563 84.9388L90.1604 84.8858L90.2698 84.7152C91.0483 83.4978 91.8586 82.2315 92.6894 80.9328L92.6659 81.0023C92.6953 80.5062 92.7265 79.9743 92.7583 79.4394C92.8507 76.0219 92.5612 72.7614 92.3905 69.794C92.2034 66.8272 92.1481 64.1375 92.3217 61.888C92.4964 59.6402 92.8677 57.8385 93.2849 56.6469C93.3673 56.3421 93.4697 56.0815 93.5685 55.8591C93.6597 55.6419 93.7386 55.4542 93.8068 55.2936C93.9375 54.9888 94.0104 54.8311 94.0198 54.8358C94.0293 54.8405 93.9751 55.0064 93.8639 55.3171C93.8045 55.4801 93.7345 55.6708 93.6544 55.8908C93.5656 56.115 93.4726 56.3769 93.3996 56.6828C93.0201 57.8767 92.6847 59.6691 92.5388 61.9039C92.394 64.1405 92.4711 66.8143 92.6735 69.7776C92.8589 72.7403 93.1584 76.0042 93.0654 79.4512C93.0331 79.9919 93.0013 80.5286 92.9713 81.0299L92.9689 81.0658L92.9472 81.0994C92.114 82.3962 91.3013 83.6613 90.5205 84.877L90.434 84.6534C91.0795 84.8299 91.7091 85.0153 92.3246 85.2136C92.6318 85.3142 92.936 85.4154 93.2337 85.5296C93.5344 85.6549 93.8198 85.7396 94.1187 85.975L94.1411 85.9927L94.154 86.035C94.3158 86.5575 94.4753 87.0701 94.6306 87.572C94.796 88.0774 94.9507 88.5746 95.0719 89.0683C95.3185 90.0539 95.4744 91.0084 95.5897 91.9092C95.8104 93.7127 95.9063 95.2991 96.0829 96.6001C96.2547 97.9011 96.4694 98.9179 96.6548 99.6034C96.7378 99.9488 96.8284 100.207 96.8731 100.387C96.9213 100.564 96.9437 100.657 96.9361 100.66Z" fill="#262626"/>
<path d="M92.1534 96.897C92.1717 96.8964 92.2023 97.1118 92.2105 97.5042C92.2199 97.8967 92.1905 98.4669 92.0716 99.1612C91.8433 100.542 91.1513 102.446 89.7144 104.076C88.2757 105.706 86.4722 106.631 85.1312 107.03C84.4575 107.236 83.895 107.336 83.5048 107.375C83.1147 107.416 82.897 107.413 82.8958 107.394C82.8876 107.336 83.7578 107.279 85.0636 106.824C86.3604 106.381 88.091 105.453 89.4844 103.874C90.876 102.295 91.5809 100.462 91.8586 99.1194C92.147 97.7673 92.0946 96.8958 92.1534 96.897Z" fill="#262626"/>
</g>
<path d="M43.4973 27.7366C43.4973 28.4343 44.063 28.9995 44.7603 28.9995C45.458 28.9995 46.0232 28.4343 46.0232 27.7366C46.0232 27.0389 45.4575 26.4736 44.7603 26.4736C44.0626 26.4736 43.4973 27.0389 43.4973 27.7366Z" fill="#DFDFDF"/>
<path d="M39.7053 28.9995C40.4028 28.9995 40.9683 28.4341 40.9683 27.7366C40.9683 27.0391 40.4028 26.4736 39.7053 26.4736C39.0078 26.4736 38.4424 27.0391 38.4424 27.7366C38.4424 28.4341 39.0078 28.9995 39.7053 28.9995Z" fill="#DFDFDF"/>
<path d="M33.4008 27.1051C33.0522 27.7092 33.2589 28.4817 33.8631 28.8303C34.4673 29.1789 35.2397 28.9722 35.5884 28.368C35.937 27.7638 35.7302 26.9914 35.126 26.6428C34.5219 26.2941 33.7494 26.5009 33.4008 27.1051Z" fill="#DFDFDF"/>
<path d="M39.6267 12.9842C39.6267 12.9783 39.5404 12.977 39.3716 12.9801C39.1864 12.9855 38.938 12.9922 38.6211 13.0012C38.4565 13.0088 38.2707 13.0088 38.068 13.0258C37.8648 13.0544 37.6442 13.0853 37.4061 13.1189C37.1658 13.1533 36.9084 13.1905 36.6332 13.2299C36.3624 13.297 36.0747 13.3686 35.7699 13.4438C34.5571 13.7557 33.0879 14.2883 31.586 15.2679C30.0849 16.2314 28.5248 17.6094 27.2588 19.4819C26.0164 21.357 25.0578 23.7159 24.8041 26.3653C24.779 27.0281 24.6993 27.7025 24.7633 28.3882C24.7871 28.7301 24.7804 29.0783 24.8305 29.4229C24.8824 29.7675 24.9347 30.1152 24.9876 30.4647C25.2699 31.8467 25.6812 33.2631 26.3937 34.5815C27.0896 35.9036 27.9869 37.1616 29.0825 38.2817C30.1995 39.3791 31.5045 40.3314 32.9567 41.0649C34.405 41.8047 36.0089 42.3153 37.6791 42.5145C38.0926 42.5964 38.516 42.5959 38.9384 42.6214C39.3609 42.6492 39.7856 42.6644 40.2117 42.6447C41.0633 42.6102 41.9176 42.5033 42.7621 42.3225C44.5961 41.9322 46.3231 41.1853 47.8394 40.186L47.6854 40.2016C49.4451 40.9078 51.1717 41.6011 52.8571 42.2773L53.1632 42.4004L53.0759 42.0826C52.5541 40.1851 52.0466 38.339 51.5557 36.5538L51.5297 36.6903C52.981 34.7614 53.9061 32.5592 54.2892 30.3725C54.4816 29.2801 54.5626 28.1895 54.4901 27.136C54.4678 26.6079 54.4423 26.0874 54.3434 25.5813C54.304 25.3275 54.265 25.0751 54.2261 24.8249C54.18 24.5761 54.1044 24.3353 54.0453 24.0928C53.0464 20.201 50.649 17.3265 48.2753 15.6814C47.0866 14.8445 45.915 14.2444 44.8414 13.8698C44.5742 13.774 44.316 13.6819 44.068 13.5928C43.8134 13.5279 43.5686 13.4657 43.3336 13.4062C43.0996 13.348 42.8754 13.2925 42.6619 13.2397C42.4462 13.1985 42.2385 13.1761 42.0434 13.1462C41.6523 13.0965 41.309 13.0289 41.0078 13.0141C40.7115 13.0043 40.4587 12.9958 40.2479 12.9886C40.0555 12.9846 39.9024 12.981 39.7838 12.9783C39.68 12.9779 39.6267 12.9797 39.6267 12.9842C39.6267 12.9886 39.6796 12.9958 39.7838 13.0056C39.902 13.015 40.0541 13.0271 40.2461 13.0423C40.4556 13.0567 40.7066 13.0732 41.0011 13.0934C41.2996 13.1166 41.6402 13.1918 42.0269 13.2491C43.5489 13.5279 45.8304 14.1352 48.1616 15.8394C50.4892 17.485 52.8253 20.3322 53.7862 24.1581C53.8425 24.3966 53.916 24.6334 53.9603 24.8777C53.997 25.1239 54.0341 25.3714 54.0717 25.6211C54.167 26.1178 54.1889 26.6294 54.2086 27.1476C54.2758 28.1819 54.1912 29.251 53.9992 30.3206C53.6156 32.462 52.7031 34.6156 51.2773 36.501L51.2308 36.5628L51.2514 36.6379C51.7387 38.4245 52.2422 40.271 52.7604 42.1699L52.9793 41.9748C51.2948 41.2963 49.5691 40.6017 47.8103 39.8933L47.7293 39.8606L47.6559 39.9089C46.1723 40.885 44.4847 41.614 42.6923 41.9958C41.8671 42.1726 41.032 42.2768 40.1996 42.3113C39.7829 42.331 39.3681 42.3158 38.9546 42.2889C38.5415 42.2643 38.1275 42.2656 37.7229 42.1851C36.0899 41.9922 34.5213 41.4946 33.1044 40.7727C31.6835 40.0571 30.4054 39.1285 29.3094 38.0566C28.2348 36.9624 27.3537 35.733 26.6685 34.441C25.9668 33.1517 25.5604 31.7661 25.278 30.4123C25.2252 30.0695 25.1724 29.7294 25.12 29.3915C25.0695 29.0536 25.0753 28.7122 25.0507 28.377C24.9844 27.7048 25.061 27.0429 25.082 26.3917C25.3192 23.7907 26.2469 21.4689 27.4566 19.6148C28.69 17.7638 30.2156 16.3926 31.6884 15.4263C33.1617 14.444 34.6077 13.8989 35.8044 13.5709C36.1047 13.4908 36.3893 13.4151 36.6569 13.344C36.929 13.2992 37.1837 13.2576 37.4213 13.2187C37.6572 13.1797 37.876 13.1439 38.0769 13.1104C38.2783 13.088 38.4623 13.0831 38.6261 13.0696C38.9411 13.0468 39.1886 13.0289 39.3725 13.0155C39.5404 12.9998 39.6267 12.99 39.6267 12.9842Z" fill="#DFDFDF"/>
</g>
<defs>
<clipPath id="clip0_2141_44980">
<rect width="168.878" height="161.937" fill="white" transform="translate(0.561035 0.853271)"/>
</clipPath>
</defs>
</svg>
