<svg width="23" height="20" viewBox="0 0 23 20" fill="none" xmlns="http://www.w3.org/2000/svg">
<path d="M2.28554 8.95843L9.58659 17.7197C10.4243 18.725 11.9683 18.725 12.8061 17.7197L20.1071 8.95843C21.4504 7.3465 21.5735 5.04303 20.4095 3.29717C18.5196 0.462218 14.3447 0.489214 12.4915 3.34837L11.1963 5.34666L9.90115 3.34837C8.04799 0.489213 3.8731 0.462218 1.98313 3.29717C0.819219 5.04303 0.942268 7.3465 2.28554 8.95843Z" fill="#F3B4C4"/>
<path fill-rule="evenodd" clip-rule="evenodd" d="M8.90476 3.99422C7.51604 1.85161 4.38745 1.83139 2.97114 3.95585C2.09893 5.26417 2.19114 6.99035 3.19776 8.1983L10.4988 16.9596C10.8618 17.3952 11.5309 17.3952 11.8939 16.9596L19.195 8.1983C20.2016 6.99035 20.2938 5.26417 19.4216 3.95585C18.0053 1.83139 14.8767 1.85162 13.488 3.99422L12.1928 5.99251C11.9739 6.33023 11.5988 6.53409 11.1964 6.53409C10.7939 6.53409 10.4188 6.33023 10.2 5.99251L8.90476 3.99422ZM0.995178 2.63854C3.35881 -0.906898 8.58 -0.873137 10.8976 2.70257L11.1964 3.16354L11.4951 2.70257C13.8127 -0.873135 19.0339 -0.906899 21.3976 2.63854C22.8532 4.82195 22.6993 7.70271 21.0194 9.71862L13.7183 18.4799C12.4058 20.0548 9.98689 20.0548 8.67443 18.4799L1.37339 9.71862C-0.306539 7.70271 -0.460426 4.82195 0.995178 2.63854Z" fill="#F3B4C4"/>
</svg>
