<svg width="19" height="19" viewBox="0 0 19 19" fill="none" xmlns="http://www.w3.org/2000/svg">
<path d="M19 9.71113C19 8.93002 18.9353 8.36002 18.7953 7.76892H9.69385V11.2944H15.0362C14.9285 12.1706 14.3469 13.49 13.0544 14.3766L13.0362 14.4947L15.914 16.6794L16.1133 16.6989C17.9444 15.0417 19 12.6033 19 9.71113" fill="#4285F4"/>
<path d="M9.69395 19C12.3113 19 14.5085 18.1555 16.1134 16.6989L13.0545 14.3766C12.2359 14.9361 11.1372 15.3266 9.69395 15.3266C7.13047 15.3266 4.95475 13.6695 4.17917 11.3789L4.06548 11.3884L1.07319 13.6578L1.03406 13.7644C2.62815 16.8677 5.90253 19 9.69395 19Z" fill="#34A853"/>
<path d="M4.1791 11.3789C3.97445 10.7878 3.85602 10.1544 3.85602 9.49999C3.85602 8.84551 3.97445 8.2122 4.16833 7.6211L4.16291 7.49521L1.13312 5.1893L1.03399 5.23551C0.376988 6.5233 0 7.96944 0 9.49999C0 11.0305 0.376988 12.4766 1.03399 13.7644L4.1791 11.3789" fill="#FBBC05"/>
<path d="M9.69395 3.67331C11.5142 3.67331 12.7421 4.44386 13.4422 5.08779L16.178 2.47C14.4978 0.939448 12.3113 0 9.69395 0C5.90253 0 2.62815 2.13221 1.03406 5.23551L4.1684 7.6211C4.95475 5.33055 7.13047 3.67331 9.69395 3.67331" fill="#EB4335"/>
</svg>
