<svg width="23" height="23" viewBox="0 0 23 23" fill="none" xmlns="http://www.w3.org/2000/svg">
<g id="home">
<path id="Rectangle 6" d="M7.3961 2.53575C8.3623 1.61692 9.64464 1.10452 10.978 1.10452H12.022C13.3553 1.10452 14.6376 1.61692 15.6038 2.53575L20.2796 6.9823C21.3114 7.96349 21.8955 9.32498 21.8955 10.7488V16.6977C21.8955 19.5684 19.5683 21.8955 16.6977 21.8955H6.30223C3.4316 21.8955 1.10449 19.5684 1.10449 16.6977V10.7488C1.10449 9.32498 1.68858 7.96349 2.72035 6.9823L7.3961 2.53575Z" fill="#F3B4C4"/>
<path id="Rectangle 6 (Stroke)" fill-rule="evenodd" clip-rule="evenodd" d="M6.63498 1.73536C7.80649 0.621276 9.36134 0 10.978 0H12.022C13.6387 0 15.1935 0.621276 16.365 1.73536L21.0408 6.18191C22.2918 7.3716 23 9.02242 23 10.7488V16.6977C23 20.1784 20.1784 23 16.6977 23H6.30226C2.82162 23 0 20.1784 0 16.6977V10.7488C0 9.02241 0.708208 7.3716 1.95923 6.18191L6.63498 1.73536ZM10.978 2.20904C9.92801 2.20904 8.91816 2.61255 8.15728 3.33613L3.48153 7.78268C2.66901 8.55537 2.20904 9.62754 2.20904 10.7488V16.6977C2.20904 18.9584 4.04164 20.791 6.30226 20.791H16.6977C18.9584 20.791 20.791 18.9584 20.791 16.6977V10.7488C20.791 9.62754 20.331 8.55537 19.5185 7.78268L14.8427 3.33613C14.0818 2.61255 13.072 2.20904 12.022 2.20904H10.978Z" fill="black"/>
<path id="Vector 1 (Stroke)" fill-rule="evenodd" clip-rule="evenodd" d="M7.79663 16.6977C7.79663 16.0877 8.29114 15.5932 8.90115 15.5932H14.0989C14.7089 15.5932 15.2034 16.0877 15.2034 16.6977C15.2034 17.3077 14.7089 17.8022 14.0989 17.8022H8.90115C8.29114 17.8022 7.79663 17.3077 7.79663 16.6977Z" fill="black"/>
</g>
</svg>
