<svg width="329" height="250" viewBox="0 0 329 250" fill="none" xmlns="http://www.w3.org/2000/svg">
<path d="M246.035 72.4471C246.035 72.4471 234.235 129.677 241.565 158.237" stroke="black" stroke-width="0.92" stroke-linecap="round" stroke-linejoin="round"/>
<path d="M260.486 96.6071C254.878 99.3245 250.021 103.374 246.34 108.401C242.658 113.428 240.264 119.281 239.366 125.447" stroke="black" stroke-width="0.92" stroke-linecap="round" stroke-linejoin="round"/>
<path d="M269.236 49.277C267.296 60.987 257.236 69.077 246.686 67.337C236.136 65.597 229.216 54.697 231.156 42.977C233.096 31.257 241.905 30.977 252.415 32.677C262.925 34.3771 271.176 37.557 269.236 49.277Z" fill="#F0A5B3"/>
<path d="M235.355 34.5771C235.355 34.5771 248.436 35.3771 254.496 41.0871C255.563 42.0541 256.397 43.2508 256.936 44.5871C260.426 53.4871 250.116 67.5871 250.116 67.5871" stroke="black" stroke-width="0.92" stroke-linecap="round" stroke-linejoin="round"/>
<path d="M268.486 40.9571C268.486 40.9571 264.595 38.2571 261.165 38.6571C257.735 39.0571 255.706 42.4171 255.706 42.4171" stroke="black" stroke-width="0.92" stroke-linecap="round" stroke-linejoin="round"/>
<path d="M241.635 35.2971C244.865 32.9171 253.205 32.7671 258.285 35.3571C262.765 37.6271 256.376 39.0571 254.936 39.1771C253.496 39.2971 250.156 37.5071 251.706 36.9671C253.256 36.4271 255.975 37.1871 255.975 37.1871" stroke="black" stroke-width="0.92" stroke-linecap="round" stroke-linejoin="round"/>
<path d="M242.376 66.037C242.376 66.037 242.976 72.837 245.706 73.287C248.436 73.737 251.546 67.5571 251.546 67.5571L242.376 66.037Z" fill="#A0C098"/>
<path d="M279.046 89.9671C273.206 95.6171 265.996 97.6171 262.946 94.4571C259.896 91.2971 262.146 84.1571 267.946 78.5171C273.746 72.8771 277.146 74.5871 280.196 77.7571C283.246 80.9271 284.886 84.3271 279.046 89.9671Z" fill="#F4DEA6"/>
<path d="M282.195 80.2771C282.195 80.2771 272.296 83.9871 267.986 87.0971C265.437 88.819 263.647 91.4536 262.986 94.4571" stroke="black" stroke-width="0.92" stroke-linecap="round" stroke-linejoin="round"/>
<path d="M277.776 75.7071C277.776 75.7071 276.185 81.4471 274.315 83.4471" stroke="black" stroke-width="0.92" stroke-linecap="round" stroke-linejoin="round"/>
<path d="M261.565 89.347C261.565 89.347 257.995 95.157 259.915 97.147C261.835 99.137 268.026 96.037 268.026 96.037L261.565 89.347Z" fill="#A0C098"/>
<path d="M71.8355 5.49707L73.3255 48.9671" stroke="black" stroke-width="0.92" stroke-linecap="round" stroke-linejoin="round"/>
<path d="M74.0155 2.70706C74.1171 3.13481 74.0894 3.58308 73.9359 3.99505C73.7824 4.40703 73.51 4.76415 73.1534 5.02116C72.7967 5.27817 72.3717 5.42348 71.9323 5.43868C71.4929 5.45388 71.0589 5.33828 70.6854 5.10654C70.3118 4.8748 70.0154 4.53734 69.8338 4.13696C69.6522 3.73658 69.5936 3.29129 69.6653 2.85755C69.7371 2.42382 69.9361 2.02116 70.237 1.70062C70.5379 1.38008 70.9271 1.1561 71.3555 1.05706C71.9269 0.924952 72.5274 1.02432 73.0258 1.33348C73.5242 1.64263 73.88 2.13644 74.0155 2.70706Z" stroke="black" stroke-width="0.92" stroke-linecap="round" stroke-linejoin="round"/>
<path d="M45.6655 17.4571L72.2655 51.8771" stroke="black" stroke-width="0.92" stroke-linecap="round" stroke-linejoin="round"/>
<path d="M45.8155 13.9271C46.143 14.2155 46.3777 14.5945 46.4901 15.0161C46.6026 15.4378 46.5876 15.8833 46.4472 16.2965C46.3068 16.7097 46.0472 17.0721 45.7011 17.3379C45.3551 17.6038 44.9381 17.7613 44.5027 17.7905C44.0672 17.8197 43.6329 17.7193 43.2544 17.5021C42.876 17.2848 42.5703 16.9604 42.376 16.5696C42.1816 16.1789 42.1073 15.7394 42.1624 15.3065C42.2175 14.8736 42.3995 14.4667 42.6855 14.1371C43.0744 13.6969 43.6213 13.428 44.2073 13.3886C44.7934 13.3493 45.3713 13.5428 45.8155 13.9271Z" stroke="black" stroke-width="0.92" stroke-linecap="round" stroke-linejoin="round"/>
<path d="M62.9455 65.7671C62.9455 65.7671 33.6055 35.8971 34.4855 27.8271C35.3655 19.7571 54.3655 28.6271 54.3655 28.6271C54.3655 28.6271 50.0755 10.4471 58.9755 7.35706C67.8755 4.26706 72.4255 23.9271 72.4255 23.9271C72.4255 23.9271 83.1855 9.84706 89.6255 14.2571C96.0655 18.6671 79.2955 61.9671 79.2955 61.9671L62.9455 65.7671Z" fill="#B7DEFB"/>
<path d="M69.3055 65.1171L55.1055 43.3271" stroke="black" stroke-width="0.92" stroke-linecap="round" stroke-linejoin="round"/>
<path d="M71.6855 64.1871L65.7855 38.787" stroke="black" stroke-width="0.92" stroke-linecap="round" stroke-linejoin="round"/>
<path d="M77.1855 62.9071L80.2455 35.4271" stroke="black" stroke-width="0.92" stroke-linecap="round" stroke-linejoin="round"/>
<path d="M74.3255 63.6071L73.0855 49.0271" stroke="black" stroke-width="0.92" stroke-linecap="round" stroke-linejoin="round"/>
<path d="M67.1055 65.7771L57.8655 55.2271" stroke="black" stroke-width="0.92" stroke-linecap="round" stroke-linejoin="round"/>
<path d="M72.1555 74.677C68.0255 74.057 58.6255 68.0071 60.2455 62.9471C61.8655 57.8871 67.5455 63.2171 67.5455 63.2171C67.5455 63.2171 70.1755 57.5471 72.5955 58.4071C74.1543 59.0574 75.4525 60.2078 76.2855 61.677C76.2855 61.677 78.2355 57.007 80.7655 58.037C83.2955 59.067 78.5755 75.657 72.1555 74.677Z" fill="#A0C098"/>
<path d="M73.4255 73.4771L100.096 188.237" stroke="black" stroke-width="0.92" stroke-linecap="round" stroke-linejoin="round"/>
<path d="M80.4855 118.757C80.4855 118.757 49.2555 121.757 44.5555 117.127C39.8555 112.497 53.9155 112.547 53.9155 112.547C53.9155 112.547 31.4055 108.197 31.6655 104.477C31.9255 100.757 45.1855 103.667 45.1855 103.667C45.1855 103.667 21.4855 93.1271 23.3155 87.8071C25.1455 82.4871 47.9555 98.3471 47.9555 98.3471C47.9555 98.3471 39.0455 87.1571 42.3955 85.7571C45.7455 84.3571 60.3955 101.317 60.3955 101.317C60.3955 101.317 55.0555 90.5071 60.3955 90.7971C65.7355 91.0871 80.4855 118.757 80.4855 118.757Z" fill="#A0C098"/>
<path d="M80.3955 96.2771C80.3955 96.2771 96.7355 90.1071 97.9455 86.6371C99.1555 83.1671 92.1455 86.6371 92.1455 86.6371C92.1455 86.6371 102.326 78.9371 101.286 77.1471C100.246 75.3571 94.2855 80.0571 94.2855 80.0571C94.2855 80.0571 103.526 68.9771 101.286 66.7671C99.0455 64.5571 91.5655 78.0871 91.5655 78.0871C91.5655 78.0871 93.2655 70.3071 91.2555 70.4371C89.2455 70.5671 86.0955 82.6071 86.0955 82.6071C86.0955 82.6071 86.0955 75.9071 83.5255 77.3571C80.9555 78.8071 80.3955 96.2771 80.3955 96.2771Z" fill="#A0C098"/>
<path d="M46.2655 100.977L84.3755 120.607" stroke="black" stroke-width="0.92" stroke-linecap="round" stroke-linejoin="round"/>
<path d="M79.1455 98.0871L93.0455 78.7371" stroke="black" stroke-width="0.92" stroke-linecap="round" stroke-linejoin="round"/>
<path d="M64.8255 99.8971L72.8555 114.667L53.9355 116.507" stroke="black" stroke-width="0.92" stroke-linecap="round" stroke-linejoin="round"/>
<path d="M84.2755 82.847L83.8455 91.5471L91.9155 88.7171" stroke="black" stroke-width="0.92" stroke-linecap="round" stroke-linejoin="round"/>
<path d="M49.4855 107.947L59.0855 107.577L52.8255 97.9271" stroke="black" stroke-width="0.92" stroke-linecap="round" stroke-linejoin="round"/>
<path d="M5.02551 210.347L47.0055 198.937" stroke="black" stroke-width="0.92" stroke-linecap="round" stroke-linejoin="round"/>
<path d="M5.551 211.518C5.61231 210.292 4.66807 209.248 3.442 209.187C2.21593 209.126 1.1723 210.07 1.111 211.296C1.0497 212.522 1.99393 213.566 3.22 213.627C4.44607 213.688 5.4897 212.744 5.551 211.518Z" stroke="black" stroke-width="0.921149" stroke-linecap="round" stroke-linejoin="round"/>
<path d="M22.6655 233.077L50.0755 199.297" stroke="black" stroke-width="0.92" stroke-linecap="round" stroke-linejoin="round"/>
<path d="M19.1955 233.747C19.4016 233.362 19.7169 233.047 20.1017 232.842C20.4865 232.636 20.9236 232.549 21.3579 232.591C21.7922 232.633 22.2042 232.803 22.5421 233.08C22.8799 233.356 23.1285 233.726 23.2564 234.143C23.3843 234.56 23.3859 235.006 23.2609 235.424C23.136 235.842 22.89 236.213 22.5541 236.492C22.2182 236.77 21.8074 236.943 21.3734 236.989C20.9395 237.034 20.5017 236.95 20.1155 236.747C19.8573 236.611 19.6285 236.426 19.4423 236.201C19.2561 235.977 19.1162 235.718 19.0307 235.439C18.9451 235.16 18.9157 234.867 18.944 234.576C18.9722 234.286 19.0577 234.004 19.1955 233.747Z" stroke="black" stroke-width="0.92" stroke-linecap="round" stroke-linejoin="round"/>
<path d="M65.7255 205.197C65.7255 205.197 43.3755 240.597 35.3355 241.637C27.2955 242.677 31.5555 222.107 31.5555 222.107C31.5555 222.107 14.7855 230.447 9.78553 222.447C4.78553 214.447 22.7855 205.557 22.7855 205.557C22.7855 205.557 6.66553 198.297 9.48553 191.017C12.3055 183.737 58.2855 190.147 58.2855 190.147L65.7255 205.197Z" fill="#E0F2C2"/>
<path d="M63.6355 199.157L45.6855 217.977" stroke="black" stroke-width="0.92" stroke-linecap="round" stroke-linejoin="round"/>
<path d="M62.1855 197.047L38.8155 208.617" stroke="black" stroke-width="0.92" stroke-linecap="round" stroke-linejoin="round"/>
<path d="M59.6855 191.987L32.2355 195.307" stroke="black" stroke-width="0.92" stroke-linecap="round" stroke-linejoin="round"/>
<path d="M61.0255 194.617L47.1155 199.157" stroke="black" stroke-width="0.92" stroke-linecap="round" stroke-linejoin="round"/>
<path d="M64.7955 201.137L56.6355 212.557" stroke="black" stroke-width="0.92" stroke-linecap="round" stroke-linejoin="round"/>
<path d="M72.2955 194.187C72.6355 198.357 68.9055 208.887 63.6055 208.477C58.3055 208.067 62.1955 201.307 62.1955 201.307C62.1955 201.307 56.0755 200.037 56.3555 197.487C56.6351 195.822 57.4579 194.296 58.6955 193.147C58.6955 193.147 53.6955 192.317 54.1255 189.617C54.5555 186.917 71.7755 187.717 72.2955 194.187Z" fill="#A0C098"/>
<path d="M70.8355 193.227L176.436 140.987" stroke="black" stroke-width="0.92" stroke-linecap="round" stroke-linejoin="round"/>
<path d="M113.306 175.997C113.306 175.997 123.376 205.707 119.936 211.347C116.496 216.987 113.336 203.277 113.336 203.277C113.336 203.277 114.266 226.197 110.586 226.787C106.906 227.377 106.696 213.787 106.696 213.787C106.696 213.787 101.856 239.257 96.2655 238.707C90.6755 238.157 100.876 212.307 100.876 212.307C100.876 212.307 92.0255 223.547 89.8755 220.607C87.7255 217.667 100.876 199.557 100.876 199.557C100.876 199.557 91.5855 207.227 90.6455 201.977C89.7055 196.727 113.306 175.997 113.306 175.997Z" fill="#A0C098"/>
<path d="M91.4855 181.217C91.4855 181.217 81.7355 166.727 78.0855 166.347C74.4355 165.967 79.4255 171.987 79.4255 171.987C79.4255 171.987 69.5955 163.847 68.0855 165.267C66.5755 166.687 72.5155 171.377 72.5155 171.377C72.5155 171.377 59.6155 164.917 57.9755 167.577C56.3355 170.237 71.1655 174.447 71.1655 174.447C71.1655 174.447 63.1655 174.567 63.7855 176.507C64.4055 178.447 76.7855 178.727 76.7855 178.727C76.7855 178.727 70.2555 180.257 72.2655 182.437C74.2755 184.617 91.4855 181.217 91.4855 181.217Z" fill="#538B45"/>
<path d="M103.826 213.367L114.206 171.777" stroke="black" stroke-width="0.92" stroke-linecap="round" stroke-linejoin="round"/>
<path d="M93.4855 182.027L71.4555 172.927" stroke="black" stroke-width="0.92" stroke-linecap="round" stroke-linejoin="round"/>
<path d="M98.5155 195.547L111.066 184.347L117.186 202.347" stroke="black" stroke-width="0.92" stroke-linecap="round" stroke-linejoin="round"/>
<path d="M77.4755 180.517L86.0455 178.947L81.4355 171.737" stroke="black" stroke-width="0.92" stroke-linecap="round" stroke-linejoin="round"/>
<path d="M109.876 208.637L107.316 199.377L99.3555 207.687" stroke="black" stroke-width="0.92" stroke-linecap="round" stroke-linejoin="round"/>
<path d="M190.236 38.1471C190.236 38.1471 191.516 24.1471 201.996 18.0571C212.476 11.9671 223.276 16.5671 223.276 16.5671C220.556 23.6779 216.392 30.1475 211.046 35.5671C202.106 44.6371 190.236 38.1471 190.236 38.1471Z" fill="#C8ECC0" stroke="#C8ECC0" stroke-width="0.92" stroke-miterlimit="10"/>
<path d="M158.866 54.7271C158.866 54.7271 148.336 45.3571 149.696 33.3271C151.056 21.2971 161.146 15.3271 161.146 15.3271C165.246 21.7409 167.97 28.936 169.146 36.4571C171.146 49.0371 158.866 54.7271 158.866 54.7271Z" fill="#C8ECC0" stroke="#C8ECC0" stroke-width="0.92" stroke-miterlimit="10"/>
<path d="M205.595 27.6771C205.595 27.6771 165.596 51.3271 148.366 79.3671C131.136 107.407 132.696 161.907 132.696 161.907" stroke="black" stroke-width="0.92" stroke-linecap="round" stroke-linejoin="round"/>
<path d="M158.785 31.3771C158.785 31.3771 160.915 47.6471 158.865 54.7271C156.815 61.8071 150.945 75.4471 150.945 75.4471" stroke="black" stroke-width="0.92" stroke-linecap="round" stroke-linejoin="round"/>
<path d="M139.265 78.9771C139.265 78.9771 126.125 73.8771 123.185 62.1371C120.245 50.3971 127.615 41.2671 127.615 41.2671C133.702 45.842 138.772 51.6308 142.505 58.2671C148.775 69.3471 139.265 78.9771 139.265 78.9771Z" fill="#C8ECC0" stroke="#C8ECC0" stroke-width="0.92" stroke-miterlimit="10"/>
<path d="M131.026 57.127C131.026 57.127 138.716 71.6271 139.266 78.9771C139.816 86.3271 139.096 101.167 139.096 101.167" stroke="black" stroke-width="0.92" stroke-linecap="round" stroke-linejoin="round"/>
<path d="M126.135 106.387C126.135 106.387 112.046 106.507 104.966 96.6971C97.8855 86.8871 101.366 75.6971 101.366 75.6971C108.708 77.6824 115.559 81.1692 121.486 85.9371C131.406 93.9171 126.135 106.387 126.135 106.387Z" fill="#C8ECC0" stroke="#C8ECC0" stroke-width="0.92" stroke-miterlimit="10"/>
<path d="M110.396 89.1371C110.396 89.1371 122.905 99.7571 126.135 106.387C129.365 113.017 134.196 127.057 134.196 127.057" stroke="black" stroke-width="0.92" stroke-linecap="round" stroke-linejoin="round"/>
<path d="M182.486 56.0071C182.486 56.0071 191.715 66.6571 203.755 65.4671C215.795 64.2771 221.915 54.2571 221.915 54.2571C215.564 50.0713 208.413 47.2485 200.915 45.9671C188.365 43.8071 182.486 56.0071 182.486 56.0071Z" fill="#C8ECC0" stroke="#C8ECC0" stroke-width="0.92" stroke-miterlimit="10"/>
<path d="M205.855 56.4471C205.855 56.4471 189.615 54.0971 182.505 56.0571C175.395 58.0171 161.676 63.6971 161.676 63.6971" stroke="black" stroke-width="0.92" stroke-linecap="round" stroke-linejoin="round"/>
<path d="M162.706 82.5571C162.706 82.5571 172.576 92.5571 184.526 90.6771C196.476 88.7971 201.945 78.3571 201.945 78.3571C195.346 74.5966 188.039 72.2438 180.486 71.4471C167.796 70.0171 162.706 82.5571 162.706 82.5571Z" fill="#C8ECC0" stroke="#C8ECC0" stroke-width="0.92" stroke-miterlimit="10"/>
<path d="M186.035 81.4971C186.035 81.4971 169.676 80.1571 162.706 82.5571C155.736 84.9571 142.385 91.4471 142.385 91.4471" stroke="black" stroke-width="0.92" stroke-linecap="round" stroke-linejoin="round"/>
<path d="M151.846 114.307C151.846 114.307 164.026 121.407 175.036 116.387C186.046 111.367 188.596 99.9071 188.596 99.9071C181.225 98.0018 173.541 97.6442 166.026 98.8571C153.486 100.877 151.846 114.307 151.846 114.307Z" fill="#7DCB6A" stroke="#7DCB6A" stroke-width="0.92" stroke-miterlimit="10"/>
<path d="M174.065 107.137C174.065 107.137 157.936 110.137 151.846 114.307C145.756 118.477 134.605 128.307 134.605 128.307" stroke="black" stroke-width="0.92" stroke-linecap="round" stroke-linejoin="round"/>
<path d="M285.635 144.447C274.014 157.935 263.141 172.049 253.065 186.727" stroke="black" stroke-width="0.92" stroke-linecap="round" stroke-linejoin="round"/>
<path d="M324.126 133.947C315.016 145.177 299.456 147.667 289.376 139.487C279.296 131.307 278.495 115.587 287.595 104.347C296.695 93.1071 306.235 98.0671 316.315 106.237C326.395 114.407 333.226 122.707 324.126 133.947Z" fill="#C9B5F2"/>
<path d="M297.105 97.9771C297.105 97.9771 310.486 106.697 313.486 116.447C314.023 118.114 314.183 119.88 313.956 121.617C312.296 133.147 292.896 141.837 292.896 141.837" stroke="black" stroke-width="0.92" stroke-linecap="round" stroke-linejoin="round"/>
<path d="M328.336 124.687C328.336 124.687 325.845 119.487 321.975 117.847C318.105 116.207 313.926 118.537 313.926 118.537" stroke="black" stroke-width="0.92" stroke-linecap="round" stroke-linejoin="round"/>
<path d="M303.326 102.527C308.176 101.957 317.085 106.817 320.915 112.617C324.285 117.717 316.666 115.377 315.076 114.617C313.486 113.857 311.006 109.977 312.986 110.337C314.966 110.697 317.366 113.147 317.366 113.147" stroke="black" stroke-width="0.92" stroke-linecap="round" stroke-linejoin="round"/>
<path d="M285.595 135.517C285.595 135.517 282.126 143.077 284.746 145.197C287.366 147.317 294.396 142.647 294.396 142.647L285.595 135.517Z" fill="#C8ECC0"/>
<path d="M290.726 178.127C290.727 172.182 288.826 166.392 285.301 161.604C281.777 156.817 276.813 153.282 271.136 151.517C273.905 145.999 275.015 139.797 274.331 133.661C273.648 127.525 271.201 121.719 267.285 116.946C263.37 112.173 258.155 108.637 252.272 106.766C246.388 104.896 240.088 104.771 234.136 106.407C233.159 103.038 231.419 99.9397 229.051 97.3523C226.683 94.7649 223.75 92.7583 220.481 91.4882C217.211 90.2181 213.693 89.7188 210.199 90.0291C206.705 90.3393 203.33 91.4508 200.336 93.2771C197.256 87.3037 192.483 82.3713 186.614 79.0974C180.746 75.8234 174.041 74.3532 167.341 74.8709C160.641 75.3886 154.242 77.8712 148.945 82.0079C143.649 86.1446 139.691 91.7516 137.566 98.1271C133.305 94.7138 128.203 92.5121 122.796 91.7538C117.39 90.9954 111.879 91.7085 106.844 93.8178C101.808 95.9271 97.4345 99.3548 94.1827 103.74C90.9309 108.125 88.9214 113.306 88.3655 118.737C83.2486 116.867 77.791 116.112 72.3586 116.523C66.9262 116.934 61.6444 118.502 56.8671 121.121C52.0898 123.739 47.9273 127.349 44.6587 131.707C41.39 136.066 39.0906 141.072 37.9146 146.392C36.7385 151.711 36.713 157.221 37.8397 162.551C38.9664 167.881 41.2193 172.909 44.4474 177.297C47.6756 181.686 51.8044 185.334 56.5572 187.997C61.3101 190.659 66.5771 192.276 72.0055 192.737V192.877H116.006C118.245 197.676 121.808 201.737 126.276 204.582C130.743 207.426 135.929 208.937 141.226 208.937C141.716 208.937 142.226 208.937 142.686 208.937C144.442 213.088 147.002 216.85 150.218 220.009C153.434 223.167 157.242 225.659 161.423 227.341C165.605 229.023 170.078 229.862 174.585 229.809C179.092 229.757 183.544 228.815 187.686 227.037C191.689 235.164 198.324 241.698 206.512 245.575C214.7 249.452 223.959 250.444 232.783 248.39C241.607 246.337 249.476 241.358 255.11 234.263C260.745 227.169 263.813 218.377 263.816 209.317C263.816 208.197 263.756 207.097 263.666 206.007C270.921 205.806 277.811 202.779 282.866 197.571C287.921 192.362 290.741 185.385 290.726 178.127Z" fill="#F3B4C4"/>
<path d="M95.9255 101.607C91.6573 106.374 89.0104 112.371 88.3655 118.737C81.173 116.094 73.3524 115.673 65.9177 117.528C58.4829 119.383 51.777 123.429 46.6694 129.141C41.5618 134.854 38.2882 141.969 37.2729 149.564C36.2576 157.159 37.5476 164.884 40.9755 171.737" stroke="#AD6866" stroke-width="0.92" stroke-linecap="round" stroke-linejoin="round"/>
<path d="M259.586 110.157C255.831 107.812 251.63 106.271 247.25 105.633C242.869 104.994 238.403 105.271 234.135 106.447C233.159 103.078 231.419 99.9797 229.051 97.3923C226.683 94.8049 223.75 92.7983 220.481 91.5282C217.211 90.2581 213.693 89.7588 210.199 90.0691C206.705 90.3793 203.33 91.4907 200.336 93.3171C197.502 87.8418 193.246 83.2305 188.016 79.9671" stroke="#AD6866" stroke-width="0.92" stroke-linecap="round" stroke-linejoin="round"/>
<path d="M154.915 223.797C159.679 227.053 165.189 229.052 170.932 229.608C176.675 230.164 182.466 229.259 187.766 226.977C190.427 232.383 194.271 237.121 199.014 240.839C203.756 244.557 209.274 247.159 215.16 248.453C221.045 249.747 227.146 249.699 233.011 248.313C238.875 246.927 244.352 244.239 249.035 240.447" stroke="#AD6866" stroke-width="0.92" stroke-linecap="round" stroke-linejoin="round"/>
<path d="M197.486 117.447C197.482 111.956 195.498 106.651 191.897 102.506C188.295 98.3609 183.319 95.6549 177.882 94.885C172.446 94.1151 166.914 95.3331 162.303 98.3151C157.693 101.297 154.313 105.843 152.786 111.117C148.046 109.815 143.07 109.624 138.245 110.56C133.42 111.496 128.877 113.533 124.968 116.513C121.059 119.492 117.891 123.334 115.71 127.739C113.53 132.144 112.395 136.992 112.396 141.907" stroke="#AD6866" stroke-width="0.92" stroke-linecap="round" stroke-linejoin="round"/>
<path d="M150.945 175.867C150.945 191.867 165.236 204.867 182.876 204.867C200.516 204.867 214.805 191.867 214.805 175.867C214.805 175.347 214.805 174.867 214.755 174.307C226.635 173.597 236.035 164.627 236.035 153.657" stroke="#AD6866" stroke-width="0.92" stroke-linecap="round" stroke-linejoin="round"/>
<path d="M243.755 189.557C248.759 186.291 252.927 181.897 255.926 176.729C258.924 171.561 260.669 165.761 261.021 159.796C261.373 153.832 260.322 147.867 257.953 142.382C255.583 136.897 251.96 132.044 247.376 128.212C242.791 124.38 237.372 121.676 231.554 120.316C225.735 118.957 219.679 118.981 213.871 120.386C208.063 121.79 202.666 124.536 198.111 128.404C193.557 132.272 189.972 137.154 187.646 142.657" stroke="#AD6866" stroke-width="0.92" stroke-linecap="round" stroke-linejoin="round"/>
<path d="M52.7555 142.747C50.4372 148.239 49.943 154.331 51.3458 160.125C52.7486 165.919 55.9742 171.109 60.548 174.933C65.1217 178.757 70.802 181.011 76.7529 181.365C82.7039 181.718 88.6112 180.152 93.6055 176.897" stroke="#AD6866" stroke-width="0.92" stroke-linecap="round" stroke-linejoin="round"/>
<path d="M169.186 182.967C169.546 182.967 169.905 182.967 170.275 182.967C172.997 182.963 175.684 182.363 178.149 181.209C180.614 180.055 182.796 178.376 184.542 176.289C186.289 174.202 187.557 171.758 188.258 169.128C188.959 166.498 189.075 163.747 188.6 161.068C188.124 158.388 187.067 155.845 185.503 153.618C183.94 151.391 181.908 149.533 179.549 148.174C177.191 146.816 174.564 145.991 171.853 145.756C169.142 145.522 166.412 145.884 163.855 146.817C163.511 143.486 162.048 140.37 159.706 137.977C157.363 135.584 154.28 134.055 150.957 133.638C147.634 133.222 144.269 133.943 141.408 135.684C138.548 137.426 136.362 140.084 135.206 143.227" stroke="#AD6866" stroke-width="0.92" stroke-linecap="round" stroke-linejoin="round"/>
<path d="M94.3055 129.077C91.3225 129.635 88.5208 130.913 86.144 132.801C83.7671 134.688 81.887 137.127 80.6669 139.905C79.4469 142.684 78.9237 145.719 79.143 148.746C79.3623 151.773 80.3174 154.7 81.9252 157.274C83.5331 159.848 85.7451 161.991 88.3691 163.515C90.9931 165.04 93.9497 165.901 96.9821 166.024C100.014 166.146 103.031 165.526 105.769 164.218C108.508 162.91 110.885 160.953 112.696 158.517C114.163 161.447 116.377 163.939 119.114 165.742C121.851 167.545 125.014 168.595 128.286 168.787" stroke="#AD6866" stroke-width="0.92" stroke-linecap="round" stroke-linejoin="round"/>
</svg>
