<svg width="289" height="43" viewBox="0 0 289 43" fill="none" xmlns="http://www.w3.org/2000/svg">
<path fill-rule="evenodd" clip-rule="evenodd" d="M160.787 36.8641C160.66 36.7643 160.531 36.6636 160.399 36.5619C160.272 36.4627 160.142 36.3627 160.01 36.2616C159.895 36.1726 159.778 36.0829 159.66 35.9923C157.93 34.6649 155.971 33.1606 154.371 31.3651C152.464 29.2272 150.991 26.5976 150.861 23.1944C150.855 23.0323 150.852 22.8683 150.852 22.7026C150.852 22.5376 150.856 22.3736 150.864 22.2107C151.041 18.714 153.092 15.7208 155.993 14.3981C158.64 13.1918 161.857 13.4308 164.822 15.6779C165.08 15.8733 165.336 16.0839 165.589 16.31C165.678 16.2308 165.767 16.1536 165.856 16.0783C166.022 15.9384 166.189 15.8051 166.356 15.6782C166.36 15.6756 166.363 15.673 166.367 15.6704C169.33 13.4304 172.542 13.193 175.186 14.3981C178.088 15.7208 180.138 18.714 180.315 22.2107C180.323 22.3736 180.328 22.5376 180.328 22.7026C180.328 22.8683 180.324 23.0323 180.318 23.1944C180.188 26.5975 178.715 29.2259 176.808 31.3651C175.213 33.1563 173.261 34.6552 171.535 35.9798C171.14 36.2832 170.756 36.5775 170.392 36.8641L169.118 35.2543C169.375 35.053 169.634 34.8522 169.895 34.6512C170.039 34.5398 170.184 34.4282 170.33 34.3164C172.05 32.9944 173.814 31.639 175.271 30.004C177.037 28.0198 178.271 25.7049 178.271 22.7026C178.271 19.7632 176.605 17.2993 174.331 16.2621C172.512 15.4331 170.178 15.4679 167.836 17.1349C167.577 17.3192 167.318 17.5235 167.059 17.7488L169.058 19.7413C169.078 19.7598 169.097 19.7791 169.116 19.7991C169.19 19.8803 169.251 19.9731 169.296 20.074C169.309 20.1032 169.321 20.1329 169.331 20.1631C169.365 20.2628 169.383 20.3674 169.385 20.473C169.388 20.6107 169.362 20.7474 169.311 20.875C169.259 21.0026 169.182 21.1185 169.084 21.2158C168.987 21.3132 168.87 21.3899 168.742 21.4414C168.614 21.493 168.477 21.5183 168.339 21.5159C168.233 21.514 168.128 21.4958 168.028 21.4621C167.998 21.4519 167.968 21.4403 167.939 21.4273C167.832 21.3799 167.734 21.3147 167.65 21.2348C167.634 21.2203 167.619 21.2053 167.605 21.1898L164.863 18.4581L164.849 18.4431C164.749 18.3391 164.648 18.2384 164.547 18.1411C164.545 18.1386 164.542 18.1361 164.54 18.1336C161.812 15.5036 158.978 15.2917 156.848 16.2621C154.574 17.2993 152.908 19.7645 152.908 22.7026C152.908 25.7049 154.142 28.0198 155.908 30.004C157.179 31.4304 158.728 32.5547 160.26 33.6664C160.844 34.0899 161.425 34.5116 161.987 34.9474C162.042 34.9898 162.096 35.0322 162.151 35.0749L162.018 35.2543L160.787 36.8641ZM165.59 17.7331L165.572 17.7497L164.863 18.4581L165.59 17.7331ZM156.641 29.3491C154.985 27.4879 153.891 25.3962 153.891 22.7026C153.891 20.1354 155.344 18.0289 157.255 17.1574M156.641 29.3491C157.479 30.2891 158.46 31.1034 159.517 31.8996C159.925 32.207 160.362 32.5244 160.805 32.8468C161.465 33.3255 162.139 33.8155 162.757 34.301C163.176 34.6297 163.257 35.2318 162.941 35.6598L162.803 35.8458L161.567 37.4621C161.234 37.8971 160.611 37.9762 160.18 37.638C159.837 37.3685 159.471 37.0876 159.089 36.7947C157.359 35.4668 155.306 33.8924 153.638 32.0203C151.53 29.6572 149.869 26.6542 149.869 22.7026C149.869 18.6261 152.186 15.0531 155.585 13.5029C158.653 12.1052 162.321 12.4643 165.589 15.0286C168.859 12.4645 172.525 12.1048 175.593 13.5028C178.994 15.0531 181.31 18.6263 181.31 22.7026C181.31 26.6542 179.649 29.6556 177.542 32.0198C175.878 33.8879 173.832 35.4576 172.104 36.783C171.717 37.0799 171.346 37.3647 170.999 37.6377C170.573 37.9723 169.958 37.8995 169.622 37.4749L168.348 35.8651C168.01 35.4379 168.084 34.8169 168.512 34.4805C168.929 34.1526 169.347 33.831 169.763 33.5113C171.477 32.1935 173.149 30.9081 174.538 29.3491C176.194 27.4879 177.289 25.3962 177.289 22.7026C177.289 20.134 175.835 18.0287 173.924 17.1573C172.489 16.5036 170.573 16.4555 168.543 17.8396L169.741 19.034C169.932 19.2149 170.086 19.4317 170.193 19.6722C170.303 19.9188 170.363 20.1853 170.368 20.4556C170.372 20.7259 170.322 20.9943 170.221 21.2448C170.119 21.4952 169.969 21.7224 169.777 21.913C169.586 22.1035 169.359 22.2534 169.109 22.3541C168.859 22.4548 168.591 22.5042 168.322 22.4994C168.052 22.4947 167.787 22.4359 167.54 22.3265C167.3 22.2198 167.083 22.0671 166.901 21.8768L164.153 19.1388L164.133 19.1169C161.568 16.4669 159.039 16.3444 157.255 17.1574" fill="#EC99B0"/>
<path d="M165.59 17.7325L164.849 18.4431L164.863 18.4581L165.59 17.7325ZM167.605 21.1898C167.699 21.2905 167.812 21.3713 167.939 21.4273C168.065 21.4833 168.201 21.5134 168.339 21.5159C168.477 21.5183 168.614 21.493 168.742 21.4414C168.87 21.3899 168.987 21.3132 169.084 21.2158C169.182 21.1185 169.259 21.0026 169.311 20.875C169.362 20.7474 169.388 20.6107 169.385 20.473C169.383 20.3354 169.353 20.1997 169.296 20.074C169.24 19.9483 169.159 19.8351 169.058 19.7413L167.605 21.1898ZM162.151 35.0749C160.072 33.4418 157.711 32.0265 155.908 30.004C154.142 28.0198 152.908 25.7049 152.908 22.7026H150.852C150.852 26.3458 152.373 29.1254 154.371 31.3651C156.331 33.5653 158.832 35.3281 160.787 36.8641L162.018 35.2543L162.151 35.0749ZM152.908 22.7026C152.908 19.7645 154.574 17.2993 156.848 16.2621C159.058 15.2549 162.028 15.5214 164.849 18.4431L166.33 17.0232C162.985 13.5563 159.097 12.9837 155.993 14.3981C152.957 15.7824 150.852 18.9965 150.852 22.7026H152.908ZM170.392 36.8641C172.347 35.3267 174.848 33.5666 176.808 31.3651C178.806 29.124 180.328 26.3458 180.328 22.7026H178.271C178.271 25.7049 177.037 28.0198 175.271 30.004C173.469 32.0265 171.197 33.6213 169.118 35.2543L170.392 36.8641ZM180.328 22.7026C180.328 18.9965 178.223 15.7824 175.186 14.3981C172.082 12.9837 168.197 13.5563 164.849 17.0219L166.33 18.4431C169.151 15.5228 172.121 15.2549 174.331 16.2621C176.605 17.2993 178.271 19.7632 178.271 22.7026H180.328ZM164.863 18.4581L167.605 21.1898L169.058 19.7413L166.316 17.0082L164.863 18.4581Z" fill="#EC99B0"/>
<path fill-rule="evenodd" clip-rule="evenodd" d="M155.585 13.5029C158.653 12.1052 162.321 12.4643 165.589 15.0286C168.859 12.4645 172.525 12.1048 175.593 13.5028C178.994 15.0531 181.31 18.6263 181.31 22.7026C181.31 26.6542 179.649 29.6556 177.542 32.0198C175.878 33.8879 173.832 35.4576 172.104 36.783C171.717 37.0799 171.346 37.3647 170.999 37.6377C170.573 37.9723 169.958 37.8995 169.622 37.4749L168.348 35.8651C168.01 35.4379 168.084 34.8169 168.512 34.4805C168.929 34.1527 169.347 33.8313 169.763 33.5118L169.763 33.5113C171.477 32.1935 173.149 30.9081 174.538 29.3491C176.194 27.4879 177.289 25.3962 177.289 22.7026C177.289 20.134 175.835 18.0287 173.924 17.1573C172.596 16.5525 170.857 16.4661 168.997 17.5524C168.846 17.6403 168.695 17.736 168.543 17.8396L169.741 19.034C169.932 19.2149 170.086 19.4317 170.193 19.6722C170.303 19.9188 170.363 20.1853 170.368 20.4556C170.372 20.7259 170.322 20.9943 170.221 21.2448C170.119 21.4952 169.969 21.7224 169.777 21.913C169.586 22.1035 169.359 22.2534 169.109 22.3541C168.859 22.4548 168.591 22.5042 168.322 22.4994C168.052 22.4947 167.787 22.4359 167.54 22.3265C167.3 22.2198 167.083 22.0671 166.901 21.8768L164.153 19.1388L164.133 19.1169C161.568 16.4669 159.039 16.3444 157.255 17.1574C155.344 18.0289 153.891 20.1354 153.891 22.7026C153.891 25.3962 154.985 27.4879 156.641 29.3491C157.479 30.2891 158.46 31.1034 159.517 31.8996C159.924 32.2069 160.361 32.5241 160.805 32.8464L160.805 32.8468C161.465 33.3255 162.139 33.8155 162.757 34.301C163.176 34.6297 163.257 35.2318 162.941 35.6598L162.803 35.8458L161.567 37.4621C161.234 37.8971 160.611 37.9762 160.18 37.638C159.837 37.3685 159.471 37.0876 159.089 36.7947C157.359 35.4668 155.306 33.8924 153.638 32.0203C151.53 29.6572 149.869 26.6542 149.869 22.7026C149.869 18.6261 152.186 15.0531 155.585 13.5029ZM153.247 32.3691C151.081 29.9403 149.345 26.8184 149.345 22.7026C149.345 18.4292 151.775 14.665 155.368 13.0261C158.524 11.5879 162.259 11.9172 165.589 14.3704C168.921 11.9174 172.654 11.5874 175.811 13.0259C179.406 14.6649 181.834 18.4295 181.834 22.7026C181.834 26.8185 180.098 29.9387 177.933 32.3684C176.236 34.2736 174.158 35.8681 172.439 37.1864L172.423 37.1987C172.036 37.4961 171.667 37.7789 171.323 38.0496C170.67 38.5628 169.726 38.451 169.211 37.8L167.937 36.1902C167.419 35.5356 167.532 34.5842 168.188 34.0684C168.607 33.7389 169.027 33.416 169.442 33.097L169.444 33.0959C171.165 31.7726 172.796 30.5165 174.147 29.0006C175.745 27.2051 176.764 25.2323 176.764 22.7026C176.764 20.3315 175.423 18.4172 173.706 17.6341C172.563 17.113 171.048 17.0087 169.382 17.936L170.107 18.6584C170.345 18.8856 170.537 19.1572 170.672 19.4583C170.811 19.7694 170.885 20.1054 170.891 20.4463C170.898 20.7873 170.835 21.1258 170.707 21.4416C170.579 21.7574 170.388 22.0439 170.147 22.2841C169.906 22.5243 169.62 22.7133 169.304 22.8402C168.989 22.9671 168.652 23.0293 168.312 23.0234C167.973 23.0174 167.638 22.9433 167.328 22.8054C167.027 22.6719 166.755 22.4811 166.527 22.2436L163.783 19.51C163.777 19.5041 163.772 19.4981 163.766 19.4919L163.751 19.4759C161.324 16.9713 159.03 16.9244 157.473 17.6341C155.756 18.4172 154.415 20.3327 154.415 22.7026C154.415 25.2322 155.434 27.205 157.032 29.0005C157.836 29.9026 158.786 30.6927 159.832 31.4812C160.236 31.7853 160.669 32.0998 161.113 32.4228L161.118 32.4261C161.774 32.9026 162.455 33.3974 163.081 33.889C163.722 34.3928 163.847 35.3154 163.362 35.9712L163.225 36.1572L163.219 36.1642L161.983 37.7804C161.473 38.4473 160.517 38.5688 159.857 38.05C159.517 37.7828 159.153 37.5038 158.77 37.2105L158.754 37.1982C157.033 35.8773 154.948 34.2782 153.247 32.3691Z" fill="#EC99B0"/>
<path fill-rule="evenodd" clip-rule="evenodd" d="M160.787 36.8641C160.66 36.7643 160.531 36.6636 160.399 36.5619C160.272 36.4627 160.142 36.3627 160.01 36.2616C159.895 36.1726 159.778 36.0829 159.66 35.9923C157.93 34.6649 155.971 33.1606 154.371 31.3651C152.464 29.2272 150.991 26.5976 150.861 23.1944C150.855 23.0323 150.852 22.8683 150.852 22.7026C150.852 22.5376 150.856 22.3736 150.864 22.2107C151.041 18.714 153.092 15.7208 155.993 14.3981C158.64 13.1918 161.857 13.4308 164.822 15.6779C165.08 15.8733 165.336 16.0839 165.589 16.31C165.678 16.2308 165.767 16.1536 165.856 16.0783C166.022 15.9384 166.189 15.8051 166.356 15.6782C166.36 15.6756 166.363 15.673 166.367 15.6704C169.33 13.4304 172.542 13.193 175.186 14.3981C178.088 15.7208 180.138 18.714 180.315 22.2107C180.323 22.3736 180.328 22.5376 180.328 22.7026C180.328 22.8683 180.324 23.0323 180.318 23.1944C180.188 26.5975 178.715 29.2259 176.808 31.3651C175.213 33.1563 173.261 34.6552 171.535 35.9798C171.14 36.2832 170.756 36.5775 170.392 36.8641L169.118 35.2543C169.375 35.053 169.634 34.8522 169.895 34.6512C170.039 34.5398 170.184 34.4282 170.33 34.3164C172.05 32.9944 173.814 31.639 175.271 30.004C177.037 28.0198 178.271 25.7049 178.271 22.7026C178.271 19.7632 176.605 17.2993 174.331 16.2621C172.512 15.4331 170.178 15.4679 167.836 17.1349C167.577 17.3192 167.318 17.5235 167.059 17.7488L169.058 19.7413C169.078 19.7598 169.097 19.7791 169.116 19.7991C169.19 19.8803 169.251 19.9731 169.296 20.074C169.309 20.1032 169.321 20.1329 169.331 20.1631C169.365 20.2628 169.383 20.3674 169.385 20.473C169.388 20.6107 169.362 20.7474 169.311 20.875C169.259 21.0026 169.182 21.1185 169.084 21.2158C168.987 21.3132 168.87 21.3899 168.742 21.4414C168.614 21.493 168.477 21.5183 168.339 21.5159C168.233 21.514 168.128 21.4958 168.028 21.4621C167.998 21.4519 167.968 21.4403 167.939 21.4273C167.832 21.3799 167.734 21.3147 167.65 21.2348C167.634 21.2203 167.619 21.2053 167.605 21.1898L164.863 18.4581L164.849 18.4431C164.749 18.3391 164.648 18.2384 164.547 18.1411C164.545 18.1386 164.542 18.1361 164.54 18.1336C161.812 15.5036 158.978 15.2917 156.848 16.2621C154.574 17.2993 152.908 19.7645 152.908 22.7026C152.908 25.7049 154.142 28.0198 155.908 30.004C157.179 31.4304 158.728 32.5547 160.26 33.6664C160.844 34.0899 161.425 34.5116 161.987 34.9474C162.042 34.9898 162.096 35.0322 162.151 35.0749L162.018 35.2543L160.787 36.8641ZM165.59 17.7331L165.572 17.7497L164.863 18.4581L165.59 17.7331ZM156.641 29.3491C154.985 27.4879 153.891 25.3962 153.891 22.7026C153.891 20.1354 155.344 18.0289 157.255 17.1574M156.641 29.3491C157.479 30.2891 158.46 31.1034 159.517 31.8996C159.925 32.207 160.362 32.5244 160.805 32.8468C161.465 33.3255 162.139 33.8155 162.757 34.301C163.176 34.6297 163.257 35.2318 162.941 35.6598L162.803 35.8458L161.567 37.4621C161.234 37.8971 160.611 37.9762 160.18 37.638C159.837 37.3685 159.471 37.0876 159.089 36.7947C157.359 35.4668 155.306 33.8924 153.638 32.0203C151.53 29.6572 149.869 26.6542 149.869 22.7026C149.869 18.6261 152.186 15.0531 155.585 13.5029C158.653 12.1052 162.321 12.4643 165.589 15.0286C168.859 12.4645 172.525 12.1048 175.593 13.5028C178.994 15.0531 181.31 18.6263 181.31 22.7026C181.31 26.6542 179.649 29.6556 177.542 32.0198C175.878 33.8879 173.832 35.4576 172.104 36.783C171.717 37.0799 171.346 37.3647 170.999 37.6377C170.573 37.9723 169.958 37.8995 169.622 37.4749L168.348 35.8651C168.01 35.4379 168.084 34.8169 168.512 34.4805C168.929 34.1526 169.347 33.831 169.763 33.5113C171.477 32.1935 173.149 30.9081 174.538 29.3491C176.194 27.4879 177.289 25.3962 177.289 22.7026C177.289 20.134 175.835 18.0287 173.924 17.1573C172.489 16.5036 170.573 16.4555 168.543 17.8396L169.741 19.034C169.932 19.2149 170.086 19.4317 170.193 19.6722C170.303 19.9188 170.363 20.1853 170.368 20.4556C170.372 20.7259 170.322 20.9943 170.221 21.2448C170.119 21.4952 169.969 21.7224 169.777 21.913C169.586 22.1035 169.359 22.2534 169.109 22.3541C168.859 22.4548 168.591 22.5042 168.322 22.4994C168.052 22.4947 167.787 22.4359 167.54 22.3265C167.3 22.2198 167.083 22.0671 166.901 21.8768L164.153 19.1388L164.133 19.1169C161.568 16.4669 159.039 16.3444 157.255 17.1574" fill="#EC99B0"/>
<path d="M165.59 17.7325L164.849 18.4431L164.863 18.4581L165.59 17.7325ZM167.605 21.1898C167.699 21.2905 167.812 21.3713 167.939 21.4273C168.065 21.4833 168.201 21.5134 168.339 21.5159C168.477 21.5183 168.614 21.493 168.742 21.4414C168.87 21.3899 168.987 21.3132 169.084 21.2158C169.182 21.1185 169.259 21.0026 169.311 20.875C169.362 20.7474 169.388 20.6107 169.385 20.473C169.383 20.3354 169.353 20.1997 169.296 20.074C169.24 19.9483 169.159 19.8351 169.058 19.7413L167.605 21.1898ZM162.151 35.0749C160.072 33.4418 157.711 32.0265 155.908 30.004C154.142 28.0198 152.908 25.7049 152.908 22.7026H150.852C150.852 26.3458 152.373 29.1254 154.371 31.3651C156.331 33.5653 158.832 35.3281 160.787 36.8641L162.018 35.2543L162.151 35.0749ZM152.908 22.7026C152.908 19.7645 154.574 17.2993 156.848 16.2621C159.058 15.2549 162.028 15.5214 164.849 18.4431L166.33 17.0232C162.985 13.5563 159.097 12.9837 155.993 14.3981C152.957 15.7824 150.852 18.9965 150.852 22.7026H152.908ZM170.392 36.8641C172.347 35.3267 174.848 33.5666 176.808 31.3651C178.806 29.124 180.328 26.3458 180.328 22.7026H178.271C178.271 25.7049 177.037 28.0198 175.271 30.004C173.469 32.0265 171.197 33.6213 169.118 35.2543L170.392 36.8641ZM180.328 22.7026C180.328 18.9965 178.223 15.7824 175.186 14.3981C172.082 12.9837 168.197 13.5563 164.849 17.0219L166.33 18.4431C169.151 15.5228 172.121 15.2549 174.331 16.2621C176.605 17.2993 178.271 19.7632 178.271 22.7026H180.328ZM164.863 18.4581L167.605 21.1898L169.058 19.7413L166.316 17.0082L164.863 18.4581Z" fill="#EC99B0"/>
<path d="M61.7136 35.3064C60.4175 35.3064 59.207 35.1474 58.0821 34.8295C56.9572 34.5116 55.9546 34.0714 55.0743 33.509C54.1939 32.9221 53.4603 32.274 52.8734 31.5649C52.3109 30.8557 51.9441 30.1099 51.7729 29.3273L56.6882 27.8601C57.0061 28.6915 57.5686 29.4129 58.3756 30.0243C59.1826 30.6112 60.1974 30.9168 61.4201 30.9413C62.7162 30.9657 63.7677 30.6845 64.5747 30.0976C65.4061 29.5107 65.8219 28.7526 65.8219 27.8234C65.8219 27.0164 65.4917 26.3439 64.8315 25.8059C64.1957 25.2435 63.3153 24.8155 62.1904 24.5221L58.8524 23.6417C57.6053 23.3238 56.5048 22.847 55.5511 22.2112C54.5974 21.5509 53.8516 20.7439 53.3136 19.7902C52.7756 18.8365 52.5066 17.7238 52.5066 16.4522C52.5066 14.0313 53.3013 12.1483 54.8909 10.8033C56.5048 9.43387 58.7791 8.74916 61.7136 8.74916C63.352 8.74916 64.7826 8.9937 66.0053 9.48278C67.2524 9.94741 68.2917 10.6199 69.1232 11.5002C69.9546 12.3806 70.5904 13.4199 71.0306 14.6182L66.152 16.1221C65.8585 15.2906 65.3205 14.5815 64.538 13.9946C63.7555 13.4077 62.7651 13.1142 61.5668 13.1142C60.3441 13.1142 59.3782 13.3954 58.669 13.9579C57.9843 14.5203 57.6419 15.3151 57.6419 16.3422C57.6419 17.1492 57.9109 17.785 58.4489 18.2496C59.0114 18.7142 59.7695 19.0688 60.7232 19.3133L64.0978 20.157C66.2987 20.695 68.0105 21.6609 69.2332 23.0548C70.4559 24.4487 71.0673 26.0016 71.0673 27.7133C71.0673 29.2295 70.7005 30.5623 69.9668 31.7116C69.2332 32.8365 68.1695 33.7168 66.7756 34.3526C65.3817 34.9885 63.6943 35.3064 61.7136 35.3064Z" fill="#B79DE4"/>
<path d="M74.7142 34.8662L74.6775 8.96924H79.5194L79.5561 34.8662H74.7142ZM86.8923 34.8662V25.4758L91.7343 24.3754V34.8662H86.8923ZM86.8923 25.4758C86.8923 24.2286 86.7456 23.2627 86.4522 22.578C86.1587 21.8933 85.7552 21.4042 85.2417 21.1107C84.7282 20.7928 84.129 20.6339 83.4443 20.6339C82.1972 20.6094 81.2312 20.9885 80.5465 21.771C79.8862 22.5535 79.5561 23.7151 79.5561 25.2557H77.9421C77.9421 23.2994 78.2234 21.6487 78.7858 20.3037C79.3727 18.9343 80.1797 17.895 81.2068 17.1858C82.2583 16.4522 83.4688 16.0854 84.8382 16.0854C87.088 16.0854 88.7998 16.7701 89.9736 18.1395C91.1474 19.4845 91.7343 21.5631 91.7343 24.3754L86.8923 25.4758Z" fill="#B79DE4"/>
<path d="M106.785 34.8662L106.675 25.5858C106.675 24.4854 106.553 23.5561 106.308 22.7981C106.088 22.0155 105.721 21.4286 105.208 21.0374C104.719 20.6216 104.058 20.4138 103.227 20.4138C102.493 20.4138 101.833 20.5727 101.246 20.8906C100.659 21.2085 100.158 21.7221 99.7422 22.4313L95.4139 20.964C95.7562 20.1815 96.2453 19.4234 96.8811 18.6898C97.5414 17.9317 98.3973 17.3081 99.4488 16.819C100.525 16.3299 101.821 16.0854 103.337 16.0854C105.171 16.0854 106.699 16.4155 107.922 17.0758C109.145 17.7361 110.062 18.7142 110.673 20.0103C111.285 21.2819 111.59 22.847 111.59 24.7055V34.8662H106.785ZM101.833 35.3064C99.6322 35.3064 97.9204 34.8173 96.6977 33.8391C95.4994 32.8609 94.9003 31.4793 94.9003 29.6941C94.9003 27.7378 95.5484 26.2706 96.8444 25.2924C98.1649 24.2898 100.011 23.7885 102.383 23.7885H107.665L107.739 27.3832H104.071C102.481 27.3832 101.381 27.5788 100.769 27.9701C100.158 28.3369 99.8523 28.8627 99.8523 29.5474C99.8523 30.0854 100.097 30.5133 100.586 30.8313C101.075 31.1247 101.76 31.2714 102.64 31.2714C103.423 31.2714 104.107 31.088 104.694 30.7212C105.306 30.3299 105.782 29.8409 106.125 29.254C106.467 28.6426 106.638 28.019 106.638 27.3832H107.996C107.996 29.8775 107.506 31.8216 106.528 33.2155C105.575 34.6094 104.009 35.3064 101.833 35.3064Z" fill="#B79DE4"/>
<path d="M118.854 25.219C118.854 23.2382 119.233 21.5998 119.991 20.3037C120.773 19.0077 121.764 18.0417 122.962 17.4059C124.185 16.7701 125.456 16.4522 126.777 16.4522V21.1474C125.652 21.1474 124.588 21.2819 123.586 21.5509C122.607 21.8199 121.813 22.2601 121.201 22.8714C120.59 23.4828 120.284 24.2653 120.284 25.219H118.854ZM115.442 34.8662V16.5256H120.284V34.8662H115.442Z" fill="#B79DE4"/>
<path d="M137.925 35.3064C136.115 35.3064 134.513 34.9029 133.119 34.0959C131.725 33.2644 130.625 32.1273 129.818 30.6845C129.035 29.2417 128.644 27.5789 128.644 25.6959C128.644 23.8129 129.048 22.15 129.855 20.7072C130.686 19.2644 131.811 18.1395 133.229 17.3326C134.672 16.5011 136.323 16.0854 138.181 16.0854C139.771 16.0854 141.238 16.5133 142.583 17.3692C143.952 18.2007 145.053 19.4356 145.884 21.074C146.716 22.688 147.132 24.6566 147.132 26.9797H142.216C142.241 25.3657 142.069 24.0819 141.703 23.1282C141.36 22.15 140.871 21.4531 140.235 21.0374C139.6 20.5972 138.854 20.3771 137.998 20.3771C137.093 20.3771 136.323 20.5727 135.687 20.964C135.076 21.3553 134.611 21.9544 134.293 22.7614C133.975 23.5439 133.816 24.571 133.816 25.8426C133.816 26.943 134.024 27.8601 134.44 28.5937C134.856 29.3273 135.418 29.8898 136.127 30.281C136.836 30.6478 137.607 30.8313 138.438 30.8313C139.392 30.8313 140.162 30.6234 140.749 30.2077C141.36 29.792 141.825 29.254 142.143 28.5937L146.691 30.3544C146.153 31.3815 145.481 32.274 144.674 33.0321C143.867 33.7657 142.901 34.3282 141.776 34.7195C140.651 35.1107 139.367 35.3064 137.925 35.3064ZM131.799 26.9797L131.835 23.2016H144.747V26.9797H131.799Z" fill="#B79DE4"/>
<path d="M192.926 35.3064C191.116 35.3064 189.515 34.9029 188.121 34.0959C186.727 33.2644 185.626 32.1273 184.819 30.6845C184.037 29.2417 183.646 27.5789 183.646 25.6959C183.646 23.8129 184.049 22.15 184.856 20.7072C185.687 19.2644 186.812 18.1395 188.231 17.3326C189.673 16.5011 191.324 16.0854 193.183 16.0854C194.772 16.0854 196.239 16.5133 197.584 17.3692C198.954 18.2007 200.054 19.4356 200.886 21.074C201.717 22.688 202.133 24.6566 202.133 26.9797H197.218C197.242 25.3657 197.071 24.0819 196.704 23.1282C196.362 22.15 195.873 21.4531 195.237 21.0374C194.601 20.5972 193.855 20.3771 192.999 20.3771C192.094 20.3771 191.324 20.5727 190.688 20.964C190.077 21.3553 189.612 21.9544 189.294 22.7614C188.977 23.5439 188.818 24.571 188.818 25.8426C188.818 26.943 189.025 27.8601 189.441 28.5937C189.857 29.3273 190.419 29.8898 191.129 30.281C191.838 30.6478 192.608 30.8313 193.439 30.8313C194.393 30.8313 195.163 30.6234 195.75 30.2077C196.362 29.792 196.826 29.254 197.144 28.5937L201.693 30.3544C201.155 31.3815 200.482 32.274 199.675 33.0321C198.868 33.7657 197.902 34.3282 196.777 34.7195C195.653 35.1107 194.369 35.3064 192.926 35.3064ZM186.8 26.9797L186.837 23.2016H199.749V26.9797H186.8Z" fill="#B79DE4"/>
<path d="M214.176 34.8662V30.171C215.35 30.171 216.438 29.9631 217.44 29.5474C218.443 29.1317 219.311 28.557 220.045 27.8234C220.803 27.0898 221.39 26.2339 221.805 25.2557C222.221 24.2531 222.429 23.1771 222.429 22.0278C222.429 20.8784 222.221 19.8147 221.805 18.8365C221.39 17.8339 220.803 16.9658 220.045 16.2321C219.311 15.4985 218.443 14.9238 217.44 14.5081C216.438 14.0924 215.35 13.8845 214.176 13.8845V9.18933C216.792 9.18933 219.103 9.73955 221.109 10.84C223.138 11.9404 224.716 13.4566 225.84 15.3885C226.99 17.2959 227.564 19.509 227.564 22.0278C227.564 24.5221 226.99 26.7352 225.84 28.6671C224.691 30.5989 223.114 32.1151 221.109 33.2155C219.103 34.316 216.792 34.8662 214.176 34.8662ZM208.857 34.8662V30.171H214.176V34.8662H208.857ZM205.959 34.8662V9.18933H210.985V34.8662H205.959ZM208.857 13.8845V9.18933H214.176V13.8845H208.857Z" fill="#B79DE4"/>
<path d="M242.134 34.8662L242.024 25.5858C242.024 24.4854 241.902 23.5561 241.657 22.7981C241.437 22.0155 241.07 21.4286 240.557 21.0374C240.068 20.6216 239.407 20.4138 238.576 20.4138C237.842 20.4138 237.182 20.5727 236.595 20.8906C236.008 21.2085 235.507 21.7221 235.091 22.4313L230.763 20.964C231.105 20.1815 231.594 19.4234 232.23 18.6898C232.89 17.9317 233.746 17.3081 234.798 16.819C235.874 16.3299 237.17 16.0854 238.686 16.0854C240.52 16.0854 242.048 16.4155 243.271 17.0758C244.494 17.7361 245.411 18.7142 246.022 20.0103C246.634 21.2819 246.939 22.847 246.939 24.7055V34.8662H242.134ZM237.182 35.3064C234.981 35.3064 233.269 34.8173 232.047 33.8391C230.848 32.8609 230.249 31.4793 230.249 29.6941C230.249 27.7378 230.897 26.2706 232.193 25.2924C233.514 24.2898 235.36 23.7885 237.732 23.7885H243.014L243.088 27.3832H239.42C237.83 27.3832 236.73 27.5788 236.118 27.9701C235.507 28.3369 235.201 28.8627 235.201 29.5474C235.201 30.0854 235.446 30.5133 235.935 30.8313C236.424 31.1247 237.109 31.2714 237.989 31.2714C238.772 31.2714 239.456 31.088 240.043 30.7212C240.655 30.3299 241.131 29.8409 241.474 29.254C241.816 28.6426 241.987 28.019 241.987 27.3832H243.345C243.345 29.8775 242.855 31.8216 241.877 33.2155C240.924 34.6094 239.358 35.3064 237.182 35.3064Z" fill="#B79DE4"/>
<path d="M251.085 34.8662V16.5256H255.927V34.8662H251.085ZM253.506 13.5544C252.772 13.5544 252.124 13.2854 251.562 12.7474C250.999 12.185 250.718 11.5247 250.718 10.7666C250.718 10.0085 250.999 9.36051 251.562 8.82252C252.124 8.26007 252.772 7.97885 253.506 7.97885C254.264 7.97885 254.912 8.26007 255.45 8.82252C256.012 9.36051 256.294 10.0085 256.294 10.7666C256.294 11.5247 256.012 12.185 255.45 12.7474C254.912 13.2854 254.264 13.5544 253.506 13.5544Z" fill="#B79DE4"/>
<path d="M260.392 34.8662L260.428 9.18933H265.27L265.233 34.8662H260.392Z" fill="#B79DE4"/>
<path d="M273.122 42.6426C272.462 42.6426 271.729 42.5081 270.922 42.2391C270.139 41.9946 269.442 41.7011 268.831 41.3588L270.628 37.4339C271.044 37.654 271.423 37.8251 271.765 37.9474C272.132 38.0941 272.45 38.1675 272.719 38.1675C273.233 38.1675 273.685 38.0208 274.076 37.7273C274.467 37.4583 274.785 37.0548 275.03 36.5168L277.194 31.4182L283.026 16.5256H288.345L280.019 36.4435C279.505 37.6662 278.967 38.7422 278.405 39.6714C277.842 40.6251 277.145 41.3588 276.314 41.8723C275.507 42.3858 274.443 42.6426 273.122 42.6426ZM275.91 34.8662L267.51 16.5256H272.829L278.955 31.4182L280.532 34.8662H275.91Z" fill="#B79DE4"/>
<path fill-rule="evenodd" clip-rule="evenodd" d="M21.9253 2.10567C22.7917 3.493 22.0749 5.32285 20.6153 6.06091C19.7224 6.51239 18.875 7.04291 18.073 7.65247C16.4077 8.91814 14.9873 10.3785 13.8118 12.0336C12.6364 13.5914 11.7548 15.2952 11.167 17.145C11.156 17.1798 11.1451 17.2145 11.1343 17.2493C10.2293 20.168 12.8902 22.5484 15.9459 22.5484H16.0571C17.9706 22.5484 19.8409 23.4338 20.6088 25.1864C20.7526 25.5146 20.8869 25.8523 21.0116 26.1994C21.5014 27.5624 21.7463 28.7794 21.7463 29.8504C21.7463 31.5055 21.5014 33.1119 21.0116 34.6697C20.8831 35.0528 20.7445 35.426 20.5958 35.789C19.8375 37.6398 17.9014 38.6127 15.9013 38.6127H6.57761C4.1894 38.6127 1.97791 37.2111 1.26596 34.9315C0.550215 32.6398 0.12823 30.4106 0 28.244C0 22.6945 1.02854 18.0699 3.08563 14.3703C5.24067 10.5733 7.83651 7.55512 10.8732 5.31585C13.5204 3.34251 16.3423 1.92469 19.3389 1.06237C20.3337 0.776115 21.377 1.22769 21.9253 2.10567V2.10567ZM19.7157 40.4679C19.4862 40.4679 19.2781 40.332 19.1885 40.1206C19.1696 40.076 19.1508 40.0314 19.1321 39.9868C19.0425 39.7732 19.1421 39.528 19.3542 39.435V39.435C19.3771 39.4249 19.4009 39.4169 19.4251 39.411L19.5851 39.3722C20.1444 39.2365 20.6386 38.8997 20.9318 38.4044C21.552 37.3565 22.0676 36.2148 22.4809 34.9823L22.4839 34.9735L22.4867 34.9646C23.0069 33.31 23.2666 31.6041 23.2666 29.8504C23.2666 28.6341 22.9895 27.3016 22.474 25.8668C22.0118 24.5805 21.4221 23.4063 20.7016 22.3493C20.5283 22.095 20.2876 21.8954 20.0119 21.7587V21.7587C19.7469 21.6273 19.4552 21.559 19.1595 21.559H18.9111C16.9628 21.559 15.528 19.7068 16.3146 17.9245C16.5735 17.338 16.8547 16.7717 17.1584 16.2255C19.3135 12.4285 21.9093 9.41033 24.9459 7.17107C27.5932 5.19773 30.4151 3.7799 33.4117 2.91759C34.4065 2.63133 35.4498 3.0829 35.9981 3.96089V3.96089C36.8645 5.34822 36.1477 7.17807 34.6881 7.91613C33.7952 8.36761 32.9477 8.89813 32.1457 9.50769C30.4805 10.7734 29.0601 12.2338 27.8846 13.8889C26.7092 15.4466 25.8276 17.1504 25.2398 19.0002C25.2288 19.035 25.2179 19.0698 25.2071 19.1045C24.3021 22.0232 26.963 24.4037 30.0187 24.4037H30.1299C32.0434 24.4037 33.9137 25.289 34.6816 27.0416C34.8254 27.3698 34.9597 27.7075 35.0844 28.0546C35.5742 29.4177 35.8191 30.6347 35.8191 31.7056C35.8191 33.3607 35.5742 34.9671 35.0844 36.5249C34.9559 36.9081 34.8173 37.2812 34.6686 37.6442C33.9103 39.4951 31.9742 40.4679 29.9741 40.4679H19.7157Z" fill="url(#paint0_linear_110_2)"/>
<defs>
<linearGradient id="paint0_linear_110_2" x1="18.8646" y1="0.642609" x2="18.8646" y2="40.4679" gradientUnits="userSpaceOnUse">
<stop stop-color="#F3B4C4"/>
<stop offset="0.385417" stop-color="#FAA6C1"/>
<stop offset="0.953125" stop-color="#B79DE4"/>
</linearGradient>
</defs>
</svg>
