<svg width="336" height="264" viewBox="0 0 336 264" fill="none" xmlns="http://www.w3.org/2000/svg">
<path opacity="0.08" d="M78.5256 246.151C141.406 287.951 232.017 249.782 287.995 199.069C341.723 150.395 367.85 24.0058 270.888 3.31725C230.515 -5.29691 212.154 3.68676 182.421 20.7945C158.418 34.6061 125.435 28.0685 101.581 15.6881C67.8514 -1.81737 26.2827 23.644 8.48625 62.0408C-13.3158 109.095 13.2289 202.744 78.5256 246.151Z" fill="white"/>
<path opacity="0.1" d="M78.5256 246.151C141.406 287.951 232.017 249.782 287.995 199.069C341.723 150.395 367.85 24.0058 270.888 3.31725C230.515 -5.29691 212.154 3.68676 182.421 20.7945C158.418 34.6061 125.435 28.0685 101.581 15.6881C67.8514 -1.81737 26.2827 23.644 8.48625 62.0408C-13.3158 109.095 13.2289 202.744 78.5256 246.151Z" fill="#F3B4C4"/>
<path d="M89.7387 40.7479C89.7387 40.7479 88.3649 61.4147 83.7279 68.9101C70.3765 90.4955 66.5085 114.778 79.8784 127.465C93.2484 140.152 178.526 140.328 184.987 111.148C190.426 86.5816 178.754 83.9399 175.913 63.676C174.629 54.5063 171.093 35.2784 171.093 35.2784" fill="#0A0A0A"/>
<path d="M162.913 106.875C162.766 106.856 161.133 134.03 129.644 131.661C107.846 130.024 100.073 106.835 99.5741 106.835C101.924 106.334 105.882 105.606 106.925 105.047C110.358 103.198 114.604 101.274 115.712 94.5909C116.352 90.7418 115.264 71.0334 115.601 67.1344L149.064 74.6227C148.597 82.8532 145.324 101.935 156.794 105.312C158.699 105.87 160.755 106.384 162.913 106.875Z" fill="#EFD0BA"/>
<path opacity="0.5" d="M149.531 97.5136C149.007 95.8201 148.669 94.0742 148.524 92.3071C148.157 88.2744 148.23 84.2134 148.743 80.1967C141.943 79.2763 135.537 76.4621 130.252 72.074C129.631 74.3744 126.213 84.4268 127.16 86.6131C128.946 90.7457 137.349 97.5136 149.531 97.5136Z" fill="#0C0C0C"/>
<path d="M145.204 89.0469C132.011 90.33 114.942 85.0362 111.406 67.423L108.216 51.5303C104.68 33.9171 111.041 17.7762 127.582 14.4384C144.124 11.1026 159.354 22.8845 162.89 40.4977L164.302 47.5357C165.659 54.292 168.741 86.7638 145.204 89.0469Z" fill="#EFD0BA"/>
<path d="M154.587 67.9831C150.301 70.1678 145.411 70.8588 140.689 69.9467C140.526 69.9158 140.357 69.9322 140.202 69.994C140.048 70.0558 139.914 70.1604 139.817 70.2955C139.719 70.4307 139.662 70.5909 139.652 70.7574C139.642 70.9238 139.68 71.0897 139.761 71.2355C141.168 73.7226 144.507 77.9713 150.235 76.2393C153.934 75.1205 155.332 71.3054 155.85 68.946C155.885 68.7828 155.873 68.6129 155.816 68.4563C155.758 68.2996 155.657 68.1627 155.524 68.0616C155.392 67.9605 155.233 67.8994 155.067 67.8855C154.901 67.8716 154.735 67.9054 154.587 67.9831Z" fill="white"/>
<path d="M154.856 48.8707C156 48.8707 156.927 47.941 156.927 46.7941C156.927 45.6473 156 44.7175 154.856 44.7175C153.712 44.7175 152.784 45.6473 152.784 46.7941C152.784 47.941 153.712 48.8707 154.856 48.8707Z" fill="#0C0C0C"/>
<path d="M134.953 52.3643C136.097 52.3643 137.025 51.4346 137.025 50.2877C137.025 49.1409 136.097 48.2112 134.953 48.2112C133.809 48.2112 132.882 49.1409 132.882 50.2877C132.882 51.4346 133.809 52.3643 134.953 52.3643Z" fill="#0C0C0C"/>
<path opacity="0.1" d="M136.819 65.9667C138.99 65.707 140.596 64.2023 140.406 62.6058C140.216 61.0094 138.302 59.9257 136.131 60.1854C133.96 60.4451 132.354 61.9498 132.544 63.5463C132.734 65.1427 134.648 66.2264 136.819 65.9667Z" fill="#0C0C0C"/>
<path opacity="0.1" d="M159.758 59.5838C159.95 61.178 161.867 62.2602 164.038 62.0036C164.413 61.9585 164.782 61.8744 165.14 61.7528C165.241 59.852 165.247 58.023 165.192 56.3301C164.589 56.1791 163.963 56.1424 163.347 56.2217C161.176 56.4789 159.57 57.9826 159.758 59.5838Z" fill="#0C0C0C"/>
<path opacity="0.5" d="M150.165 64.5112L150.197 64.5061C150.868 64.3661 151.53 64.1889 152.181 63.9756C153.152 63.6497 154.42 63.1147 154.246 62.2339C154.046 61.2299 149.128 50.9549 148.57 49.7886C148.546 49.7366 148.513 49.6897 148.471 49.6508C148.43 49.6118 148.381 49.5817 148.327 49.5621C148.274 49.5425 148.217 49.5338 148.16 49.5366C148.103 49.5394 148.047 49.5535 147.996 49.5783C147.945 49.603 147.899 49.6378 147.861 49.6806C147.823 49.7234 147.795 49.7733 147.777 49.8274C147.759 49.8815 147.751 49.9387 147.756 49.9957C147.76 50.0526 147.776 50.108 147.802 50.1588C149.899 54.5345 153.276 61.7284 153.411 62.4045C153.305 62.7195 151.694 63.3347 150.031 63.6709C149.92 63.6889 149.82 63.7506 149.754 63.8423C149.688 63.934 149.661 64.0483 149.679 64.16C149.697 64.2717 149.758 64.3717 149.85 64.4379C149.941 64.5041 150.055 64.5312 150.167 64.5132L150.165 64.5112Z" fill="#0C0C0C"/>
<path d="M95.0176 57.2353L109.847 54.3312C121.049 49.6347 124.227 30.0617 124.227 30.0617C124.227 30.0617 138.052 43.2613 171.093 35.279C171.093 35.279 163.916 -10.964 115.128 3.0754C99.3969 7.60123 88.2537 23.6768 89.9109 44.9703C91.0723 59.8898 95.0176 57.2353 95.0176 57.2353Z" fill="#0A0A0A"/>
<path d="M113.511 72.582C108.484 73.5963 103.327 69.0268 102.313 63.9858C101.3 58.9449 104.819 55.3441 109.846 54.3299L113.114 57.1839L117.832 71.7083L113.511 72.582Z" fill="#EFD0BA"/>
<path d="M152.136 41.594C153.393 40.7022 154.864 40.1606 156.398 40.0243C157.168 39.9508 157.945 39.994 158.702 40.1526C159.466 40.309 160.208 40.5609 160.91 40.9025L160.932 40.9128C161.01 40.9496 161.1 40.9538 161.181 40.9244C161.262 40.8949 161.329 40.8343 161.365 40.7559C161.402 40.6775 161.406 40.5876 161.377 40.5061C161.347 40.4246 161.287 40.3581 161.209 40.3213C160.465 39.9278 159.675 39.6297 158.857 39.4341C158.033 39.2333 157.184 39.1578 156.338 39.2102C154.624 39.3047 152.966 39.8585 151.539 40.814C151.485 40.8502 151.44 40.8966 151.405 40.9504C151.37 41.0042 151.345 41.0645 151.333 41.1278C151.321 41.191 151.322 41.256 151.335 41.3191C151.348 41.3822 151.373 41.442 151.409 41.4953C151.445 41.5485 151.492 41.5941 151.545 41.6294C151.599 41.6647 151.659 41.6891 151.722 41.7011C151.785 41.7132 151.85 41.7126 151.913 41.6995C151.976 41.6864 152.036 41.6611 152.089 41.6248L152.1 41.6165L152.136 41.594Z" fill="#0C0C0C"/>
<path d="M138.587 43.4711C136.902 43.1359 135.16 43.2595 133.539 43.829C132.738 44.1056 131.983 44.5011 131.3 45.0024C130.619 45.4971 130.003 46.0758 129.466 46.7248C129.409 46.789 129.38 46.873 129.384 46.9587C129.389 47.0443 129.427 47.1247 129.49 47.1825C129.553 47.2403 129.637 47.2709 129.722 47.2676C129.808 47.2643 129.889 47.2274 129.947 47.1649L129.964 47.1469C130.482 46.5622 131.071 46.0449 131.718 45.6073C132.357 45.1698 133.059 44.8318 133.8 44.6046C135.27 44.1424 136.835 44.0784 138.338 44.4192L138.375 44.4282C138.501 44.4588 138.634 44.438 138.744 44.3704C138.855 44.3027 138.934 44.1937 138.965 44.0674C138.996 43.941 138.975 43.8077 138.907 43.6967C138.84 43.5858 138.731 43.5062 138.605 43.4756L138.587 43.4711Z" fill="#0C0C0C"/>
<path d="M109.857 54.0874C119.826 50.3667 123.134 43.4653 124.152 38.3294C124.812 34.9042 124.75 31.3786 123.971 27.9787L123.663 28.0634C124.43 31.4192 124.489 34.8986 123.837 38.2787C122.831 43.3306 119.57 50.1216 109.745 53.7872L109.857 54.0874Z" fill="#0C0C0C"/>
<path d="M202.173 123.641L242.942 232.32L209.106 222.724L286.059 165.181L313.474 202.766L235.456 258.848C232.747 260.791 229.641 262.108 226.363 262.701C223.085 263.295 219.716 263.152 216.5 262.283C213.284 261.413 210.3 259.838 207.765 257.672C205.229 255.506 203.205 252.803 201.838 249.757L201.62 249.252L154.788 143.056L202.173 123.641Z" fill="#F3B4C4"/>
<path d="M129.057 124.865C107.243 123.834 106.325 105.271 106.325 105.271C106.325 105.271 95.5161 105.971 88.3311 106.946C76.5678 108.542 68.8076 112.541 62.6316 118.732C56.8869 124.491 53.3894 130.723 57.0904 170.509C59.7702 199.316 57.8838 262.68 57.8838 262.68H189.536C189.536 262.68 197.43 179.627 198.531 166.66C200.631 141.904 209.232 127.951 197.21 115.199C188.492 105.951 165.985 105.271 156.926 105.273C156.778 105.271 158.765 126.268 129.057 124.865Z" fill="#F3B4C4"/>
<path d="M255.612 128.999C247.429 115.143 228.91 113.479 215.089 121.686L214.213 122.231L213.626 121.283C205.167 107.594 187.922 100.454 174.268 108.934C167.712 113.007 163.037 119.524 161.273 127.052C159.509 134.58 160.8 142.502 164.862 149.076L192.963 193.582C193.875 195.026 195.316 196.052 196.976 196.44C198.636 196.827 200.381 196.545 201.835 195.653L246.433 168.307C252.726 164.208 257.195 157.829 258.906 150.503C260.616 143.178 259.436 135.473 255.612 128.999Z" fill="#F3B4C4"/>
<path opacity="0.6" d="M255.612 128.999C247.429 115.143 228.91 113.479 215.089 121.686L214.213 122.231L213.626 121.283C205.167 107.594 187.922 100.454 174.268 108.934C167.712 113.007 163.037 119.524 161.273 127.052C159.509 134.58 160.8 142.502 164.862 149.076L192.963 193.582C193.875 195.026 195.316 196.052 196.976 196.44C198.636 196.827 200.381 196.545 201.835 195.653L246.433 168.307C252.726 164.208 257.195 157.829 258.906 150.503C260.616 143.178 259.436 135.473 255.612 128.999Z" fill="white"/>
<path d="M208.497 157.656C193.987 148.889 175.958 156.625 167.213 171.172L166.671 172.118L165.652 171.531C150.97 163.056 131.393 165.069 122.941 179.789C118.882 186.857 117.79 195.253 119.905 203.129C122.02 211.005 127.169 217.716 134.219 221.786L182.512 249.037C184.078 249.921 185.929 250.152 187.664 249.68C189.399 249.208 190.879 248.07 191.785 246.513L219.567 198.763C223.368 191.802 224.338 183.639 222.275 175.978C220.212 168.317 215.275 161.752 208.497 157.656Z" fill="#F3B4C4"/>
<path opacity="0.5" d="M208.497 157.656C193.987 148.889 175.958 156.625 167.213 171.172L166.671 172.118L165.652 171.531C150.97 163.056 131.393 165.069 122.941 179.789C118.882 186.857 117.79 195.253 119.905 203.129C122.02 211.005 127.169 217.716 134.219 221.786L182.512 249.037C184.078 249.921 185.929 250.152 187.664 249.68C189.399 249.208 190.879 248.07 191.785 246.513L219.567 198.763C223.368 191.802 224.338 183.639 222.275 175.978C220.212 168.317 215.275 161.752 208.497 157.656Z" fill="white"/>
<path d="M195.845 178.283C195.851 178.198 195.889 178.119 195.953 178.062C196.017 178.006 196.1 177.977 196.185 177.983C196.27 177.988 196.349 178.027 196.406 178.091C196.462 178.155 196.49 178.238 196.485 178.324L193.807 221.192C193.803 221.269 193.77 221.342 193.716 221.397C193.662 221.452 193.59 221.486 193.514 221.492C193.499 221.492 193.484 221.492 193.468 221.492C193.383 221.487 193.304 221.448 193.248 221.384C193.192 221.32 193.163 221.237 193.169 221.152" fill="#0C0C0C"/>
<path d="M295.646 174.435C295.68 173.964 295.809 173.505 296.026 173.086C296.242 172.666 296.542 172.295 296.906 171.996C297.27 171.696 297.691 171.474 298.144 171.343C298.596 171.212 299.071 171.175 299.538 171.234C300.439 171.38 301.251 171.863 301.81 172.585C302.369 173.308 302.633 174.217 302.55 175.128L302.216 179.811L309.073 167.196C309.915 165.592 311.971 164.163 313.703 165.228C315.161 165.998 317.908 165.579 318.92 167.509C318.937 167.515 324.231 186.305 323.45 187.796C320.138 194.11 308.998 198.317 301.918 197.611L290.774 196.492L295.646 174.435Z" fill="#EFD0BA"/>
<g opacity="0.1">
<path d="M295.646 174.435C295.68 173.964 295.809 173.505 296.026 173.086C296.242 172.666 296.542 172.295 296.906 171.996C297.27 171.696 297.691 171.474 298.144 171.343C298.596 171.212 299.071 171.175 299.538 171.234C300.439 171.38 301.251 171.863 301.81 172.585C302.369 173.308 302.633 174.217 302.55 175.128L302.216 179.811L309.073 167.196C309.915 165.592 311.971 164.163 313.703 165.228C315.161 165.998 317.908 165.579 318.92 167.509C318.937 167.515 324.231 186.305 323.45 187.796C320.138 194.11 308.998 198.317 301.918 197.611L290.774 196.492L295.646 174.435Z" fill="#0C0C0C"/>
</g>
<path d="M307.85 160.155C295.053 143.925 271.186 144.998 254.997 157.829L253.974 158.674L253.063 157.567C239.946 141.593 216.759 135.479 200.829 148.633C197.04 151.761 193.904 155.606 191.598 159.949C189.292 164.292 187.862 169.048 187.39 173.945C186.917 178.842 187.412 183.785 188.844 188.49C190.277 193.196 192.62 197.573 195.74 201.37L239.157 253.194C240.566 254.875 242.577 255.934 244.757 256.141C246.937 256.348 249.111 255.687 250.809 254.301L302.903 211.787C310.212 205.483 314.808 196.591 315.73 186.968C316.652 177.346 313.829 167.739 307.85 160.155Z" fill="#ED7373"/>
<path d="M308.426 183.491C308.425 182.87 308.627 182.266 309 181.771C309.373 181.276 309.897 180.916 310.493 180.747C310.471 180.702 310.388 180.606 310.469 180.574L308.134 180.16C307.444 180.052 306.816 179.699 306.366 179.163C305.916 178.628 305.675 177.948 305.687 177.248C305.72 176.557 306.009 175.904 306.496 175.414C306.983 174.924 307.634 174.633 308.323 174.598C308.307 174.575 308.312 174.544 308.304 174.517L307.344 174.346C306.694 174.243 306.1 173.917 305.662 173.425C305.224 172.933 304.97 172.304 304.941 171.645C304.932 171.231 305.014 170.821 305.182 170.443C305.35 170.065 305.6 169.729 305.913 169.46C306.226 169.19 306.595 168.994 306.993 168.885C307.39 168.775 307.808 168.756 308.214 168.828L310.427 169.221C310.427 169.209 310.416 169.2 310.418 169.188C310.42 169.176 310.437 169.163 310.441 169.149C309.859 168.904 309.378 168.468 309.075 167.913C308.773 167.357 308.668 166.715 308.778 166.092C308.956 164.465 310.873 163.859 312.304 164.114L316.748 165.268C317.433 165.446 318.065 165.791 318.585 166.272C319.106 166.753 319.5 167.356 319.732 168.027C321.743 173.832 326.636 189.12 322.07 188.309L310.83 186.313C310.174 186.177 309.581 185.826 309.146 185.315C308.711 184.804 308.458 184.162 308.426 183.491Z" fill="#EFD0BA"/>
<path d="M172.694 205.15L190.15 191.866C190.534 191.575 190.974 191.366 191.443 191.254C191.911 191.142 192.398 191.129 192.871 191.216C193.345 191.303 193.795 191.488 194.194 191.759C194.593 192.03 194.93 192.381 195.186 192.79C195.635 193.56 195.782 194.469 195.6 195.342C195.418 196.215 194.919 196.989 194.2 197.514L190.457 200.362L206.329 196.822C208.087 196.398 210.515 197.004 210.86 199.012C211.043 199.776 210.963 200.58 210.631 201.292C210.3 202.005 209.738 202.583 209.037 202.934C209.045 202.95 209.051 202.966 209.056 202.983C209.057 202.997 209.057 203.01 209.056 203.023L211.766 202.369C212.268 202.248 212.791 202.241 213.296 202.348C213.802 202.455 214.277 202.674 214.687 202.989C215.097 203.303 215.432 203.706 215.668 204.167C215.903 204.628 216.033 205.135 216.048 205.653C216.055 206.469 215.782 207.262 215.275 207.9C214.769 208.538 214.059 208.983 213.265 209.159L212.113 209.438C212.106 209.475 212.092 209.51 212.072 209.542C212.895 209.536 213.693 209.822 214.324 210.351C214.955 210.88 215.378 211.616 215.518 212.429C215.644 213.323 215.429 214.232 214.916 214.975C214.403 215.717 213.63 216.238 212.75 216.434L209.886 217.126C209.933 217.145 209.975 217.175 210.008 217.213C210.042 217.252 210.066 217.298 210.078 217.347C210.09 217.407 210.084 217.468 210.061 217.525C210.796 217.723 211.445 218.157 211.909 218.761C212.373 219.365 212.627 220.105 212.631 220.868C212.618 221.669 212.337 222.442 211.831 223.063C211.326 223.683 210.626 224.114 209.846 224.287L185.671 230.125C182.289 230.941 178.741 230.727 175.482 229.508C172.222 228.29 169.4 226.123 167.377 223.286C165.632 220.84 164.908 217.808 165.357 214.835C165.807 211.862 167.395 209.181 169.784 207.363L172.694 205.15Z" fill="#EFD0BA"/>
<g opacity="0.2">
<path d="M193.343 206.516C193.363 206.598 193.414 206.668 193.485 206.712C193.556 206.756 193.641 206.771 193.723 206.753L208.813 203.367C208.896 203.348 208.968 203.297 209.014 203.225C209.059 203.153 209.074 203.066 209.056 202.983C209.037 202.9 208.986 202.828 208.915 202.782C208.843 202.736 208.756 202.721 208.673 202.74L193.583 206.126C193.542 206.135 193.503 206.152 193.468 206.177C193.434 206.201 193.404 206.232 193.382 206.268C193.359 206.304 193.344 206.343 193.337 206.385C193.33 206.427 193.331 206.47 193.341 206.511L193.343 206.516Z" fill="#0C0C0C"/>
</g>
<g opacity="0.2">
<path d="M194.649 213.231C194.669 213.312 194.72 213.382 194.791 213.426C194.862 213.47 194.948 213.484 195.029 213.466L211.87 209.687C211.911 209.678 211.95 209.661 211.985 209.637C212.019 209.612 212.049 209.581 212.071 209.546C212.094 209.51 212.109 209.47 212.116 209.428C212.123 209.387 212.122 209.344 212.112 209.303C212.091 209.221 212.04 209.15 211.968 209.105C211.897 209.06 211.811 209.044 211.729 209.06L194.887 212.839C194.846 212.848 194.807 212.865 194.773 212.889C194.738 212.914 194.709 212.945 194.687 212.981C194.664 213.016 194.649 213.056 194.642 213.098C194.635 213.14 194.636 213.182 194.645 213.223L194.649 213.231Z" fill="#0C0C0C"/>
</g>
<g opacity="0.2">
<path d="M196.021 220.51C196.041 220.591 196.092 220.661 196.164 220.705C196.235 220.749 196.32 220.764 196.402 220.745L209.839 217.73C209.922 217.711 209.994 217.661 210.039 217.589C210.085 217.517 210.1 217.43 210.081 217.347C210.063 217.264 210.012 217.191 209.94 217.146C209.868 217.1 209.782 217.085 209.699 217.104L196.262 220.119C196.221 220.128 196.182 220.146 196.147 220.17C196.113 220.194 196.083 220.225 196.061 220.261C196.038 220.297 196.023 220.337 196.016 220.378C196.009 220.42 196.01 220.463 196.02 220.504L196.021 220.51Z" fill="#0C0C0C"/>
</g>
<path d="M180.19 236.934L69.2459 262.218C65.5603 262.62 61.8318 262.161 58.3531 260.875C54.8744 259.59 51.7401 257.514 49.196 254.811C46.6519 252.107 44.7673 248.849 43.6901 245.293C42.6128 241.736 42.3722 237.978 42.9872 234.312L55.6833 131.928C56.7391 125.636 60.2447 120.022 65.4288 116.322C70.613 112.621 77.051 111.137 83.3267 112.196C89.6023 113.254 95.2016 116.769 98.8926 121.966C102.584 127.164 104.064 133.618 103.008 139.91L96.8943 213.193L173.975 195.705L180.19 236.934Z" fill="#F3B4C4"/>
<path d="M81.2964 216.072C81.2116 216.078 81.1277 216.05 81.0633 215.994C80.999 215.939 80.9593 215.859 80.9531 215.774C80.9469 215.689 80.9747 215.605 81.0303 215.541C81.0859 215.476 81.1648 215.436 81.2497 215.43L96.7094 212.121C96.751 212.114 96.7936 212.116 96.8345 212.126C96.8755 212.136 96.9141 212.154 96.948 212.179C96.9819 212.204 97.0104 212.236 97.0319 212.272C97.0533 212.309 97.0673 212.349 97.0729 212.391C97.0853 212.475 97.064 212.56 97.0137 212.629C96.9633 212.697 96.8879 212.742 96.8041 212.755L81.3444 216.065C81.3286 216.068 81.3126 216.071 81.2964 216.072Z" fill="#0C0C0C"/>
<path d="M72.5744 262.68C72.4896 262.685 72.406 262.657 72.3421 262.601C72.2782 262.544 72.2392 262.465 72.2337 262.38C72.2282 262.295 72.2566 262.211 72.3127 262.147C72.3688 262.083 72.448 262.044 72.5328 262.038L179.494 236.781L173.433 196.174L96.8124 212.76C96.7628 212.766 96.7122 212.761 96.6649 212.745C96.6176 212.728 96.5748 212.701 96.54 212.664C96.5052 212.628 96.4794 212.584 96.4646 212.536C96.4498 212.489 96.4464 212.438 96.4547 212.388L100.753 170.517C100.759 170.475 100.774 170.435 100.796 170.399C100.818 170.363 100.847 170.332 100.881 170.307C100.916 170.283 100.955 170.265 100.996 170.256C101.037 170.247 101.08 170.246 101.121 170.254C101.205 170.268 101.28 170.315 101.329 170.384C101.378 170.454 101.398 170.54 101.384 170.624L97.1605 212.065L173.582 195.469C173.623 195.458 173.666 195.455 173.708 195.46C173.751 195.466 173.791 195.48 173.828 195.501C173.865 195.523 173.897 195.552 173.923 195.586C173.948 195.62 173.967 195.659 173.977 195.701L180.192 236.932C180.212 237.013 180.199 237.099 180.157 237.171C180.115 237.242 180.047 237.295 179.966 237.317L72.616 262.677C72.6022 262.679 72.5883 262.68 72.5744 262.68Z" fill="#0C0C0C"/>
<path d="M317.893 75.9127C313.67 68.7593 304.108 67.9003 296.973 72.1355L296.521 72.4172L296.218 71.9271C291.851 64.8602 282.948 61.1748 275.9 65.5524C272.515 67.6548 270.103 71.0189 269.192 74.9046C268.281 78.7904 268.947 82.8796 271.044 86.2731L285.551 109.249C286.021 109.994 286.765 110.524 287.622 110.724C288.479 110.924 289.38 110.778 290.131 110.318L313.153 96.201C316.401 94.0852 318.707 90.7928 319.59 87.012C320.474 83.2312 319.865 79.2544 317.893 75.9127Z" fill="#ED7373"/>
<path opacity="0.2" d="M317.893 75.9127C313.67 68.7593 304.108 67.9003 296.973 72.1355L296.521 72.4172L296.218 71.9271C291.851 64.8602 282.948 61.1748 275.9 65.5524C272.515 67.6548 270.103 71.0189 269.192 74.9046C268.281 78.7904 268.947 82.8796 271.044 86.2731L285.551 109.249C286.021 109.994 286.765 110.524 287.622 110.724C288.479 110.924 289.38 110.778 290.131 110.318L313.153 96.201C316.401 94.0852 318.707 90.7928 319.59 87.012C320.474 83.2312 319.865 79.2544 317.893 75.9127Z" fill="white"/>
<path d="M254.843 8.44609C251.007 6.19505 246.303 8.28572 244.058 12.1316L243.919 12.3811L243.65 12.231C239.769 10.0576 234.641 10.6516 232.473 14.5404C231.957 15.4655 231.628 16.4834 231.505 17.5359C231.382 18.5885 231.466 19.6551 231.754 20.6748C232.042 21.6945 232.528 22.6473 233.183 23.4788C233.838 24.3104 234.651 25.0043 235.574 25.5211L248.334 32.5065C248.748 32.7331 249.235 32.7874 249.688 32.6576C250.142 32.5279 250.526 32.2245 250.759 31.813L257.886 19.192C258.86 17.3532 259.087 15.2083 258.52 13.2056C257.952 11.203 256.635 9.49767 254.843 8.44609Z" fill="#F3B4C4"/>
<path opacity="0.5" d="M254.843 8.44609C251.007 6.19505 246.303 8.28572 244.058 12.1316L243.919 12.3811L243.65 12.231C239.769 10.0576 234.641 10.6516 232.473 14.5404C231.957 15.4655 231.628 16.4834 231.505 17.5359C231.382 18.5885 231.466 19.6551 231.754 20.6748C232.042 21.6945 232.528 22.6473 233.183 23.4788C233.838 24.3104 234.651 25.0043 235.574 25.5211L248.334 32.5065C248.748 32.7331 249.235 32.7874 249.688 32.6576C250.142 32.5279 250.526 32.2245 250.759 31.813L257.886 19.192C258.86 17.3532 259.087 15.2083 258.52 13.2056C257.952 11.203 256.635 9.49767 254.843 8.44609Z" fill="white"/>
<path d="M315.583 263.321H33.2772C33.1075 263.321 32.9447 263.254 32.8247 263.133C32.7047 263.013 32.6373 262.85 32.6373 262.68C32.6373 262.51 32.7047 262.346 32.8247 262.226C32.9447 262.106 33.1075 262.038 33.2772 262.038H315.585C315.754 262.038 315.917 262.106 316.037 262.226C316.157 262.346 316.224 262.51 316.224 262.68C316.224 262.85 316.157 263.013 316.037 263.133C315.917 263.254 315.754 263.321 315.585 263.321H315.583Z" fill="#E7E7E7"/>
</svg>
