<svg width="166" height="164" viewBox="0 0 166 164" fill="none" xmlns="http://www.w3.org/2000/svg">
<rect width="166" height="164" fill="#1E1E1E"/>
<g id="Favorites" clip-path="url(#clip0_0_1)">
<rect width="390" height="844" transform="translate(-18 -583)" fill="white"/>
<g id="Bottom menu">
<g id="Rectangle 18" filter="url(#filter0_f_0_1)">
<rect x="-18" y="196" width="390" height="65" fill="black" fill-opacity="0.1"/>
</g>
</g>
</g>
<g id="qte1">
<rect id="Rectangle 59" opacity="0.5" width="166" height="164" rx="8" fill="#FFECF0"/>
<path id="symbol" fill-rule="evenodd" clip-rule="evenodd" d="M85.9253 63.4631C86.7917 64.8504 86.0749 66.6802 84.6153 67.4183C83.7224 67.8698 82.875 68.4003 82.073 69.0099C80.4077 70.2755 78.9873 71.7359 77.8118 73.391C76.6364 74.9488 75.7548 76.6526 75.167 78.5024C75.156 78.5372 75.1451 78.5719 75.1343 78.6067C74.2293 81.5253 76.8902 83.9058 79.9459 83.9058H80.0571C81.9706 83.9058 83.8409 84.7912 84.6088 86.5438C84.7526 86.872 84.8869 87.2097 85.0116 87.5568C85.5014 88.9198 85.7463 90.1368 85.7463 91.2078C85.7463 92.8629 85.5014 94.4693 85.0116 96.0271C84.8831 96.4102 84.7445 96.7833 84.5958 97.1464C83.8375 98.9972 81.9014 99.9701 79.9013 99.9701H70.5776C68.1894 99.9701 65.9779 98.5685 65.266 96.2889C64.5502 93.9972 64.1282 91.768 64 89.6013C64 84.0519 65.0285 79.4273 67.0856 75.7277C69.2407 71.9306 71.8365 68.9125 74.8732 66.6732C77.5204 64.6999 80.3423 63.2821 83.3389 62.4198C84.3337 62.1335 85.377 62.5851 85.9253 63.4631ZM83.7157 101.825C83.4862 101.825 83.2781 101.689 83.1885 101.478C83.1696 101.433 83.1508 101.389 83.1321 101.344C83.0425 101.131 83.1421 100.885 83.3542 100.792C83.3771 100.782 83.4009 100.774 83.4251 100.768L83.5851 100.73C84.1444 100.594 84.6386 100.257 84.9318 99.7618C85.552 98.7139 86.0676 97.5721 86.4809 96.3397L86.4839 96.3309L86.4867 96.322C87.0069 94.6674 87.2666 92.9614 87.2666 91.2078C87.2666 89.9915 86.9895 88.659 86.474 87.2242C86.0118 85.9379 85.4221 84.7637 84.7016 83.7067C84.5283 83.4524 84.2876 83.2528 84.0119 83.1161C83.7469 82.9847 83.4552 82.9164 83.1595 82.9164H82.9111C80.9628 82.9164 79.528 81.0642 80.3146 79.2819C80.5735 78.6954 80.8547 78.129 81.1584 77.5829C83.3135 73.7859 85.9093 70.7677 88.9459 68.5285C91.5932 66.5551 94.4151 65.1373 97.4117 64.275C98.4065 63.9887 99.4498 64.4403 99.9981 65.3183C100.864 66.7056 100.148 68.5355 98.6881 69.2735C97.7952 69.725 96.9477 70.2555 96.1457 70.8651C94.4805 72.1308 93.0601 73.5911 91.8846 75.2463C90.7092 76.804 89.8276 78.5078 89.2398 80.3576C89.2288 80.3924 89.2179 80.4271 89.2071 80.4619C88.3021 83.3806 90.963 85.761 94.0187 85.761H94.1299C96.0434 85.761 97.9137 86.6464 98.6816 88.399C98.8254 88.7272 98.9597 89.0649 99.0844 89.412C99.5742 90.7751 99.8191 91.992 99.8191 93.063C99.8191 94.7181 99.5742 96.3245 99.0844 97.8823C98.9559 98.2654 98.8173 98.6386 98.6686 99.0016C97.9103 100.852 95.9742 101.825 93.9741 101.825H83.7157Z" fill="url(#paint0_linear_0_1)" fill-opacity="0.3"/>
</g>
<defs>
<filter id="filter0_f_0_1" x="-68" y="146" width="490" height="165" filterUnits="userSpaceOnUse" color-interpolation-filters="sRGB">
<feFlood flood-opacity="0" result="BackgroundImageFix"/>
<feBlend mode="normal" in="SourceGraphic" in2="BackgroundImageFix" result="shape"/>
<feGaussianBlur stdDeviation="25" result="effect1_foregroundBlur_0_1"/>
</filter>
<linearGradient id="paint0_linear_0_1" x1="82.8646" y1="62" x2="82.8646" y2="101.825" gradientUnits="userSpaceOnUse">
<stop stop-color="#F3B4C4"/>
<stop offset="0.385417" stop-color="#FAA6C1"/>
<stop offset="0.953125" stop-color="#B79DE4"/>
</linearGradient>
<clipPath id="clip0_0_1">
<rect width="390" height="844" fill="white" transform="translate(-18 -583)"/>
</clipPath>
</defs>
</svg>
