<svg width="32" height="36" viewBox="0 0 32 36" fill="none" xmlns="http://www.w3.org/2000/svg">
<g id="profile_privacy_policy" clip-path="url(#clip0_474_37)">
<path id="Vector" d="M30.4617 14.1925C30.4617 22.1803 20.5182 34.0795 15.9984 34.0795C11.4787 34.0795 1.53516 22.1803 1.53516 14.1925C1.53516 13.1926 1.63663 10.7652 1.82983 8.75877C1.99497 7.04387 3.22932 5.7403 4.86126 5.18812C15.6515 1.53711 13.4728 1.53711 15.9984 1.53711C18.524 1.53711 16.3454 1.53711 27.1356 5.18812C28.7675 5.7403 30.0019 7.04387 30.167 8.75877C30.3602 10.7652 30.4617 13.1926 30.4617 14.1925Z" fill="white" fill-opacity="0.12"/>
<path id="Vector_2" fill-rule="evenodd" clip-rule="evenodd" d="M17.0182 3.10664C16.8632 3.07897 16.6833 3.07351 16 3.07351C15.3167 3.07352 15.1368 3.07897 14.9818 3.10664C14.8474 3.13064 14.6929 3.17894 14.1106 3.41625C14.0278 3.44998 13.9395 3.48617 13.8447 3.52499C12.6392 4.01884 10.3946 4.93838 5.35537 6.64345C4.17987 7.0412 3.45724 7.90683 3.36105 8.90575C3.17208 10.8682 3.07345 13.2461 3.07345 14.1922C3.07345 17.6731 5.30724 22.3076 8.29231 26.1952C9.7588 28.1051 11.3391 29.7446 12.7868 30.8899C14.3132 32.0976 15.4255 32.5424 16 32.5424C16.5745 32.5424 17.6868 32.0976 19.2132 30.8899C20.6609 29.7446 22.2412 28.1051 23.7077 26.1952C26.6928 22.3076 28.9266 17.6731 28.9266 14.1922C28.9266 13.2461 28.8279 10.8682 28.639 8.90575C28.5428 7.90683 27.8201 7.0412 26.6446 6.64345C21.6055 4.93839 19.3608 4.01884 18.1553 3.525C18.0605 3.48617 17.9722 3.44998 17.8894 3.41624C17.3071 3.17894 17.1526 3.13064 17.0182 3.10664ZM19.3143 0.678502C20.4878 1.15938 22.6743 2.05544 27.6297 3.73215C29.7181 4.43877 31.4642 6.18027 31.6982 8.61116C31.8957 10.6616 32 13.1383 32 14.1922C32 18.6991 29.262 24.0081 26.1454 28.067C24.5611 30.1304 22.808 31.9649 21.1201 33.3003C19.511 34.5733 17.6854 35.6159 16 35.6159C14.3146 35.6159 12.489 34.5733 10.8799 33.3003C9.19197 31.9649 7.43894 30.1304 5.85458 28.067C2.73796 24.0081 0 18.6991 0 14.1922C0 13.1383 0.104306 10.6616 0.301753 8.61116C0.53583 6.18027 2.28192 4.43877 4.37029 3.73215C9.32568 2.05543 11.5122 1.15938 12.6857 0.6785C12.7803 0.639729 12.8683 0.603656 12.9507 0.57009C13.4882 0.351022 13.937 0.171136 14.4416 0.08104C14.8983 -0.000503615 15.3646 -0.000254047 15.9026 3.3995e-05C15.9348 5.12366e-05 15.9673 6.85859e-05 16 6.85859e-05C16.0327 6.85859e-05 16.0652 5.11288e-05 16.0974 3.38873e-05C16.6354 -0.000254693 17.1017 -0.000504911 17.5584 0.0810387C18.063 0.171134 18.5118 0.35102 19.0493 0.570089C19.1317 0.603655 19.2197 0.639729 19.3143 0.678502Z" fill="#606269"/>
</g>
<defs>
<clipPath id="clip0_474_37">
<rect width="32" height="36" fill="white"/>
</clipPath>
</defs>
</svg>
