<svg width="32" height="29" viewBox="0 0 32 29" fill="none" xmlns="http://www.w3.org/2000/svg">
<path d="M3.26854 12.8019L13.702 25.322C14.8991 26.7586 17.1056 26.7586 18.3028 25.322L28.7362 12.8019C30.6558 10.4984 30.8316 7.20664 29.1684 4.71175C26.4675 0.660498 20.5015 0.699076 17.8532 4.78491L16.0024 7.64054L14.1515 4.7849C11.5033 0.699075 5.5372 0.660499 2.83637 4.71175C1.17311 7.20664 1.34895 10.4984 3.26854 12.8019Z" fill="black" fill-opacity="0.12"/>
<path fill-rule="evenodd" clip-rule="evenodd" d="M12.7252 5.70787C10.7407 2.64602 6.26981 2.61712 4.24586 5.65305C2.99944 7.52268 3.13121 9.98945 4.56972 11.7157L15.0032 24.2358C15.5219 24.8583 16.4781 24.8583 16.9968 24.2358L27.4303 11.7157C28.8688 9.98945 29.0006 7.52268 27.7541 5.65305C25.7302 2.61712 21.2593 2.64602 19.2748 5.70788L17.4239 8.56351C17.1111 9.04612 16.5751 9.33744 16 9.33744C15.4249 9.33744 14.8889 9.04612 14.5761 8.56351L12.7252 5.70787ZM1.42214 3.77057C4.79985 -1.29599 12.2611 -1.24774 15.573 3.86206L16 4.52081L16.427 3.86207C19.7389 -1.24774 27.2001 -1.29599 30.5779 3.77057C32.658 6.89074 32.4381 11.0074 30.0374 13.8882L19.6039 26.4084C17.7284 28.659 14.2716 28.659 12.3961 26.4084L1.96262 13.8882C-0.438055 11.0074 -0.657964 6.89073 1.42214 3.77057Z" fill="black"/>
</svg>
