<svg width="41" height="32" viewBox="0 0 41 32" fill="none" xmlns="http://www.w3.org/2000/svg">
<path d="M10.5803 1.67883H18.4816C22.8453 1.67883 26.3828 5.21632 26.3828 9.58006V11.9081V21.1145V22.4196C26.3828 26.7833 22.8453 30.3208 18.4816 30.3208H10.5803C6.21661 30.3208 2.67911 26.7833 2.67911 22.4196V9.58006C2.67911 5.21633 6.21661 1.67883 10.5803 1.67883Z" fill="#E20000" fill-opacity="0.17"/>
<path fill-rule="evenodd" clip-rule="evenodd" d="M18.7773 16.4934C18.7773 17.4206 19.5291 18.1724 20.4564 18.1724L36.2588 18.1724C37.1861 18.1724 37.9378 17.4206 37.9378 16.4934C37.9378 15.5661 37.1861 14.8143 36.2588 14.8143L20.4564 14.8143C19.5291 14.8143 18.7773 15.5661 18.7773 16.4934Z" fill="#E40000"/>
<path fill-rule="evenodd" clip-rule="evenodd" d="M31.1253 23.6067C31.781 24.2624 32.844 24.2624 33.4997 23.6067L38.0562 19.0503C39.4833 17.6231 39.4833 15.3094 38.0562 13.8823L33.5232 9.34923C32.8675 8.69354 31.8044 8.69354 31.1487 9.34923C30.493 10.0049 30.493 11.068 31.1487 11.7237L35.6817 16.2567C35.7974 16.3725 35.7974 16.5601 35.6817 16.6758L31.1253 21.2322C30.4696 21.8879 30.4696 22.951 31.1253 23.6067Z" fill="#E40000"/>
<path fill-rule="evenodd" clip-rule="evenodd" d="M24.7025 22.4198C24.7025 25.8562 21.9167 28.642 18.4803 28.642H10.5791C7.14263 28.642 4.35684 25.8562 4.35684 22.4198V9.58024C4.35684 6.14381 7.14262 3.35802 10.5791 3.35802H18.4803C21.9167 3.35802 24.7025 6.1438 24.7025 9.58024V11.9083C24.7025 12.8356 25.4542 13.5873 26.3815 13.5873C27.3088 13.5873 28.0605 12.8356 28.0605 11.9083V9.58024C28.0605 4.28922 23.7713 9.09524e-08 18.4803 9.09524e-08H10.5791C5.28804 9.09524e-08 0.998815 4.28922 0.998815 9.58024V22.4198C0.998815 27.7108 5.28804 32 10.5791 32H18.4803C23.7713 32 28.0605 27.7108 28.0605 22.4198V21.1146C28.0605 20.1873 27.3088 19.4356 26.3815 19.4356C25.4542 19.4356 24.7025 20.1873 24.7025 21.1146V22.4198Z" fill="#E40000"/>
</svg>
