<svg width="32" height="32" viewBox="0 0 32 32" fill="none" xmlns="http://www.w3.org/2000/svg">
<path d="M30.4637 15.9994C30.4637 23.9873 23.9882 30.4627 16.0004 30.4627C8.01254 30.4627 1.53711 23.9873 1.53711 15.9994C1.53711 8.01156 8.01254 1.53613 16.0004 1.53613C23.9882 1.53613 30.4637 8.01156 30.4637 15.9994Z" fill="black" fill-opacity="0.12"/>
<path fill-rule="evenodd" clip-rule="evenodd" d="M16 3.07345C8.86086 3.07345 3.07345 8.86086 3.07345 16C3.07345 23.1391 8.86086 28.9266 16 28.9266C23.1391 28.9266 28.9266 23.1391 28.9266 16C28.9266 8.86086 23.1391 3.07345 16 3.07345ZM0 16C0 7.16344 7.16344 0 16 0C24.8366 0 32 7.16344 32 16C32 24.8366 24.8366 32 16 32C7.16344 32 0 24.8366 0 16Z" fill="black"/>
<path fill-rule="evenodd" clip-rule="evenodd" d="M16.0023 14.4639C16.851 14.4639 17.5391 15.1519 17.5391 16.0006L17.5391 21.4243C17.5391 22.273 16.851 22.961 16.0023 22.961C15.1536 22.961 14.4656 22.273 14.4656 21.4243L14.4656 16.0006C14.4656 15.1519 15.1536 14.4639 16.0023 14.4639Z" fill="black"/>
<path d="M17.8111 10.5765C17.8111 11.5749 17.0017 12.3844 16.0032 12.3844C15.0047 12.3844 14.1953 11.5749 14.1953 10.5765C14.1953 9.57798 15.0047 8.76855 16.0032 8.76855C17.0017 8.76855 17.8111 9.57798 17.8111 10.5765Z" fill="black"/>
</svg>
