<svg width="32" height="32" viewBox="0 0 32 32" fill="none" xmlns="http://www.w3.org/2000/svg">
<g id="profile_settings" clip-path="url(#clip0_474_43)">
<path id="Vector" fill-rule="evenodd" clip-rule="evenodd" d="M19.5258 3.35199V4.52496C19.5258 5.81214 20.2196 6.99938 21.3411 7.63113C22.4274 8.24305 23.7544 8.24305 24.8407 7.63113L26.1803 6.87647C27.0522 6.38531 28.1722 6.68532 28.6818 7.54655L30.1296 9.99336C30.6392 10.8546 30.3456 11.9509 29.4737 12.4421L27.7153 13.4326C26.7884 13.9548 26.2149 14.936 26.2149 16C26.2149 17.0639 26.7884 18.0452 27.7153 18.5673L29.4733 19.5576C30.3452 20.0488 30.6388 21.1451 30.1292 22.0063L28.6814 24.4531C28.1718 25.3144 27.0518 25.6144 26.1799 25.1232L24.8406 24.3688C23.7543 23.7568 22.4272 23.7568 21.3409 24.3688C20.2193 25.0006 19.5254 26.1879 19.5254 27.4752V28.6478C19.5254 29.6485 18.7141 30.4597 17.7134 30.4597H14.7507C13.75 30.4597 12.9387 29.6485 12.9387 28.6478V27.6332C12.9387 26.248 12.192 24.9704 10.9852 24.2905C9.81617 23.632 8.38812 23.632 7.21914 24.2905L5.74087 25.1232C4.86898 25.6144 3.74905 25.3144 3.23943 24.4532L1.79158 22.0063C1.28196 21.1451 1.57565 20.0488 2.44754 19.5576L5.01672 18.1104C5.77869 17.6811 6.25011 16.8745 6.25011 16C6.25011 15.1254 5.77869 14.3188 5.01672 13.8896L2.44716 12.4421C1.57527 11.9509 1.28159 10.8546 1.7912 9.99337L3.23905 7.54656C3.74867 6.68533 4.8686 6.38533 5.74049 6.87648L7.21872 7.7092C8.38787 8.3678 9.81613 8.3678 10.9853 7.7092C12.1923 7.02924 12.9391 5.75142 12.9391 4.36603V3.35199C12.9391 2.35128 13.7504 1.54004 14.7511 1.54004H16.2324H17.7138C18.7145 1.54004 19.5258 2.35128 19.5258 3.35199Z" fill="white" fill-opacity="0.12"/>
<path id="Vector_2" fill-rule="evenodd" clip-rule="evenodd" d="M11.3984 3.35211C11.3984 1.50079 12.8992 0 14.7505 0H17.7132C19.5646 0 21.0653 1.50079 21.0653 3.35211V4.52508C21.0653 5.25619 21.4595 5.93053 22.0964 6.28936C22.7134 6.63692 23.4672 6.63692 24.0842 6.28936L25.4238 5.53469C27.0257 4.63233 29.0704 5.18007 30.0067 6.76234L31.4545 9.20915C32.4039 10.8135 31.8532 12.8691 30.229 13.7841L28.4706 14.7746C28.0282 15.0238 27.7544 15.4922 27.7544 16.0001C27.7544 16.5079 28.0282 16.9763 28.4706 17.2256L30.2286 18.2159C31.8528 19.1308 32.4034 21.1865 31.4541 22.7908L30.0063 25.2376C29.07 26.8199 27.0253 27.3676 25.4234 26.4652L24.0841 25.7108C23.4671 25.3632 22.7133 25.3632 22.0962 25.7108C21.4591 26.0697 21.065 26.7441 21.065 27.4753V28.6479C21.065 30.4992 19.5642 32 17.7128 32H14.7501C12.8988 32 11.398 30.4992 11.398 28.6479V27.6333C11.398 26.8042 10.951 26.0395 10.2287 25.6325C9.52895 25.2384 8.67417 25.2384 7.97446 25.6325L6.4962 26.4653C4.89434 27.3676 2.84964 26.8199 1.91336 25.2376L0.465508 22.7908C-0.483822 21.1865 0.0668507 19.1308 1.69104 18.2159L4.26022 16.7686C4.53769 16.6123 4.70936 16.3186 4.70936 16.0001C4.70936 15.6816 4.53769 15.3879 4.26022 15.2316L1.69066 13.7841C0.0664697 12.8692 -0.484197 10.8135 0.465131 9.20916L1.91298 6.76235C2.84926 5.18008 4.89396 4.63235 6.49582 5.53471L7.97405 6.36742C8.67392 6.76167 9.5289 6.76167 10.2288 6.36742C10.9513 5.96039 11.3984 5.19547 11.3984 4.36615V3.35211ZM14.7505 3.08032C14.6004 3.08032 14.4787 3.202 14.4787 3.35211V4.36615C14.4787 6.30762 13.4321 8.09833 11.7406 9.05121C10.1022 9.97417 8.10064 9.97417 6.46222 9.05121L4.98399 8.21849C4.84207 8.13854 4.64691 8.19082 4.56395 8.33101L3.1161 10.7778C3.0462 10.896 3.0829 11.0329 3.20249 11.1003L5.77205 12.5478C7.01851 13.2499 7.78968 14.5695 7.78968 16.0001C7.78968 17.4307 7.01851 18.7502 5.77205 19.4524L3.20287 20.8997C3.08327 20.967 3.04658 21.104 3.11648 21.2221L4.56433 23.6689C4.64728 23.8091 4.84244 23.8614 4.98437 23.7815L6.46264 22.9487C8.10089 22.0259 10.1022 22.0259 11.7405 22.9487C13.4319 23.9015 14.4783 25.692 14.4783 27.6333V28.6479C14.4783 28.798 14.6 28.9197 14.7501 28.9197H17.7128C17.863 28.9197 17.9846 28.798 17.9846 28.6479V27.4753C17.9846 25.6319 18.9783 23.9317 20.5844 23.027C22.14 22.1507 24.0404 22.1507 25.596 23.027L26.9353 23.7815C27.0772 23.8614 27.2723 23.8091 27.3553 23.6689L28.8032 21.2221C28.8731 21.104 28.8364 20.967 28.7168 20.8996L26.9588 19.9094C25.5474 19.1143 24.6741 17.6201 24.6741 16.0001C24.6741 14.3801 25.5474 12.8859 26.9588 12.0908L28.7172 11.1003C28.8368 11.0329 28.8735 10.8959 28.8036 10.7778L27.3557 8.331C27.2728 8.19081 27.0776 8.13853 26.9357 8.21848L25.596 8.97314C24.0405 9.84941 22.1402 9.84941 20.5846 8.97315C18.9786 8.06847 17.985 6.36834 17.985 4.52508V3.35211C17.985 3.202 17.8633 3.08032 17.7132 3.08032H14.7505Z" fill="#606269"/>
<path id="Vector_3" fill-rule="evenodd" clip-rule="evenodd" d="M15.9254 17.7393C16.8862 17.7393 17.665 16.9604 17.665 15.9996C17.665 15.0389 16.8862 14.26 15.9254 14.26C14.9646 14.26 14.1858 15.0389 14.1858 15.9996C14.1858 16.9604 14.9646 17.7393 15.9254 17.7393ZM15.9254 20.8196C18.5874 20.8196 20.7454 18.6616 20.7454 15.9996C20.7454 13.3377 18.5874 11.1797 15.9254 11.1797C13.2634 11.1797 11.1055 13.3377 11.1055 15.9996C11.1055 18.6616 13.2634 20.8196 15.9254 20.8196Z" fill="#606269"/>
</g>
<defs>
<clipPath id="clip0_474_43">
<rect width="32" height="32" fill="white"/>
</clipPath>
</defs>
</svg>
