<svg width="141" height="66" viewBox="0 0 141 66" fill="none" xmlns="http://www.w3.org/2000/svg">
<g id="Group 8">
<path id="Vector" d="M77.7375 14.2661C76.7981 13.6541 76.015 13.0632 75.1706 12.5389C74.615 12.1619 74.0262 11.8364 73.4115 11.5663C72.4816 11.1918 71.5666 11.1918 71.0226 12.2292C70.841 12.6154 70.8192 13.0577 70.9621 13.4598C71.1051 13.8619 71.401 14.1913 71.7856 14.3762C72.6049 14.9565 73.4405 15.4903 74.6054 16.2488L72.4734 18.0725C67.9905 21.9667 64.4942 26.5075 63.4812 32.5135C62.2917 39.5971 64.5387 45.4451 70.4089 49.6934C75.3652 53.2828 81.115 54.7545 87.1075 55.4295C91.5218 56.0623 96.0131 55.9104 100.375 54.9808C101.649 54.6516 102.885 54.1881 104.061 53.598C104.67 53.3136 105.158 52.8244 105.442 52.216C105.551 51.9177 105.591 51.5985 105.557 51.2827C105.524 50.9669 105.419 50.6629 105.251 50.3938C105.009 50.1952 104.72 50.0621 104.412 50.0071C104.103 49.9522 103.786 49.9773 103.49 50.08C98.8683 53.0099 93.7912 52.3439 88.8072 51.9487C83.6084 51.6526 78.5443 50.1817 73.9958 47.6467C67.5973 43.9137 65.2732 37.2819 67.8863 30.3334C69.1838 26.8499 71.3928 23.7786 74.2826 21.4403C84.9152 12.7801 109.073 11.0472 121.939 16.1225C128.855 18.8558 133.668 23.8875 135.563 31.2227C137.069 37.0821 136.011 42.422 131.61 46.7429C124.871 53.5284 103.695 57.1926 94.2068 58.3842C93.4522 58.3975 92.7057 58.542 92.0006 58.8111C91.6873 58.9676 91.4089 59.1859 91.1821 59.4529C90.9554 59.7198 90.785 60.0299 90.6812 60.3644C90.5625 61.2841 91.3379 61.9118 92.2974 61.8826C94.3897 61.9158 96.4809 61.7647 98.5467 61.4311C107.042 59.5835 127.221 56.0932 133.5 50.08C140.174 43.7742 141.489 36.1915 138.398 27.7514C136.362 22.0725 132.298 17.3471 126.988 14.4839C115.758 8.23608 91.8641 7.86321 80.3065 13.0745C79.396 13.4128 78.5812 13.8572 77.7375 14.2661Z" fill="#F9D5DE"/>
<path id="Vector_2" d="M7.56638 20.6683L9.91398 18.7445C10.3656 18.3696 11.0215 18.0688 11.2034 17.5858C11.488 16.9394 11.5176 16.2094 11.2863 15.5421C10.9359 14.7876 10.0556 14.7405 9.31389 15.1819C8.3394 15.7516 7.39525 16.3933 5.89607 17.3408C6.40903 15.7557 6.70716 14.7464 7.07033 13.7621C7.4335 12.7777 7.41959 11.7443 6.31681 11.1663C5.38249 10.6822 4.38022 11.2438 3.90708 12.681C3.0938 15.2205 2.2809 17.7691 1.57065 20.3686C1.07926 22.2639 1.72602 23.1072 3.65897 23.6245L10.7195 25.3822C10.9691 25.4454 11.2015 25.5367 11.4507 25.5908C11.8965 25.7318 12.3793 25.6967 12.8 25.4926C13.2206 25.2886 13.5472 24.9312 13.7124 24.4938C14.1326 23.5621 13.6364 22.5938 12.4561 22.1378C11.0073 21.6011 9.48325 21.2412 7.56638 20.6683Z" fill="#F9D5DE"/>
<path id="Vector_3" d="M38.4857 8.18588C39.785 7.96002 41.5126 7.68957 43.2186 7.33765C44.1715 7.14396 44.9575 6.66418 44.8745 5.50552C44.8357 4.53723 43.9891 3.95812 42.6496 4.09409C41.0006 4.2699 39.3567 4.57358 37.7208 4.8495C35.9034 5.16014 35.2216 5.72726 35.3276 6.7752C35.4336 7.82314 36.2404 8.32151 38.4857 8.18588Z" fill="#F9D5DE"/>
<path id="Vector_4" d="M13.5628 13.2185C13.5263 14.3636 14.3872 15.299 15.3533 14.9767C17.0734 14.3835 18.7369 13.6371 20.3237 12.7466C20.5181 12.5545 20.66 12.3158 20.736 12.0533C20.812 11.7908 20.8194 11.5132 20.7577 11.247C20.5088 10.7446 19.6575 10.0467 19.3235 10.1607C17.4869 10.8496 15.6859 11.6301 13.9274 12.4994C13.7137 12.6452 13.6216 13.088 13.5628 13.2185Z" fill="#F9D5DE"/>
<path id="Vector_5" d="M60.901 5.86512C60.3555 6.40847 59.5491 6.83418 59.4702 7.37716C59.4578 7.72902 59.5352 8.07825 59.695 8.39197C59.8548 8.70569 60.0918 8.9736 60.3837 9.17048C61.7477 9.7868 64.1356 10.577 65.6083 10.8437C65.9451 10.8672 66.2828 10.8126 66.595 10.6843C66.9073 10.5559 67.1857 10.3573 67.4086 10.1037C67.5249 9.92461 67.5996 9.72163 67.627 9.50979C67.6543 9.29795 67.6338 9.08265 67.5668 8.87982C67.4999 8.67698 67.3882 8.49179 67.2401 8.3379C67.0919 8.184 66.7001 7.57465 66.5 7.5C64.289 6.0093 63.5 6.5 60.901 5.86512Z" fill="#F9D5DE"/>
<path id="Vector_6" d="M53.717 7.66764C54.6762 7.62924 55.5988 7.59232 55.8903 6.41867C56.137 5.49385 55.5366 4.66697 54.1733 4.43791C52.8738 4.19962 51.547 4.14799 50.2329 4.28457C49.8749 4.30231 49.5358 4.4509 49.2801 4.70212C49.0245 4.95333 48.8699 5.2897 48.8459 5.64735C48.8218 6.00499 48.9299 6.35902 49.1496 6.64222C49.3694 6.92542 49.6855 7.11808 50.0379 7.18361C51.2475 7.45354 52.4787 7.61552 53.717 7.66764Z" fill="#F9D5DE"/>
<path id="Vector_7" d="M26.4075 10.9019C27.9173 10.4014 29.3969 9.81371 30.8386 9.14166C31.0693 8.92629 31.2482 8.66131 31.3616 8.36672C31.475 8.07213 31.5201 7.75562 31.4933 7.44109C31.4726 7.24944 31.4085 7.06502 31.306 6.90179C31.2035 6.73856 31.0652 6.60081 30.9015 6.49893C30.7379 6.39705 30.5532 6.33372 30.3615 6.31376C30.1698 6.29379 29.976 6.3177 29.7949 6.38368C28.4029 6.67185 27.0461 7.10962 25.7482 7.68936C25.2184 7.93931 24.5914 8.96172 24.7274 9.38631C24.9353 10.0093 25.8112 10.4042 26.4075 10.9019Z" fill="#F9D5DE"/>
</g>
</svg>
