<svg width="252" height="304" viewBox="0 0 252 304" fill="none" xmlns="http://www.w3.org/2000/svg">
<g clip-path="url(#clip0_41_2)">
<path d="M239.289 0.386078H34.0414C27.2353 0.386078 21.7179 5.89572 21.7179 12.6922V173.982C21.7179 180.779 27.2353 186.288 34.0414 186.288H239.289C246.096 186.288 251.613 180.779 251.613 173.982V12.6922C251.613 5.89572 246.096 0.386078 239.289 0.386078Z" fill="white"/>
<path d="M239.289 186.675H34.0414C30.6714 186.671 27.4405 185.333 25.0575 182.953C22.6746 180.574 21.3342 177.347 21.3306 173.982V12.6929C21.3342 9.32765 22.6746 6.10128 25.0575 3.72169C27.4405 1.34209 30.6714 0.00363978 34.0414 0L239.289 0C242.659 0.00373292 245.89 1.34222 248.273 3.72179C250.656 6.10136 251.997 9.32768 252 12.6929V173.982C251.997 177.348 250.656 180.574 248.273 182.953C245.89 185.333 242.659 186.671 239.289 186.675ZM34.0414 0.772504C30.8766 0.776144 27.8425 2.03322 25.6047 4.26795C23.3668 6.50268 22.1081 9.53257 22.1045 12.6929V173.982C22.1082 177.143 23.367 180.172 25.6048 182.407C27.8426 184.642 30.8767 185.899 34.0414 185.902H239.289C242.454 185.899 245.488 184.642 247.726 182.407C249.964 180.172 251.223 177.143 251.226 173.982V12.6929C251.223 9.53254 249.964 6.5026 247.726 4.26785C245.489 2.0331 242.454 0.776051 239.289 0.772504H34.0414Z" fill="#292A2E"/>
<path opacity="0.2" d="M233.595 33.8061H220.993C218.336 33.8061 216.183 35.9564 216.183 38.609V51.1937C216.183 53.8462 218.336 55.9965 220.993 55.9965H233.595C236.251 55.9965 238.405 53.8462 238.405 51.1937V38.609C238.405 35.9564 236.251 33.8061 233.595 33.8061Z" fill="#F3B4C4"/>
<path opacity="0.2" d="M233.986 61.8352H221.481C218.798 61.8352 216.623 64.0072 216.623 66.6864V79.1744C216.623 81.8537 218.798 84.0256 221.481 84.0256H233.986C236.669 84.0256 238.844 81.8537 238.844 79.1744V66.6864C238.844 64.0072 236.669 61.8352 233.986 61.8352Z" fill="#B4B4B4"/>
<path opacity="0.2" d="M233.986 93.0527H221.481C218.798 93.0527 216.623 95.2247 216.623 97.9039V110.392C216.623 113.071 218.798 115.243 221.481 115.243H233.986C236.669 115.243 238.844 113.071 238.844 110.392V97.9039C238.844 95.2247 236.669 93.0527 233.986 93.0527Z" fill="#B4B4B4"/>
<path opacity="0.2" d="M233.547 122.673H221.041C218.358 122.673 216.183 124.845 216.183 127.524V140.012C216.183 142.691 218.358 144.863 221.041 144.863H233.547C236.23 144.863 238.405 142.691 238.405 140.012V127.524C238.405 124.845 236.23 122.673 233.547 122.673Z" fill="#B4B4B4"/>
<g opacity="0.15">
<path d="M142.981 33.8061H130.378C127.722 33.8061 125.569 35.9564 125.569 38.609V51.1937C125.569 53.8462 127.722 55.9965 130.378 55.9965H142.981C145.637 55.9965 147.79 53.8462 147.79 51.1937V38.609C147.79 35.9564 145.637 33.8061 142.981 33.8061Z" fill="#B4B4B4"/>
<path d="M112.776 33.8061H100.173C97.5171 33.8061 95.3638 35.9564 95.3638 38.609V51.1937C95.3638 53.8462 97.5171 55.9965 100.173 55.9965H112.776C115.432 55.9965 117.586 53.8462 117.586 51.1937V38.609C117.586 35.9564 115.432 33.8061 112.776 33.8061Z" fill="#B4B4B4"/>
<path d="M83.0106 33.8061H70.4082C67.7519 33.8061 65.5985 35.9564 65.5985 38.609V51.1937C65.5985 53.8462 67.7519 55.9965 70.4082 55.9965H83.0106C85.6669 55.9965 87.8203 53.8462 87.8203 51.1937V38.609C87.8203 35.9564 85.6669 33.8061 83.0106 33.8061Z" fill="#B4B4B4"/>
<path d="M52.8058 33.8061H40.2033C37.547 33.8061 35.3937 35.9564 35.3937 38.609V51.1937C35.3937 53.8462 37.547 55.9965 40.2033 55.9965H52.8058C55.4621 55.9965 57.6154 53.8462 57.6154 51.1937V38.609C57.6154 35.9564 55.4621 33.8061 52.8058 33.8061Z" fill="#B4B4B4"/>
<path d="M173.185 33.8061H160.583C157.927 33.8061 155.773 35.9564 155.773 38.609V51.1937C155.773 53.8462 157.927 55.9965 160.583 55.9965H173.185C175.842 55.9965 177.995 53.8462 177.995 51.1937V38.609C177.995 35.9564 175.842 33.8061 173.185 33.8061Z" fill="#B4B4B4"/>
<path d="M203.39 33.8061H190.788C188.131 33.8061 185.978 35.9564 185.978 38.609V51.1937C185.978 53.8462 188.131 55.9965 190.788 55.9965H203.39C206.046 55.9965 208.2 53.8462 208.2 51.1937V38.609C208.2 35.9564 206.046 33.8061 203.39 33.8061Z" fill="#B4B4B4"/>
<path d="M143.372 61.8353H130.866C128.183 61.8353 126.008 64.0072 126.008 66.6864V79.1745C126.008 81.8537 128.183 84.0256 130.866 84.0256H143.372C146.055 84.0256 148.23 81.8537 148.23 79.1745V66.6864C148.23 64.0072 146.055 61.8353 143.372 61.8353Z" fill="#B4B4B4"/>
<path d="M173.576 61.8353H161.071C158.388 61.8353 156.213 64.0072 156.213 66.6864V79.1745C156.213 81.8537 158.388 84.0256 161.071 84.0256H173.576C176.26 84.0256 178.435 81.8537 178.435 79.1745V66.6864C178.435 64.0072 176.26 61.8353 173.576 61.8353Z" fill="#B4B4B4"/>
<path d="M203.781 61.8353H191.276C188.593 61.8353 186.418 64.0072 186.418 66.6864V79.1745C186.418 81.8537 188.593 84.0256 191.276 84.0256H203.781C206.464 84.0256 208.639 81.8537 208.639 79.1745V66.6864C208.639 64.0072 206.464 61.8353 203.781 61.8353Z" fill="#B4B4B4"/>
<path d="M52.7574 61.8353H40.2517C37.5687 61.8353 35.3937 64.0072 35.3937 66.6864V79.1745C35.3937 81.8537 37.5687 84.0256 40.2517 84.0256H52.7574C55.4404 84.0256 57.6154 81.8537 57.6154 79.1745V66.6864C57.6154 64.0072 55.4404 61.8353 52.7574 61.8353Z" fill="#B4B4B4"/>
<path d="M82.9622 61.8353H70.4565C67.7735 61.8353 65.5985 64.0072 65.5985 66.6864V79.1745C65.5985 81.8537 67.7735 84.0256 70.4565 84.0256H82.9622C85.6452 84.0256 87.8203 81.8537 87.8203 79.1745V66.6864C87.8203 64.0072 85.6452 61.8353 82.9622 61.8353Z" fill="#B4B4B4"/>
<path d="M113.167 61.8353H100.661C97.9781 61.8353 95.8031 64.0072 95.8031 66.6864V79.1745C95.8031 81.8537 97.9781 84.0256 100.661 84.0256H113.167C115.85 84.0256 118.025 81.8537 118.025 79.1745V66.6864C118.025 64.0072 115.85 61.8353 113.167 61.8353Z" fill="#B4B4B4"/>
<path d="M143.372 93.0527H130.866C128.183 93.0527 126.008 95.2247 126.008 97.9039V110.392C126.008 113.071 128.183 115.243 130.866 115.243H143.372C146.055 115.243 148.23 113.071 148.23 110.392V97.9039C148.23 95.2247 146.055 93.0527 143.372 93.0527Z" fill="#B4B4B4"/>
<path d="M173.576 93.0527H161.071C158.388 93.0527 156.213 95.2247 156.213 97.9039V110.392C156.213 113.071 158.388 115.243 161.071 115.243H173.576C176.26 115.243 178.435 113.071 178.435 110.392V97.9039C178.435 95.2247 176.26 93.0527 173.576 93.0527Z" fill="#B4B4B4"/>
<path d="M203.781 93.0527H191.276C188.593 93.0527 186.418 95.2247 186.418 97.9039V110.392C186.418 113.071 188.593 115.243 191.276 115.243H203.781C206.464 115.243 208.639 113.071 208.639 110.392V97.9039C208.639 95.2247 206.464 93.0527 203.781 93.0527Z" fill="#B4B4B4"/>
<path d="M52.7574 93.0527H40.2517C37.5687 93.0527 35.3937 95.2247 35.3937 97.9039V110.392C35.3937 113.071 37.5687 115.243 40.2517 115.243H52.7574C55.4404 115.243 57.6154 113.071 57.6154 110.392V97.9039C57.6154 95.2247 55.4404 93.0527 52.7574 93.0527Z" fill="#B4B4B4"/>
<path d="M82.9622 93.0527H70.4565C67.7735 93.0527 65.5985 95.2247 65.5985 97.9039V110.392C65.5985 113.071 67.7735 115.243 70.4565 115.243H82.9622C85.6452 115.243 87.8203 113.071 87.8203 110.392V97.9039C87.8203 95.2247 85.6452 93.0527 82.9622 93.0527Z" fill="#B4B4B4"/>
<path d="M113.167 93.0527H100.661C97.9781 93.0527 95.8031 95.2247 95.8031 97.9039V110.392C95.8031 113.071 97.9781 115.243 100.661 115.243H113.167C115.85 115.243 118.025 113.071 118.025 110.392V97.9039C118.025 95.2247 115.85 93.0527 113.167 93.0527Z" fill="#B4B4B4"/>
<path d="M143.372 123.112H130.866C128.183 123.112 126.008 125.284 126.008 127.963V140.451C126.008 143.13 128.183 145.302 130.866 145.302H143.372C146.055 145.302 148.23 143.13 148.23 140.451V127.963C148.23 125.284 146.055 123.112 143.372 123.112Z" fill="#B4B4B4"/>
<path d="M173.137 122.673H160.631C157.948 122.673 155.773 124.845 155.773 127.524V140.012C155.773 142.691 157.948 144.863 160.631 144.863H173.137C175.82 144.863 177.995 142.691 177.995 140.012V127.524C177.995 124.845 175.82 122.673 173.137 122.673Z" fill="#B4B4B4"/>
<path d="M203.342 122.673H190.836C188.153 122.673 185.978 124.845 185.978 127.524V140.012C185.978 142.691 188.153 144.863 190.836 144.863H203.342C206.025 144.863 208.2 142.691 208.2 140.012V127.524C208.2 124.845 206.025 122.673 203.342 122.673Z" fill="#B4B4B4"/>
<path d="M52.7574 123.112H40.2517C37.5687 123.112 35.3937 125.284 35.3937 127.963V140.451C35.3937 143.13 37.5687 145.302 40.2517 145.302H52.7574C55.4404 145.302 57.6154 143.13 57.6154 140.451V127.963C57.6154 125.284 55.4404 123.112 52.7574 123.112Z" fill="#B4B4B4"/>
<path d="M82.9622 123.112H70.4565C67.7735 123.112 65.5985 125.284 65.5985 127.963V140.451C65.5985 143.13 67.7735 145.302 70.4565 145.302H82.9622C85.6452 145.302 87.8203 143.13 87.8203 140.451V127.963C87.8203 125.284 85.6452 123.112 82.9622 123.112Z" fill="#B4B4B4"/>
<path d="M113.167 123.112H100.661C97.9781 123.112 95.8031 125.284 95.8031 127.963V140.451C95.8031 143.13 97.9781 145.302 100.661 145.302H113.167C115.85 145.302 118.025 143.13 118.025 140.451V127.963C118.025 125.284 115.85 123.112 113.167 123.112Z" fill="#B4B4B4"/>
<path d="M142.932 150.338H130.427C127.744 150.338 125.569 152.51 125.569 155.189V167.677C125.569 170.357 127.744 172.529 130.427 172.529H142.932C145.615 172.529 147.79 170.357 147.79 167.677V155.189C147.79 152.51 145.615 150.338 142.932 150.338Z" fill="#B4B4B4"/>
<path d="M52.3178 150.338H39.8121C37.1291 150.338 34.9541 152.51 34.9541 155.189V167.677C34.9541 170.357 37.1291 172.529 39.8121 172.529H52.3178C55.0008 172.529 57.1758 170.357 57.1758 167.677V155.189C57.1758 152.51 55.0008 150.338 52.3178 150.338Z" fill="#B4B4B4"/>
<path d="M82.5227 150.338H70.017C67.3339 150.338 65.1589 152.51 65.1589 155.189V167.677C65.1589 170.357 67.3339 172.529 70.017 172.529H82.5227C85.2057 172.529 87.3807 170.357 87.3807 167.677V155.189C87.3807 152.51 85.2057 150.338 82.5227 150.338Z" fill="#B4B4B4"/>
<path d="M112.727 150.338H100.222C97.5388 150.338 95.3638 152.51 95.3638 155.189V167.677C95.3638 170.357 97.5388 172.529 100.222 172.529H112.727C115.41 172.529 117.586 170.357 117.586 167.677V155.189C117.586 152.51 115.41 150.338 112.727 150.338Z" fill="#B4B4B4"/>
</g>
<path d="M251.613 12.6929V20.5826H21.719V12.6929C21.7185 11.0767 22.0369 9.4762 22.656 7.98287C23.275 6.48955 24.1826 5.13263 25.3269 3.98962C26.4712 2.84662 27.8298 1.93992 29.325 1.32131C30.8203 0.702705 32.423 0.384308 34.0415 0.384308H239.29C240.908 0.384493 242.511 0.703011 244.006 1.32168C245.501 1.94034 246.86 2.84704 248.004 3.99C249.149 5.13295 250.056 6.48979 250.675 7.98304C251.295 9.47629 251.613 11.0767 251.613 12.6929Z" fill="#8A6ACD"/>
<path d="M112.447 152.793H100.502C99.022 152.793 97.822 153.991 97.822 155.469V167.398C97.822 168.876 99.022 170.074 100.502 170.074H112.447C113.928 170.074 115.127 168.876 115.127 167.398V155.469C115.127 153.991 113.928 152.793 112.447 152.793Z" fill="white"/>
<path d="M51.4486 116.331L36.7012 113.666C36.2832 113.591 35.9124 113.352 35.6703 113.004C35.4283 112.655 35.3347 112.225 35.4104 111.808L37.6909 99.2236L42.2301 96.2055L54.6878 98.4571C55.1057 98.5326 55.4766 98.7708 55.7186 99.1194C55.9607 99.4679 56.0542 99.8982 55.9786 100.316L53.3097 115.042C53.2723 115.249 53.1945 115.446 53.0807 115.623C52.9669 115.799 52.8194 115.952 52.6466 116.072C52.4738 116.191 52.279 116.276 52.0735 116.32C51.8679 116.365 51.6556 116.369 51.4486 116.331Z" fill="#F3B4C4"/>
<path opacity="0.29" d="M42.2301 96.2055L37.6909 99.2236L41.5674 99.9912L42.2301 96.2055Z" fill="#FFFFFA"/>
<g opacity="0.88">
<path d="M52.6015 107.745C52.5866 107.745 52.5717 107.744 52.557 107.741L38.7572 105.193C38.699 105.182 38.6473 105.149 38.6137 105.1C38.5801 105.051 38.5673 104.991 38.5781 104.933C38.5888 104.875 38.6223 104.823 38.6711 104.789C38.72 104.756 38.7802 104.743 38.8385 104.754L52.6382 107.302C52.6925 107.312 52.7411 107.342 52.7746 107.386C52.8082 107.43 52.8243 107.484 52.8199 107.539C52.8155 107.594 52.7909 107.646 52.7509 107.684C52.7108 107.722 52.6581 107.743 52.6029 107.745H52.6015Z" fill="white"/>
<path d="M52.1068 110.635C52.0918 110.635 52.0768 110.634 52.062 110.632L38.2626 108.083C38.2328 108.079 38.2041 108.069 38.1784 108.053C38.1526 108.037 38.1303 108.017 38.1128 107.992C38.0952 107.968 38.0828 107.94 38.0762 107.911C38.0696 107.881 38.0691 107.851 38.0745 107.821C38.08 107.792 38.0914 107.764 38.108 107.739C38.1246 107.714 38.1462 107.692 38.1713 107.675C38.1965 107.659 38.2247 107.648 38.2543 107.642C38.284 107.637 38.3144 107.637 38.3438 107.644L52.1432 110.192C52.1978 110.202 52.2468 110.232 52.2808 110.276C52.3147 110.32 52.331 110.375 52.3266 110.43C52.3222 110.485 52.2974 110.537 52.2569 110.575C52.2165 110.613 52.1634 110.634 52.1079 110.635H52.1068Z" fill="white"/>
<path d="M44.0103 111.811C43.9954 111.811 43.9805 111.81 43.9658 111.808L37.8448 110.677C37.815 110.673 37.7864 110.663 37.7606 110.647C37.7349 110.631 37.7126 110.611 37.695 110.586C37.6775 110.562 37.665 110.534 37.6585 110.505C37.6519 110.475 37.6513 110.445 37.6568 110.415C37.6623 110.386 37.6737 110.358 37.6903 110.333C37.7069 110.307 37.7285 110.286 37.7536 110.269C37.7787 110.253 37.807 110.241 37.8366 110.236C37.8662 110.231 37.8967 110.231 37.9261 110.238L44.047 111.369C44.1013 111.379 44.1499 111.409 44.1834 111.452C44.217 111.496 44.2331 111.551 44.2287 111.606C44.2244 111.661 44.1998 111.712 44.1597 111.75C44.1196 111.788 44.0669 111.81 44.0117 111.811H44.0103Z" fill="white"/>
</g>
<path d="M52.6671 105.396C52.6125 105.396 52.558 105.391 52.5043 105.381L49.5183 104.837C49.4006 104.816 49.2882 104.772 49.1877 104.707C49.0871 104.642 49.0005 104.558 48.9326 104.459C48.8647 104.361 48.8171 104.25 48.7923 104.133C48.7675 104.016 48.7661 103.895 48.7882 103.778L49.2899 100.611C49.3334 100.377 49.4675 100.168 49.6634 100.031C49.8593 99.8942 50.1013 99.8396 50.3371 99.8791L53.3323 100.39C53.4511 100.41 53.5647 100.454 53.6666 100.518C53.7684 100.583 53.8564 100.666 53.9254 100.765C53.9944 100.864 54.0431 100.975 54.0685 101.093C54.094 101.21 54.0958 101.332 54.0738 101.45L53.5629 104.651C53.5238 104.86 53.4129 105.049 53.2494 105.185C53.0858 105.321 52.8799 105.395 52.6671 105.396ZM50.185 100.219C50.0553 100.219 49.9298 100.264 49.83 100.347C49.7301 100.43 49.6622 100.544 49.6377 100.671L49.136 103.837C49.1218 103.91 49.1222 103.984 49.137 104.056C49.1518 104.128 49.1808 104.196 49.2222 104.257C49.2637 104.318 49.3169 104.37 49.3786 104.41C49.4403 104.45 49.5094 104.478 49.5819 104.491L52.5679 105.035C52.7123 105.06 52.8608 105.028 52.9816 104.945C53.1024 104.862 53.1857 104.735 53.2137 104.591L53.7253 101.387C53.7389 101.315 53.7379 101.241 53.7225 101.169C53.707 101.097 53.6774 101.028 53.6352 100.968C53.5931 100.907 53.5394 100.856 53.4771 100.816C53.4149 100.777 53.3453 100.75 53.2726 100.738L50.2775 100.226C50.2469 100.221 50.216 100.219 50.185 100.219Z" fill="white"/>
<path d="M102.923 167.137C102.892 167.137 102.86 167.137 102.829 167.133C102.685 167.12 102.546 167.077 102.419 167.007C102.293 166.937 102.183 166.842 102.095 166.727L98.9582 162.607C98.7914 162.388 98.7186 162.112 98.7559 161.839C98.7931 161.566 98.9372 161.32 99.1566 161.153C99.3761 160.986 99.6527 160.914 99.9258 160.951C100.199 160.988 100.446 161.132 100.613 161.351L103.062 164.568L112.461 156C112.561 155.908 112.679 155.837 112.808 155.791C112.936 155.744 113.072 155.724 113.209 155.73C113.345 155.736 113.479 155.769 113.602 155.827C113.726 155.885 113.837 155.966 113.929 156.067C114.021 156.168 114.092 156.285 114.138 156.414C114.185 156.542 114.206 156.678 114.199 156.814C114.193 156.95 114.16 157.084 114.102 157.207C114.044 157.33 113.962 157.441 113.862 157.533L103.622 166.865C103.431 167.04 103.182 167.137 102.923 167.137Z" fill="#F3B4C4"/>
<path d="M239.562 48.2552L227.131 56.6146C226.956 56.7322 226.76 56.8143 226.554 56.8562C226.348 56.898 226.135 56.8989 225.929 56.8586C225.722 56.8184 225.525 56.7378 225.35 56.6216C225.175 56.5054 225.024 56.3557 224.906 56.1813L217.753 45.5742L218.899 40.2503L229.401 33.1884C229.576 33.0709 229.772 32.989 229.978 32.9472C230.184 32.9053 230.397 32.9045 230.603 32.9448C230.81 32.985 231.006 33.0655 231.182 33.1817C231.357 33.2978 231.508 33.4474 231.626 33.6217L239.997 46.035C240.114 46.2093 240.196 46.405 240.238 46.6109C240.28 46.8168 240.28 47.0289 240.24 47.2351C240.2 47.4412 240.119 47.6375 240.003 47.8125C239.886 47.9875 239.737 48.138 239.562 48.2552Z" fill="#D8CBF4"/>
<path opacity="0.29" d="M218.9 40.2499L217.754 45.5742L221.069 43.4249L218.9 40.2499Z" fill="#FFFFFA"/>
<g opacity="0.88">
<path d="M234.392 41.2981C234.381 41.3088 234.37 41.3184 234.357 41.3267L222.687 49.1095C222.638 49.1388 222.579 49.1481 222.523 49.1354C222.467 49.1227 222.418 49.089 222.386 49.0413C222.355 48.9936 222.343 48.9356 222.352 48.8792C222.362 48.8228 222.394 48.7723 222.44 48.7383L234.11 40.9554C234.156 40.9251 234.212 40.9129 234.266 40.9211C234.321 40.9293 234.371 40.9574 234.406 40.9999C234.441 41.0425 234.459 41.0965 234.456 41.1515C234.454 41.2066 234.431 41.2588 234.393 41.2981H234.392Z" fill="white"/>
<path d="M236.056 43.7144C236.045 43.725 236.033 43.7346 236.021 43.7429L224.35 51.5258C224.301 51.5551 224.242 51.5643 224.186 51.5516C224.13 51.539 224.082 51.5053 224.05 51.4576C224.018 51.4099 224.006 51.3518 224.016 51.2954C224.026 51.239 224.057 51.1886 224.103 51.1545L235.773 43.3716C235.82 43.3413 235.875 43.3291 235.93 43.3373C235.984 43.3456 236.034 43.3736 236.069 43.4162C236.104 43.4587 236.122 43.5127 236.12 43.5678C236.117 43.6228 236.095 43.675 236.056 43.7144Z" fill="white"/>
<path d="M231.074 50.1951C231.064 50.2058 231.052 50.2154 231.039 50.2237L225.865 53.6758C225.84 53.6938 225.813 53.7066 225.783 53.7135C225.754 53.7205 225.723 53.7214 225.693 53.7161C225.663 53.7109 225.635 53.6997 225.61 53.6831C225.584 53.6666 225.563 53.645 225.546 53.6199C225.529 53.5947 225.518 53.5664 225.512 53.5366C225.507 53.5069 225.507 53.4763 225.514 53.4468C225.521 53.4173 225.533 53.3895 225.551 53.3651C225.569 53.3406 225.592 53.32 225.618 53.3045L230.794 49.8524C230.84 49.8221 230.896 49.8099 230.95 49.8181C231.005 49.8263 231.055 49.8544 231.09 49.897C231.125 49.9395 231.143 49.9935 231.14 50.0486C231.138 50.1036 231.115 50.1558 231.077 50.1951H231.074Z" fill="white"/>
</g>
<path d="M242.409 304H12.76C12.6944 304 12.6316 303.974 12.5852 303.928C12.5389 303.881 12.5128 303.819 12.5128 303.753C12.5128 303.688 12.5389 303.625 12.5852 303.579C12.6316 303.532 12.6944 303.506 12.76 303.506H242.409C242.475 303.506 242.538 303.532 242.584 303.579C242.63 303.625 242.656 303.688 242.656 303.753C242.656 303.819 242.63 303.881 242.584 303.928C242.538 303.974 242.475 304 242.409 304Z" fill="#D1D1D1"/>
<path d="M200.569 288.426C200.569 288.426 198.975 296.677 191.238 297.138C183.5 297.599 185.179 303.752 185.179 303.752H214.745V289.002L200.569 288.426Z" fill="#F3B4C4"/>
<path d="M209.689 137.899C209.689 137.899 209.596 135.418 209.616 141.045C209.689 162.034 210.76 186.008 211.651 200.037C213.083 222.589 216.049 293.692 216.049 293.692L195.209 293.529L177.791 137.046L209.689 137.899Z" fill="#262626"/>
<path d="M187.334 162.925C187.334 162.925 186.529 178.157 186.381 181.732C186.036 190.002 185.726 198.618 185.726 208.326L182.853 182.823C182.853 182.823 185.093 174.847 187.334 162.925Z" fill="#0A0A0A"/>
<path d="M162.452 288.426C162.452 288.426 160.857 296.677 153.12 297.138C145.383 297.599 147.061 303.752 147.061 303.752H176.628V289.002L162.452 288.426Z" fill="#F3B4C4"/>
<path d="M156.574 139.529C156.574 139.529 154.5 211.968 154.752 215.474L157.74 293.148L178.967 293.5L180.635 211.936C180.635 211.936 180.889 189.436 186.334 168.543C189.119 157.82 190.795 146.84 191.336 135.775L156.574 139.529Z" fill="#262626"/>
<path d="M209.9 137.896L209.963 137.9C209.963 137.9 209.918 136.676 209.9 137.896Z" fill="#333333"/>
<path d="M169.563 76.1888C169.627 76.1807 170.325 87.7619 183.798 86.7521C193.126 86.0544 196.453 76.1722 196.665 76.1722C195.659 75.9607 193.966 75.6486 193.519 75.4107C192.051 74.6226 189.959 73.8025 189.485 70.9544C189.213 69.3128 189.675 60.9147 189.533 59.2536L175.49 62.4449C175.69 65.9527 177.09 74.0846 172.183 75.5256C171.367 75.7618 170.487 75.9811 169.563 76.1888Z" fill="#E98862"/>
<path d="M175.885 67.9158C181.54 68.3516 188.798 65.9558 190.165 58.4212L191.398 51.6227C192.764 44.0884 189.909 37.2639 182.805 35.9791C175.701 34.6939 169.282 39.8416 167.917 47.3759L167.371 50.3855C167.201 51.4222 167.103 52.4692 167.076 53.5193C166.985 56.2941 166.856 60.5145 168.231 63.6144C169.529 66.5411 172.273 67.6377 175.885 67.9158Z" fill="#E98862"/>
<path d="M188.565 35.593C186.321 34.8939 183.993 34.4983 181.643 34.4168C181.566 34.007 181.391 33.6218 181.132 33.294C180.874 32.9662 180.541 32.7055 180.16 32.534C178.918 32.0496 177.4 32.8298 176.391 34.3339C175.864 33.4345 175.04 32.7463 174.061 32.3874C171.279 31.5228 171.141 35.5123 171.141 35.5123C171.141 35.5123 166.732 31.1671 166.594 36.7089C166.427 43.4143 167.661 45.3824 168.561 45.876C170.339 46.8566 171.663 46.6905 172.366 48.1325C174.497 52.5003 172.409 64.8033 174.873 66.3437C178.651 68.7035 186.387 68.785 188.899 68.6058C189.865 68.5353 190.77 67.418 191.177 66.5404C192.491 63.706 195.422 57.2806 196.237 54.6232C197.746 49.7213 197.632 38.5494 188.565 35.593Z" fill="#0C0C0C"/>
<path d="M173.188 61.9502C175.369 61.714 176.884 59.1919 176.648 57.0141C176.412 54.8362 174.513 53.8264 172.332 54.063L171.366 55.6443L171.314 62.154L173.188 61.9502Z" fill="#E98862"/>
<path d="M153.839 99.7098C154.24 104.41 156.189 133.737 156.574 139.527H209.668C209.967 134.305 211.314 111.47 212.452 101.258C213.537 91.5137 215.667 86.6351 214.106 83.7541C211.554 79.0458 204.583 76.3252 199.829 75.6825C196.926 75.2901 192.56 75.0087 192.56 75.0087H172.117C170.175 75.0087 158.853 75.9212 156.351 77.8456C151.975 81.2124 152.989 89.7494 153.839 99.7098Z" fill="#F3B4C4"/>
<path d="M153.106 93.8217C153.061 93.8218 153.017 93.8046 152.985 93.7736C152.952 93.7427 152.932 93.7003 152.929 93.6553L152.501 86.1912C152.498 86.1445 152.514 86.0987 152.546 86.0638C152.577 86.0289 152.62 86.0077 152.667 86.005C152.714 86.0029 152.759 86.019 152.794 86.05C152.829 86.0809 152.85 86.1243 152.854 86.1707L153.282 93.6352C153.283 93.6583 153.28 93.6815 153.272 93.7034C153.265 93.7253 153.253 93.7454 153.237 93.7627C153.222 93.78 153.203 93.7941 153.182 93.8041C153.161 93.8142 153.139 93.8201 153.116 93.8214L153.106 93.8217Z" fill="#0C0C0C"/>
<path d="M221.146 139.221C222.707 139.221 224.246 138.844 225.63 138.122C227.014 137.401 228.204 136.356 229.096 135.076C229.989 133.797 230.56 132.321 230.759 130.775C230.958 129.228 230.779 127.656 230.239 126.193C229.691 124.708 216.832 90.7038 214.384 84.4032L196.257 91.7369C197.634 95.2793 202.621 108.707 206.627 119.524L199.971 118.802L197.876 138.047L220.097 139.164C220.445 139.202 220.795 139.221 221.146 139.221Z" fill="#F3B4C4"/>
<path d="M210.801 101.457L209.496 139.524L209.849 139.536L211.154 101.469L210.801 101.457Z" fill="#0C0C0C"/>
<path d="M115.037 60.8554L98.9626 67.9352C98.6145 68.0884 98.2197 68.0973 97.865 67.9599C97.5103 67.8226 97.2248 67.5501 97.0712 67.2026L91.1176 53.7231L93.4412 48.062L106.789 42.1827C106.962 42.1068 107.147 42.0656 107.336 42.0613C107.524 42.0571 107.711 42.0899 107.887 42.1579C108.062 42.226 108.223 42.3279 108.359 42.4578C108.495 42.5878 108.604 42.7433 108.68 42.9154L115.77 58.967C115.924 59.3146 115.933 59.7088 115.795 60.0629C115.657 60.417 115.385 60.7021 115.037 60.8554Z" fill="#AC99D8"/>
<path opacity="0.29" d="M93.4409 48.0627L91.1173 53.7238L95.2091 52.0028L93.4409 48.0627Z" fill="#FFFFFA"/>
<g opacity="0.88">
<path d="M109.144 49.5584C109.13 49.5681 109.115 49.5764 109.1 49.5831L94.6495 55.8816C94.5897 55.9022 94.5244 55.8997 94.4665 55.8744C94.4086 55.8491 94.3623 55.803 94.337 55.7452C94.3116 55.6874 94.3089 55.6221 94.3295 55.5625C94.3502 55.5028 94.3925 55.4531 94.4482 55.4232L108.899 49.1247C108.956 49.1003 109.02 49.0978 109.078 49.1177C109.137 49.1376 109.186 49.1784 109.217 49.2324C109.247 49.2864 109.257 49.3496 109.243 49.4101C109.23 49.4705 109.194 49.5238 109.144 49.5598V49.5584Z" fill="white"/>
<path d="M110.365 52.2877C110.352 52.2974 110.337 52.3057 110.322 52.3124L95.8712 58.6109C95.8112 58.6326 95.7452 58.6308 95.6866 58.6057C95.6279 58.5806 95.5811 58.5341 95.5555 58.4758C95.5299 58.4174 95.5275 58.3515 95.5489 58.2915C95.5702 58.2315 95.6136 58.1818 95.6703 58.1525L110.12 51.854C110.177 51.8287 110.242 51.8255 110.301 51.8451C110.361 51.8647 110.411 51.9058 110.441 51.9602C110.472 52.0146 110.481 52.0785 110.467 52.1393C110.453 52.2001 110.417 52.2536 110.365 52.2891V52.2877Z" fill="white"/>
<path d="M111.726 55.2878C111.712 55.2975 111.697 55.3058 111.682 55.3125L97.2315 61.611C97.1716 61.6327 97.1056 61.6309 97.0469 61.6058C96.9883 61.5807 96.9414 61.5342 96.9158 61.4759C96.8903 61.4175 96.8879 61.3516 96.9092 61.2916C96.9305 61.2316 96.9739 61.1819 97.0306 61.1526L111.481 54.8541C111.538 54.8288 111.602 54.8256 111.662 54.8452C111.721 54.8648 111.771 54.9059 111.802 54.9603C111.832 55.0147 111.841 55.0786 111.827 55.1394C111.813 55.2002 111.777 55.2537 111.726 55.2892V55.2878Z" fill="white"/>
<path d="M104.931 61.4696C104.917 61.4792 104.902 61.4875 104.887 61.4943L98.4776 64.2878C98.4179 64.3084 98.3525 64.3059 98.2946 64.2806C98.2367 64.2553 98.1905 64.2092 98.1651 64.1514C98.1397 64.0936 98.1371 64.0283 98.1577 63.9687C98.1783 63.909 98.2207 63.8593 98.2763 63.8294L104.686 61.0359C104.743 61.0116 104.807 61.0091 104.866 61.0289C104.925 61.0488 104.974 61.0897 105.004 61.1436C105.035 61.1976 105.044 61.2609 105.03 61.3213C105.017 61.3817 104.982 61.4351 104.931 61.471V61.4696Z" fill="white"/>
</g>
<path d="M101.751 59.6253C101.678 59.431 101.566 59.2537 101.421 59.1042C101.277 58.9546 101.104 58.836 100.912 58.7556C100.721 58.6751 100.515 58.6345 100.307 58.6361C100.099 58.6378 99.8935 58.6818 99.7031 58.7653C99.3407 58.9399 99.0581 59.2452 98.9124 59.6197C98.7666 59.9942 98.7686 60.41 98.9179 60.7831L99.4267 62.8881C99.5344 63.3333 99.4751 63.8025 99.2602 64.2071C99.0452 64.6117 98.6893 64.9237 98.2598 65.0843C97.8387 65.2418 97.375 65.2432 96.953 65.0882C96.531 64.9333 96.1787 64.6322 95.9602 64.2398C95.9602 64.2398 92.7899 57.5525 92.7298 57.2803C92.2097 57.7869 91.3027 59.0333 91.1166 59.9729C91.1099 59.9779 92.0346 67.4829 92.5515 68.0118L97.9152 76.2727C100.108 78.5162 107.468 74.7834 107.468 74.7834L101.751 59.6253Z" fill="#E98862"/>
<path d="M123.79 121.308C121.993 121.308 120.228 120.844 118.664 119.962C117.101 119.079 115.792 117.808 114.866 116.271L91.7772 77.9704L109.625 67.2424L127.176 96.3603L156.352 77.8498L168.713 94.3999L129.427 119.655C127.745 120.735 125.788 121.309 123.79 121.308Z" fill="#F3B4C4"/>
<path d="M154.135 103.936C154.095 103.936 154.057 103.923 154.026 103.899C153.995 103.874 153.973 103.84 153.963 103.802C153.954 103.763 153.958 103.723 153.974 103.687C153.991 103.651 154.019 103.622 154.054 103.603L159.095 101.006C159.137 100.984 159.185 100.98 159.23 100.994C159.274 101.008 159.311 101.04 159.333 101.081C159.354 101.123 159.359 101.171 159.344 101.216C159.33 101.26 159.299 101.298 159.257 101.319L154.216 103.916C154.191 103.929 154.163 103.936 154.135 103.936Z" fill="#0C0C0C"/>
<path d="M169.301 76.1088L171.804 72.2018C171.914 72.0306 172.065 71.8897 172.243 71.7921C172.422 71.6945 172.622 71.6433 172.825 71.6433H191.691C191.861 71.6433 192.029 71.679 192.184 71.7481C192.34 71.8171 192.479 71.918 192.592 72.0442L196.257 76.1088H169.301Z" fill="#F3B4C4"/>
<path d="M23.5791 232.591L22.9695 232.657L30.4966 301.345L31.1062 301.279L23.5791 232.591Z" fill="black"/>
<path d="M43.0745 262.578L39.3715 299.159L39.9816 299.221L43.6847 262.639L43.0745 262.578Z" fill="black"/>
<path d="M49.4423 294.737H21.9657V303.642H49.4423V294.737Z" fill="black"/>
<path opacity="0.2" d="M49.4423 294.737H21.9657V303.642H49.4423V294.737Z" fill="white"/>
<path d="M66.0067 278.342C71.2118 271.433 68.7305 260.799 60.4646 254.588C52.1986 248.378 41.2782 248.943 36.0731 255.851C30.868 262.759 33.3493 273.394 41.6152 279.605C49.8812 285.815 60.8016 285.25 66.0067 278.342Z" fill="#0CBC8B"/>
<path opacity="0.2" d="M66.0067 278.342C71.2118 271.433 68.7305 260.799 60.4646 254.588C52.1986 248.378 41.2782 248.943 36.0731 255.851C30.868 262.759 33.3493 273.394 41.6152 279.605C49.8812 285.815 60.8016 285.25 66.0067 278.342Z" fill="white"/>
<path opacity="0.5" d="M66.0056 278.343C65.6561 278.809 65.2747 279.25 64.8641 279.663C59.1343 283.319 50.677 282.744 43.9678 277.702C35.7026 271.492 33.2219 260.858 38.4277 253.949C38.7777 253.485 39.1581 253.043 39.5663 252.629C45.2989 248.971 53.7534 249.549 60.4655 254.588C68.7303 260.8 71.2111 271.435 66.0056 278.343Z" fill="white"/>
<path d="M27.6602 252.132C35.8487 245.82 38.0743 234.995 32.6311 227.954C27.188 220.912 16.1372 220.321 7.94867 226.633C-0.239901 232.945 -2.46548 243.77 2.97769 250.811C8.42087 257.853 19.4716 258.444 27.6602 252.132Z" fill="#0CBC8B"/>
<path opacity="0.2" d="M25.0686 250.321C18.7269 255.213 10.6675 255.958 4.82548 252.774C4.14935 252.179 3.53181 251.522 2.98135 250.809C-2.46454 243.77 -0.239085 232.943 7.94917 226.633C14.2908 221.744 22.3502 220.996 28.1894 224.177C28.8669 224.772 29.4853 225.431 30.036 226.145C35.4805 233.184 33.2551 244.011 25.0686 250.321Z" fill="white"/>
</g>
<defs>
<clipPath id="clip0_41_2">
<rect width="252" height="304" fill="white"/>
</clipPath>
</defs>
</svg>
