<svg width="20" height="20" viewBox="0 0 20 20" fill="none" xmlns="http://www.w3.org/2000/svg">
<g id="search" opacity="0.3">
<path id="Ellipse 4 (Stroke)" fill-rule="evenodd" clip-rule="evenodd" d="M8.57286 14.7709C11.996 14.7709 14.7709 11.996 14.7709 8.57286C14.7709 5.14977 11.996 2.37481 8.57286 2.37481C5.14977 2.37481 2.37481 5.14977 2.37481 8.57286C2.37481 11.996 5.14977 14.7709 8.57286 14.7709ZM8.57286 17.1457C13.3075 17.1457 17.1457 13.3075 17.1457 8.57286C17.1457 3.8382 13.3075 0 8.57286 0C3.8382 0 0 3.8382 0 8.57286C0 13.3075 3.8382 17.1457 8.57286 17.1457Z" fill="black"/>
<path id="Vector 1 (Stroke)" fill-rule="evenodd" clip-rule="evenodd" d="M13.8567 13.8567C13.393 14.3204 13.393 15.0722 13.8567 15.5359L17.3207 18.9999C17.7844 19.4636 18.5362 19.4636 18.9999 18.9999C19.4636 18.5362 19.4636 17.7844 18.9999 17.3207L15.536 13.8567C15.0722 13.393 14.3204 13.393 13.8567 13.8567Z" fill="black"/>
</g>
</svg>
