<svg width="24" height="24" viewBox="0 0 24 24" fill="none" xmlns="http://www.w3.org/2000/svg">
<path fill-rule="evenodd" clip-rule="evenodd" d="M12.15 7.00002C12.15 6.53058 12.5306 6.15002 13 6.15002H21C21.4695 6.15002 21.85 6.53058 21.85 7.00002C21.85 7.46947 21.4695 7.85002 21 7.85002H13C12.5306 7.85002 12.15 7.46947 12.15 7.00002Z" fill="black"/>
<path fill-rule="evenodd" clip-rule="evenodd" d="M2.15002 16C2.15002 15.5306 2.53058 15.15 3.00002 15.15H11C11.4695 15.15 11.85 15.5306 11.85 16C11.85 16.4695 11.4695 16.85 11 16.85H3.00002C2.53058 16.85 2.15002 16.4695 2.15002 16Z" fill="black"/>
<path d="M9 7C9 8.65685 7.65685 10 6 10C4.34315 10 3 8.65685 3 7C3 5.34315 4.34315 4 6 4C7.65685 4 9 5.34315 9 7Z" fill="black"/>
<path d="M21 16C21 17.6569 19.6569 19 18 19C16.3431 19 15 17.6569 15 16C15 14.3431 16.3431 13 18 13C19.6569 13 21 14.3431 21 16Z" fill="black"/>
</svg>
