<svg width="24" height="24" viewBox="0 0 24 24" fill="none" xmlns="http://www.w3.org/2000/svg">
<path fill-rule="evenodd" clip-rule="evenodd" d="M12.1499 6.9999C12.1499 6.53046 12.5305 6.1499 12.9999 6.1499H20.9999C21.4693 6.1499 21.8499 6.53046 21.8499 6.9999C21.8499 7.46934 21.4693 7.8499 20.9999 7.8499H12.9999C12.5305 7.8499 12.1499 7.46934 12.1499 6.9999Z" fill="#606269"/>
<path fill-rule="evenodd" clip-rule="evenodd" d="M2.1499 15.9999C2.1499 15.5305 2.53046 15.1499 2.9999 15.1499H10.9999C11.4693 15.1499 11.8499 15.5305 11.8499 15.9999C11.8499 16.4693 11.4693 16.8499 10.9999 16.8499H2.9999C2.53046 16.8499 2.1499 16.4693 2.1499 15.9999Z" fill="#606269"/>
<path d="M9 7C9 8.65685 7.65685 10 6 10C4.34315 10 3 8.65685 3 7C3 5.34315 4.34315 4 6 4C7.65685 4 9 5.34315 9 7Z" fill="#606269"/>
<path d="M21 16C21 17.6569 19.6569 19 18 19C16.3431 19 15 17.6569 15 16C15 14.3431 16.3431 13 18 13C19.6569 13 21 14.3431 21 16Z" fill="#606269"/>
</svg>
