<svg width="254" height="220" viewBox="0 0 254 220" fill="none" xmlns="http://www.w3.org/2000/svg">
<path d="M131.652 219.643C199.099 219.643 253.775 210.237 253.775 198.634C253.775 187.031 199.099 177.625 131.652 177.625C64.2055 177.625 9.52924 187.031 9.52924 198.634C9.52924 210.237 64.2055 219.643 131.652 219.643Z" fill="#F7F5FD"/>
<path d="M149.404 15.9105C149.404 15.9105 148.657 69.4907 146.497 83.1292C144.337 96.7677 176.757 75.6255 179.35 89.9306C181.943 104.236 172.867 146.313 177.727 152.064C182.587 157.816 141.525 170.131 139.526 170.466C137.527 170.802 42.9055 157.135 42.9055 157.135C42.9055 157.135 32.4479 116.427 19.8276 148.165C6.43716 133.61 8.82338 116.243 8.82338 116.243L69.2442 79.1798L82.3162 40.2569L115.59 15.9033L136.268 4.62639L149.404 15.9105Z" fill="#EDE3DC"/>
<path d="M149.404 16.2414C149.404 16.2414 148.657 69.8216 146.497 83.4649C144.337 97.1081 176.757 75.9636 179.35 90.2663C181.943 104.569 172.867 146.651 177.729 152.4C182.592 158.149 141.527 170.469 139.529 170.804C137.53 171.14 42.9079 157.473 42.9079 157.473C42.9079 157.473 32.4504 116.777 19.83 148.501C6.4396 133.948 8.82582 116.579 8.82582 116.579L69.2443 79.5202L82.3162 40.5973L115.59 16.2414L136.268 4.96443L149.404 16.2414Z" fill="#E69766"/>
<g style="mix-blend-mode:multiply" opacity="0.59">
<path d="M149.404 16.2414C149.404 16.2414 148.657 69.8216 146.497 83.4649C144.337 97.1081 176.757 75.9636 179.35 90.2663C181.943 104.569 172.867 146.651 177.729 152.4C182.592 158.149 141.527 170.469 139.529 170.804C137.53 171.14 42.9079 157.473 42.9079 157.473C42.9079 157.473 32.4504 116.777 19.83 148.501C6.4396 133.948 8.82582 116.579 8.82582 116.579L69.2443 79.5202L82.3162 40.5973L115.59 16.2414L136.268 4.96443L149.404 16.2414Z" fill="#E69766"/>
</g>
<path d="M139.086 42.7256C139.086 42.7256 137.297 54.5858 142.972 59.3422C145.872 61.7752 137.912 69.217 130.414 68.7146C122.877 68.21 115.569 59.2541 118.594 58.9113C124.536 58.24 124.346 44.1087 124.346 44.1087C124.346 44.1087 132.073 32.7199 139.086 42.7256Z" fill="#FFDFD9"/>
<g style="mix-blend-mode:multiply">
<path d="M139.529 43.2327C139.529 43.2327 136.218 57.1901 123.345 52.8503C124.058 50.584 124.422 45.3633 124.422 45.3633L139.529 43.2327Z" fill="#EEB5AA"/>
</g>
<path d="M144.508 35.5933C144.508 35.5933 142.131 48.4271 130.545 48.3033C120.66 48.1962 117.033 35.5933 117.033 35.5933C117.033 35.5933 112.912 36.0908 112.201 31.3296C111.467 26.4351 116.028 27.4992 116.028 27.4992C116.028 27.4992 112.634 8.64485 121.765 3.0171C129.82 -1.94884 142.504 0.567457 145.691 9.93514C148.878 19.3028 146.017 27.1802 146.017 27.1802C146.017 27.1802 150.278 26.9422 149.242 31.7486C148.467 35.3362 146.376 35.5004 144.508 35.5933Z" fill="#FFDFD9"/>
<path d="M130.713 25.5352C130.713 25.5352 126.468 32.7485 132.436 31.6367" stroke="#AD6866" stroke-linecap="round" stroke-linejoin="round"/>
<path d="M140.413 22.0786C140.938 22.8213 142.207 22.1881 141.532 21.0692C140.567 19.4647 137.694 18.6291 135.552 19.6789C133.686 20.5931 134.799 21.7334 135.626 21.2216C137.114 20.2931 139.414 20.6812 140.413 22.0786Z" fill="#A95E32"/>
<path d="M121.637 22.0786C121.111 22.8213 119.842 22.1881 120.517 21.0692C121.482 19.4647 124.356 18.6291 126.497 19.6789C128.363 20.5931 127.25 21.7334 126.423 21.2216C124.931 20.2931 122.63 20.6812 121.637 22.0786Z" fill="#A95E32"/>
<path d="M135.422 25.5352C135.422 25.5352 136.073 27.4254 138.121 27.3564C140.17 27.2874 140.377 25.5352 140.377 25.5352" stroke="#994240" stroke-linecap="round" stroke-linejoin="round"/>
<path d="M121.026 25.5352C121.026 25.5352 121.675 27.4254 123.723 27.3564C125.772 27.2874 125.981 25.5352 125.981 25.5352" stroke="#994240" stroke-linecap="round" stroke-linejoin="round"/>
<path d="M128.189 35.6766C128.429 36.2538 128.839 36.744 129.364 37.0817C129.89 37.4195 130.505 37.5887 131.129 37.5668C131.751 37.58 132.363 37.4072 132.886 37.0705C133.409 36.7338 133.82 36.2485 134.067 35.6766" fill="#CB4746"/>
<path d="M113.896 30.1965C113.896 30.1965 114.846 29.0704 116.272 30.6107C116.272 30.6107 114.963 27.4231 113.551 29.0109" stroke="#AD6866" stroke-linecap="round" stroke-linejoin="round"/>
<path d="M138.492 7.28553C138.492 7.28553 137.9 14.9035 115.424 20.8074C95.7731 25.9733 88.5313 49.3032 87.9181 65.8008C86.8272 95.1655 53.8194 101.986 38.846 105.624C23.8727 109.261 6.89824 126.632 19.8323 148.172C19.8323 148.172 -24.3627 119.324 19.1954 101.146C62.7534 82.9673 56.6548 71.7761 65.7006 41.6091C72.4172 19.2124 90.5016 27.7206 101.926 19.2124C113.351 10.7041 117.194 -2.60588 127.519 0.526997C137.843 3.65987 138.492 7.28553 138.492 7.28553Z" fill="#E69766"/>
<path d="M138.492 7.28552C138.492 7.28552 144.928 15.8795 145.012 27.3564C145.095 38.8333 134.632 52.5694 144.512 59.8969C154.392 67.2244 171.146 95.0703 167.761 119.612C164.377 144.154 173.449 156.488 178.999 158.249C184.548 160.011 215.279 152.84 215.279 152.84C215.279 152.84 188.185 138.862 191.372 112.151C194.559 85.4408 190.369 71.7451 179.809 62.2537C169.249 52.7622 149.444 56.1379 151.738 37.5668C154.031 18.9957 150.426 10.2827 142.739 3.95268C135.528 -1.98693 127.528 0.52937 127.528 0.52937C127.528 0.52937 137.9 3.93601 138.492 7.28552Z" fill="#E69766"/>
<path d="M133.37 2.94093C133.37 2.94093 125.981 1.90298 122.404 11.8658C120.058 18.4006 102.725 18.2315 88.7428 27.3564C71.5022 38.6095 89.0756 78.4656 70.2734 83.6006C35.9679 92.9873 4.93988 105.983 7.62557 128.015C9.56735 143.98 19.83 148.172 19.83 148.172C10.3754 142.204 10.2732 123.768 17.9405 111.823C30.7344 91.8922 62.8414 89.4449 74.9151 83.6053C86.9888 77.7657 81.135 57.9615 89.6864 37.5668C98.1285 17.4269 117.311 21.1787 124.287 13.4751C132.101 4.85255 136.268 5.70719 136.268 5.70719" stroke="#A95E32" stroke-linecap="round" stroke-linejoin="round"/>
<path d="M128.65 1.27449C128.65 1.27449 119.089 0.526985 116.263 9.79468C113.385 19.229 90.1784 23.6022 90.1784 23.6022C90.1784 23.6022 65.7838 27.2826 69.2443 48.3033C73.2585 72.6902 62.9602 83.7743 50.9174 87.8856C37.1681 92.5945 -3.63294 108.09 2.53701 128.956C5.31777 138.362 19.83 148.172 19.83 148.172" stroke="#A95E32" stroke-miterlimit="10"/>
<path d="M188.387 143.799C188.387 143.799 217.418 135.838 224.38 142.659C231.341 149.479 222.478 165.889 222.478 165.889L174.944 170.466L188.387 143.799Z" fill="#EEB5AA"/>
<path d="M42.9079 142.659C42.9079 142.659 45.76 137.433 65.6269 140.754C85.4939 144.075 98.9009 148.177 98.9009 148.177L101.926 163.979L66.4968 160.33L42.9126 142.659" fill="#EEB5AA"/>
<path d="M100.959 144.927L104.952 132.01C104.952 132.01 147.11 129.13 159.101 133.317L164.546 148.172C164.546 148.172 176.729 142.021 187.491 141.744C191.369 141.644 191.369 147.056 191.369 151.667C191.369 156.278 186.141 177.58 186.141 177.58L137.085 192.844L67.804 167.172C67.804 167.172 71.4784 142.89 77.0541 140.747C84.2437 137.981 100.959 144.927 100.959 144.927Z" fill="#565797"/>
<path d="M159.954 152.702L164.548 148.172" stroke="white" stroke-linecap="round" stroke-linejoin="round"/>
<path d="M106.806 149.041L101.109 145.187" stroke="white" stroke-linecap="round" stroke-linejoin="round"/>
<path d="M133.142 139.897C133.142 139.897 133.107 140.314 133.042 141.042" stroke="white" stroke-linecap="round" stroke-linejoin="round"/>
<path d="M132.845 143.218C132.574 146.191 132.132 150.75 131.657 155.176C130.357 166.976 129.694 176.601 132.434 185.648" stroke="white" stroke-linecap="round" stroke-linejoin="round" stroke-dasharray="9.2 9.2"/>
<path d="M132.762 186.705C132.883 187.066 133.012 187.419 133.142 187.79" stroke="white" stroke-linecap="round" stroke-linejoin="round"/>
<path d="M126.485 139.276C126.485 139.276 124.108 155.764 124.584 159.24C125.035 162.572 130.526 162.096 130.526 162.096" stroke="white" stroke-linecap="round" stroke-linejoin="round" stroke-dasharray="9.66 9.66"/>
<path d="M100.759 99.334C100.759 99.334 97.8884 110.692 102.735 117.876C107.999 125.673 96.422 125.459 105.304 132.874C111.246 137.84 139.956 143.018 155.198 137.221C167.866 132.403 159.136 126.839 161.853 120.081C162.832 117.634 165.254 110.006 163.811 100.848C172.952 132.986 181.715 134.248 191.381 133.786C205.613 133.105 217.566 107.054 223.591 104.102C231.246 100.353 225.207 82.8245 220.216 78.5846C212.484 72.0118 204.781 82.3103 200.106 89.9282L192.384 102.51C192.384 102.51 178.124 71.2428 162.25 64.9676C156.099 62.5155 143.291 59.4208 143.291 59.4208C143.291 59.4208 140.386 69.1431 131.645 68.7265C122.903 68.3099 118.587 58.9113 118.587 58.9113C118.587 58.9113 102.188 61.949 92.8617 69.9097C84.5836 76.9706 69.4582 102.641 69.4582 102.641C69.4582 102.641 59.8634 95.775 56.189 89.9306C52.0701 83.3815 41.3892 79.2179 36.1176 83.3173C29.5008 88.4475 29.2251 98.3294 31.0124 102.731C33.2251 108.206 46.5466 117.208 55.3595 124.533C69.1183 135.96 80.5788 131.044 85.1065 126.437C93.0613 118.319 100.759 99.334 100.759 99.334Z" fill="#EC99B0"/>
<path d="M160.724 113.675C160.724 113.675 145.066 138.533 116.26 128.834" stroke="#D0778E" stroke-linecap="round" stroke-linejoin="round"/>
<path d="M106.062 118.155C106.062 118.155 117.496 124.537 130.692 124.704" stroke="#D0778E" stroke-linecap="round" stroke-linejoin="round"/>
<path d="M192.384 102.51C192.384 102.51 187.493 107.345 189.09 113.682" stroke="#D0778E" stroke-linecap="round" stroke-linejoin="round"/>
<path d="M69.4653 102.641C69.4653 102.641 76.3815 106.357 77.0541 113.675" stroke="#D0778E" stroke-linecap="round" stroke-linejoin="round"/>
<path d="M114.162 59.9516C114.162 59.9516 117.751 72.9735 131.944 72.6855C144.643 72.426 147.155 60.3968 147.155 60.3968L143.291 59.4208C143.291 59.4208 139.809 68.7408 131.238 68.6408C123.262 68.548 118.594 58.9113 118.594 58.9113L114.162 59.9516Z" fill="#565797"/>
<g style="mix-blend-mode:multiply">
<path d="M39.4839 92.0073C41.3755 87.4825 41.5219 83.2328 39.8111 82.5152C38.1003 81.7977 35.18 84.8841 33.2885 89.4089C31.397 93.9336 31.2505 98.1834 32.9614 98.9009C34.6722 99.6184 37.5924 96.532 39.4839 92.0073Z" fill="#FDCA5D"/>
</g>
<g style="mix-blend-mode:multiply">
<path d="M223.134 94.2697C224.844 93.551 224.695 89.3014 222.8 84.7779C220.906 80.2545 217.983 77.1702 216.273 77.8889C214.563 78.6076 214.712 82.8572 216.607 87.3807C218.501 91.9041 221.424 94.9884 223.134 94.2697Z" fill="#FDCA5D"/>
</g>
<path d="M101.926 90.7043L100.759 99.334C98.1451 96.9034 98.1855 92.8278 98.1855 92.8278" stroke="#D0778E" stroke-linecap="round" stroke-linejoin="round"/>
<path d="M168.051 92.6754C168.051 92.6754 165.877 99.353 163.759 101.05L163.828 94.7989" stroke="#D0778E" stroke-linecap="round" stroke-linejoin="round"/>
<path d="M225.081 86.9929C228.141 86.7272 231.173 86.2089 234.148 85.4431C236.443 84.8066 238.648 83.8811 240.71 82.6888C243.579 80.9295 242.611 79.6559 242.611 79.6559C242.611 79.6559 241.715 79.2893 242.495 78.3513C243.372 77.2967 242.084 76.8587 242.084 76.8587C242.232 76.1743 242.421 75.4994 242.649 74.8376C243.004 73.8853 241.827 74.4019 241.827 74.4019C241.827 74.4019 240.477 74.3495 240.598 73.2116C240.719 72.0737 240.91 67.2601 239.731 66.565C238.552 65.8698 232.998 65.8317 231.997 65.7984C230.359 65.7413 229.287 67.5529 231.562 68.179C234.241 68.9218 236.841 69.4336 236.841 69.4336L235.688 71.7975L230.92 74.6257C230.92 74.6257 229.085 75.6851 227.926 74.809C227.419 74.4281 227.041 73.6758 227.001 72.3094C228.957 69.9454 229.908 68.6051 229.249 67.4791C228.389 66.0103 226.816 66.6792 224.332 69.9573C221.848 73.2354 220.353 73.6496 219.816 76.7563C219.631 77.8371 219.006 83.4649 225.081 86.9929Z" fill="#FFDFD9"/>
<path d="M223.7 80.2391C223.7 80.2391 227.531 79.0679 227.201 74.4019" stroke="#E2AAA9" stroke-linecap="round" stroke-linejoin="round"/>
<path d="M221.161 77.9633L215.716 84.8528C215.716 84.8528 217.276 90.621 220.251 93.1039C222.252 91.4637 226.241 86.424 226.241 86.424" fill="#FFDFD9"/>
<path d="M35.9607 82.6174L40.852 87.5428C40.852 87.5428 40.1081 92.7802 36.6429 96.8629C34.8722 95.1655 29.1205 88.6236 29.1205 88.6236" fill="#FFDFD9"/>
<path d="M216.598 140.983C206.877 143.011 196.063 148.539 182.34 152.84C168.617 157.142 129.919 189.64 129.919 189.64L152.002 196.151C152.002 196.151 199.008 183.715 216.025 171.309C219.099 169.071 230.542 162.118 230.542 155.99C230.542 150.531 226.319 138.957 216.598 140.983Z" fill="#FFDFD9"/>
<path d="M50.694 140.983C60.4124 143.011 71.2288 148.539 84.952 152.84C98.6751 157.142 137.373 189.64 137.373 189.64L115.291 196.146C115.291 196.146 68.2841 183.714 51.2668 171.309C48.1937 169.071 36.7498 162.118 36.7498 155.99C36.7498 150.531 40.9732 138.957 50.694 140.983Z" fill="#FFDFD9"/>
<path d="M191.372 149.734C191.372 149.734 202.516 145.741 210.737 143.201" stroke="#FFDFD9" stroke-linecap="round" stroke-linejoin="round"/>
<path d="M72.2531 148.351C72.2531 148.351 67.6185 146.425 53.2275 142.759" stroke="#FFDFD9" stroke-linecap="round" stroke-linejoin="round"/>
<mask id="mask0_112_99" style="mask-type:luminance" maskUnits="userSpaceOnUse" x="76" y="175" width="86" height="38">
<path d="M147.343 175.644C147.343 175.644 158.155 191.82 161.254 193.53C157.356 195.487 110.868 212.667 110.868 212.667C110.868 212.667 90.3566 212.775 83.4832 210.156C80.5432 209.037 78.05 206.371 77.0446 201.995C70.5039 173.54 103.426 197.198 108.515 191.361C116.251 182.496 125.33 188.202 131.643 184.933C137.955 181.665 147.343 175.644 147.343 175.644Z" fill="white"/>
</mask>
<g mask="url(#mask0_112_99)">
<path d="M147.343 175.644C147.343 175.644 158.155 191.82 161.254 193.53C157.356 195.487 128.486 200.122 115.785 205.53C112.845 206.611 106.967 209.851 102.661 210.387C99.5402 210.775 87.6709 209.044 83.2787 200.998C76.0963 187.845 103.429 197.189 108.524 191.361C116.26 182.496 125.339 188.202 131.652 184.933C137.965 181.665 147.343 175.644 147.343 175.644Z" fill="white"/>
<path d="M138.725 177.658C138.725 177.658 141.477 194.508 151.07 198.634C160.662 202.759 159.954 197.496 159.954 197.496C159.954 197.496 144.139 177.737 144.451 174.011C144.762 170.286 138.725 177.658 138.725 177.658Z" fill="#FDCA5D"/>
<path d="M138.492 170.804C138.492 170.804 147.6 193.135 155.279 196.146" stroke="white" stroke-linecap="round" stroke-linejoin="round"/>
</g>
<mask id="mask1_112_99" style="mask-type:luminance" maskUnits="userSpaceOnUse" x="104" y="176" width="82" height="37">
<path d="M120.935 176.232C120.935 176.232 108.113 191.749 104.954 193.342C108.127 194.877 133.805 202.019 142.668 206.421C145.283 207.718 151.486 207.697 154.704 208.67C160.256 209.908 164.059 213.105 171.398 212.615C176.372 212.284 183.576 207.792 184.881 201.995C187.788 189.068 166.423 195.415 158.856 193.782C153.302 192.592 148.508 193.72 135.98 186.497C129.82 182.946 120.935 176.232 120.935 176.232Z" fill="white"/>
</mask>
<g mask="url(#mask1_112_99)">
<path d="M120.935 176.232C120.935 176.232 108.113 191.749 104.954 193.342C108.774 195.441 155.193 214.655 155.193 214.655C155.193 214.655 171.469 218.483 178.435 216.119C181.413 215.11 187.99 210.213 187.155 205.802C184.382 191.068 178.057 190.504 166.642 189.435C154.937 188.34 142.162 190.002 135.982 186.497C129.803 182.993 120.935 176.232 120.935 176.232Z" fill="white"/>
<path d="M125.57 174.485C125.57 174.485 116.79 190.516 106.723 196.148C95.9989 202.148 117.946 200.326 117.946 200.326C117.946 200.326 127.215 189.19 130.25 180.829C131.143 178.339 125.57 174.485 125.57 174.485Z" fill="#FDCA5D"/>
<path d="M130.25 172.847C130.25 172.847 122.169 194.182 104.954 203.614" stroke="white" stroke-linecap="round" stroke-linejoin="round"/>
</g>
<path d="M132.643 184.579C132.643 184.579 139.281 188.257 141.675 189.435C150.511 193.799 159.885 193.799 159.885 193.799" stroke="#FFDFD9" stroke-linecap="round" stroke-linejoin="round"/>
<path d="M104.954 193.342L127.942 200.998" stroke="#FFDFD9" stroke-linecap="round" stroke-linejoin="round"/>
<path d="M242.048 63.2535C243.277 62.8012 244.741 66.1888 244.741 66.1888C244.741 66.1888 245.497 70.2906 245.316 71.4261C245.135 72.5617 241.917 77.3253 241.917 77.3253L237.337 75.059C237.337 75.059 241.725 71.2928 242.05 70.6953C242.376 70.0978 242.138 69.0479 242.05 67.3625C240.805 64.7081 241.147 63.5844 242.048 63.2535Z" fill="#FFDFD9"/>
<path d="M248.553 68.7623C249.806 69.2646 249.58 71.6714 249.138 72.8093C248.696 73.9472 247.835 76.2564 247.153 76.9396C246.471 77.6229 240.294 79.1988 240.294 79.1988L237.839 75.5636C237.839 75.5636 245.057 74.44 245.349 73.9591C245.642 73.4782 247.293 68.2599 248.553 68.7623Z" fill="#FFDFD9"/>
<path d="M244.223 73.5568C245.478 74.0591 245.252 76.4659 244.81 77.6038C244.368 78.7417 243.507 81.0509 242.825 81.7342C242.143 82.4174 235.964 83.9934 235.964 83.9934L233.511 80.3701C233.511 80.3701 241.135 79.2631 241.428 78.7822C241.72 78.3013 242.97 73.0545 244.223 73.5568Z" fill="#FFDFD9"/>
<path d="M238.003 80.0582C238.003 80.0582 241.135 78.9417 241.423 78.4656C241.711 77.9895 242.965 72.7521 244.218 73.2425C245.471 73.733 245.247 76.4611 244.805 77.6086" stroke="#E2AAA9" stroke-linecap="round" stroke-linejoin="round"/>
<path d="M237.337 74.4019L240.658 72.0713" stroke="#E2AAA9" stroke-linecap="round" stroke-linejoin="round"/>
<path d="M239.336 76.3969L242.526 75.1518" stroke="#E2AAA9" stroke-linecap="round" stroke-linejoin="round"/>
<path d="M32.726 91.4137C29.6811 91.8098 26.6086 91.9531 23.54 91.8422C21.1652 91.7096 18.8166 91.2768 16.5501 90.5543C13.3725 89.4497 14.0498 87.988 14.0498 87.988C14.0498 87.988 14.8484 87.4381 13.8858 86.6906C12.8044 85.8478 13.969 85.1432 13.969 85.1432C13.6774 84.5063 13.3489 83.8871 12.985 83.2887C12.436 82.4293 13.6981 82.6888 13.6981 82.6888C13.6981 82.6888 15.0053 82.3484 14.6487 81.2604C14.2922 80.1725 13.0777 75.5208 14.0807 74.5828C15.0837 73.6449 20.4978 72.426 21.4699 72.1784C23.0576 71.7713 24.4931 73.3116 22.404 74.4162C19.9464 75.7184 17.5151 76.773 17.5151 76.773L19.1455 78.837L24.4075 80.5772C24.4075 80.5772 26.4277 81.22 27.3737 80.1154C27.7849 79.6392 27.994 78.8203 27.7421 77.4753C25.325 75.5851 24.1104 74.4781 24.5145 73.2402C25.0421 71.619 26.7225 71.938 29.8478 74.6066C32.9732 77.2753 34.5228 77.3634 35.6993 80.2844C35.6922 80.2987 39.5092 88.4641 32.726 91.4137Z" fill="#FFDFD9"/>
<path d="M32.6357 84.5218C32.6357 84.5218 28.6428 84.1957 27.9702 79.5678Z" fill="#FFDFD9"/>
<path d="M32.6357 84.5218C32.6357 84.5218 28.6428 84.1957 27.9702 79.5678" stroke="#E2AAA9" stroke-linecap="round" stroke-linejoin="round"/>
<path d="M11.086 71.857C9.78834 71.6785 9.08246 75.3018 9.08246 75.3018C9.08246 75.3018 9.21793 79.4702 9.63861 80.5391C10.0593 81.608 14.209 85.5717 14.209 85.5717L18.1995 82.3769C18.1995 82.3769 13.1086 79.6369 12.6642 79.1226C12.2197 78.6084 12.2269 77.5324 11.9512 75.8612C12.6095 73.0116 12.0367 71.988 11.086 71.857Z" fill="#FFDFD9"/>
<path d="M5.91429 78.6299C4.79486 79.3893 5.52926 81.6913 6.20662 82.7197C6.88399 83.7482 8.21495 85.8145 9.02541 86.3287C9.83587 86.8429 16.2102 87.0667 16.2102 87.0667L17.8311 82.9887C17.8311 82.9887 10.5418 83.4363 10.1543 83.0292C9.76694 82.6221 7.03135 77.8704 5.91429 78.6299Z" fill="#FFDFD9"/>
<path d="M11.1597 82.3888C10.0427 83.1482 10.7771 85.4503 11.4545 86.4763C12.1318 87.5024 13.4628 89.5711 14.2732 90.0853C15.0837 90.5995 21.4581 90.8233 21.4581 90.8233L23.079 86.7477C23.079 86.7477 15.3951 87.2976 14.9981 86.8906C14.6012 86.4835 12.2768 81.6294 11.1597 82.3888Z" fill="#FFDFD9"/>
<path d="M18.6249 87.4071C18.6249 87.4071 15.3284 86.9953 14.941 86.5906C14.5536 86.1859 12.2126 81.3223 11.0931 82.0865C9.9737 82.8507 10.777 85.4503 11.4544 86.4763" fill="#FFDFD9"/>
<path d="M18.6249 87.4071C18.6249 87.4071 15.3284 86.9953 14.941 86.5906C14.5536 86.1859 12.2126 81.3223 11.0931 82.0865C9.9737 82.8507 10.777 85.4503 11.4544 86.4763" stroke="#E2AAA9" stroke-linecap="round" stroke-linejoin="round"/>
<path d="M18.0688 81.7389L14.3279 80.1725" stroke="#E2AAA9" stroke-linecap="round" stroke-linejoin="round"/>
<path d="M16.5406 84.1148L13.1585 83.5839" stroke="#E2AAA9" stroke-linecap="round" stroke-linejoin="round"/>
<path d="M144.871 139.897C144.909 140.019 145.527 142.356 147.046 143.532C149.789 145.656 155.792 143.466 155.792 143.466" stroke="white" stroke-linecap="round" stroke-linejoin="round"/>
<path d="M119.324 137.981C119.324 137.981 117.544 142.83 114.243 143.18C111.921 143.418 108.327 141.863 108.327 141.863" stroke="white" stroke-linecap="round" stroke-linejoin="round"/>
<path d="M101.109 145.187L102.661 151.155" stroke="white" stroke-linecap="round" stroke-linejoin="round"/>
<path d="M164.548 148.172L157.958 150.436" stroke="white" stroke-linecap="round" stroke-linejoin="round"/>
</svg>
