<svg width="96" height="96" viewBox="0 0 96 96" fill="none" xmlns="http://www.w3.org/2000/svg">
<path d="M88.2139 63.2477C86.8075 63.2076 85.8031 62.1228 85.7628 60.6763C85.3209 43.1986 76.3209 30.2611 62.6602 25.1986L53.2985 50.9129C53.2183 51.1138 53.2584 51.2744 53.4593 51.3548C53.6201 51.4352 53.7406 51.3548 53.8612 51.2343L58.6022 46.0915C61.696 42.7567 65.6335 42.5156 68.687 45.0871C72.1423 48.02 72.1826 52.3995 68.8075 56.538L55.3478 72.8103C45.1826 85.1048 33.2494 88.9219 19.9102 84.0603C3.95915 78.2746 -2.83096 63.6495 3.59796 45.971L6.61133 37.7343C9.7447 29.0156 15.7317 25.4396 22.763 27.8906C24.6513 25.4396 27.5441 24.596 30.678 25.721C31.7628 26.1228 32.8075 26.7255 33.8121 27.4889C35.8612 24.8371 39.0352 23.8728 42.3298 25.038C43.2139 25.3594 44.0577 25.8415 44.8612 26.4039L49.4414 13.8684C51.1692 9.08707 55.5084 7.0781 59.9683 8.68524C64.4683 10.3327 66.4773 14.6318 64.7494 19.4129L64.428 20.2968C79.9773 26.1228 90.7852 41.1094 90.7852 60.596C90.7852 62.0424 89.5798 63.2878 88.2139 63.2477ZM21.6379 78.7968C32.1646 82.6539 42.0485 80.6852 51.3298 69.4755L64.7897 53.2834C66.2361 51.596 66.2361 49.9486 64.9504 48.8237C63.745 47.7389 62.0978 48.1004 60.772 49.4666L51.4906 59.0691C49.9236 60.6763 48.5575 60.8371 47.2317 60.3548C45.6646 59.7924 44.9817 58.1048 45.6245 56.3772L59.8478 17.2433C60.4504 15.6362 59.7271 14.1094 58.2005 13.5468C56.6335 12.9843 55.187 13.7477 54.5842 15.3548L44.4192 43.279C43.937 44.6048 42.4504 45.2076 41.1245 44.7255C39.8388 44.2433 39.1557 42.8371 39.6379 41.5514L43.2941 31.4666C42.7317 30.9442 41.9683 30.4219 41.2049 30.1406C39.3165 29.4576 37.7494 30.3014 37.0264 32.27L33.8121 41.0691C33.3298 42.4352 31.8432 42.9576 30.5575 42.4755C29.3121 42.0334 28.5084 40.7076 29.0308 39.3014L31.6425 32.1898C31.0798 31.6272 30.3165 31.1048 29.5531 30.8237C27.6646 30.1406 26.0978 30.9843 25.3745 32.9532L23.245 38.8191C22.7227 40.2254 21.2361 40.7477 19.9504 40.2656C18.7049 39.8237 17.9416 38.4576 18.4236 37.0915L20.0308 32.7523C16.6558 31.5468 13.4813 34.279 11.3122 40.3058L8.7811 47.1763C3.27619 62.3638 8.29887 73.9352 21.6379 78.7968Z" fill="white"/>
</svg>
