<svg width="96" height="96" viewBox="0 0 96 96" fill="none" xmlns="http://www.w3.org/2000/svg">
<path d="M3.76266 63.2477C5.16906 63.2076 6.17346 62.1228 6.21375 60.6763C6.65569 43.1986 15.6557 30.2611 29.3163 25.1986L38.678 50.9129C38.7583 51.1138 38.7182 51.2744 38.5172 51.3548C38.3564 51.4352 38.2359 51.3548 38.1154 51.2343L33.3744 46.0915C30.2806 42.7567 26.3431 42.5156 23.2896 45.0871C19.8343 48.02 19.794 52.3995 23.1691 56.538L36.6288 72.8103C46.794 85.1048 58.7271 88.9219 72.0663 84.0603C88.0174 78.2746 94.8075 63.6495 88.3786 45.971L85.3652 37.7343C82.2319 29.0156 76.2449 25.4396 69.2136 27.8906C67.3253 25.4396 64.4324 24.596 61.2985 25.721C60.2137 26.1228 59.1691 26.7255 58.1645 27.4889C56.1154 24.8371 52.9414 23.8728 49.6467 25.038C48.7627 25.3594 47.9189 25.8415 47.1154 26.4039L42.5352 13.8684C40.8074 9.08707 36.4682 7.0781 32.0083 8.68524C27.5083 10.3327 25.4993 14.6318 27.2271 19.4129L27.5485 20.2968C11.9993 26.1228 1.19141 41.1094 1.19141 60.596C1.19141 62.0424 2.39672 63.2878 3.76266 63.2477ZM70.3387 78.7968C59.8119 82.6539 49.928 80.6852 40.6467 69.4755L27.1868 53.2834C25.7405 51.596 25.7405 49.9486 27.0262 48.8237C28.2315 47.7389 29.8788 48.1004 31.2046 49.4666L40.4859 59.0691C42.053 60.6763 43.4191 60.8371 44.7449 60.3548C46.3119 59.7924 46.9949 58.1048 46.352 56.3772L32.1288 17.2433C31.5262 15.6362 32.2495 14.1094 33.776 13.5468C35.3431 12.9843 36.7896 13.7477 37.3923 15.3548L47.5574 43.279C48.0396 44.6048 49.5262 45.2076 50.852 44.7255C52.1378 44.2433 52.8209 42.8371 52.3387 41.5514L48.6824 31.4666C49.2449 30.9442 50.0083 30.4219 50.7716 30.1406C52.6601 29.4576 54.2271 30.3014 54.9502 32.27L58.1645 41.0691C58.6467 42.4352 60.1333 42.9576 61.4191 42.4755C62.6645 42.0334 63.4681 40.7076 62.9458 39.3014L60.3341 32.1898C60.8967 31.6272 61.6601 31.1048 62.4235 30.8237C64.3119 30.1406 65.8788 30.9843 66.602 32.9532L68.7315 38.8191C69.2539 40.2254 70.7405 40.7477 72.0262 40.2656C73.2716 39.8237 74.035 38.4576 73.5529 37.0915L71.9458 32.7523C75.3207 31.5468 78.4952 34.279 80.6643 40.3058L83.1955 47.1763C88.7004 62.3638 83.6777 73.9352 70.3387 78.7968Z" fill="white"/>
</svg>
