<svg width="205" height="157" viewBox="0 0 205 157" fill="none" xmlns="http://www.w3.org/2000/svg">
<g opacity="0.5">
<path d="M36.2015 19.958L27.048 51.9592" stroke="black" stroke-width="0.92" stroke-linecap="round" stroke-linejoin="round"/>
<path d="M38.4458 18.4401C38.419 18.7754 38.2933 19.0953 38.0845 19.3591C37.8757 19.6229 37.5933 19.8188 37.2731 19.9219C36.9528 20.025 36.6092 20.0307 36.2857 19.9383C35.9622 19.8459 35.6735 19.6595 35.456 19.4028C35.2386 19.146 35.1023 18.8305 35.0644 18.4963C35.0265 18.162 35.0886 17.8239 35.2431 17.5251C35.3975 17.2262 35.6372 16.9798 35.9317 16.8173C36.2263 16.6548 36.5625 16.5834 36.8977 16.6122C37.3449 16.6506 37.7587 16.8644 38.0487 17.2068C38.3388 17.5493 38.4816 17.9927 38.4458 18.4401Z" stroke="black" stroke-width="0.92" stroke-linecap="round" stroke-linejoin="round"/>
<path d="M14.3303 22.5023L25.5908 53.8283" stroke="black" stroke-width="0.92" stroke-linecap="round" stroke-linejoin="round"/>
<path d="M15.271 19.9674C15.4415 20.2546 15.5232 20.5858 15.5057 20.9193C15.4882 21.2527 15.3724 21.5736 15.1729 21.8414C14.9733 22.1091 14.699 22.3118 14.3844 22.4239C14.0698 22.536 13.7291 22.5524 13.4052 22.4711C13.0813 22.3899 12.7887 22.2145 12.5643 21.9672C12.3399 21.7199 12.1938 21.4116 12.1443 21.0814C12.0948 20.7511 12.1442 20.4136 12.2863 20.1114C12.4284 19.8091 12.6567 19.5557 12.9426 19.3831C13.3294 19.1542 13.791 19.0872 14.2269 19.1966C14.6629 19.306 15.0381 19.583 15.271 19.9674Z" stroke="black" stroke-width="0.92" stroke-linecap="round" stroke-linejoin="round"/>
<path d="M15.5335 61.7464C15.5335 61.7464 1.20642 33.0879 3.74785 27.4194C6.28928 21.7509 18.034 32.6842 18.034 32.6842C18.034 32.6842 19.1923 18.437 26.4001 18.2834C33.608 18.1297 32.2903 33.5157 32.2903 33.5157C32.2903 33.5157 43.4409 25.7984 47.0911 30.5261C50.7414 35.2538 28.3329 62.8306 28.3329 62.8306L15.5335 61.7464Z" fill="#3DA1E9"/>
<path d="M20.3173 62.7711L15.1105 43.5614" stroke="black" stroke-width="0.92" stroke-linecap="round" stroke-linejoin="round"/>
<path d="M22.2692 62.6546L23.9558 42.7713" stroke="black" stroke-width="0.92" stroke-linecap="round" stroke-linejoin="round"/>
<path d="M26.5752 63.018L35.2755 43.7307" stroke="black" stroke-width="0.92" stroke-linecap="round" stroke-linejoin="round"/>
<path d="M24.328 62.8541L26.8591 51.9464" stroke="black" stroke-width="0.92" stroke-linecap="round" stroke-linejoin="round"/>
<path d="M18.56 62.7335L14.3173 52.8759" stroke="black" stroke-width="0.92" stroke-linecap="round" stroke-linejoin="round"/>
<path d="M20.1408 70.403C17.2798 68.9788 11.8606 62.3599 14.2319 59.0573C16.6032 55.7547 19.4834 60.9732 19.4834 60.9732C19.4834 60.9732 22.7337 57.4644 24.2932 58.6605C25.2749 59.5011 25.9492 60.6445 26.2097 61.9105C26.2097 61.9105 28.7294 58.9695 30.3288 60.3154C31.9283 61.6612 24.5843 72.6286 20.1408 70.403Z" fill="#538B45"/>
<path d="M21.348 69.8284L13.7372 159.666" stroke="black" stroke-width="0.92" stroke-linecap="round" stroke-linejoin="round"/>
<path d="M15.8237 104.459C15.8237 104.459 -7.6213 99.2881 -9.95285 94.8101C-12.2844 90.332 -2.05918 93.6799 -2.05918 93.6799C-2.05918 93.6799 -17.4241 85.211 -16.3586 82.5637C-15.2931 79.9164 -6.32396 85.1583 -6.32396 85.1583C-6.32396 85.1583 -21.0974 71.9022 -18.5119 68.4597C-15.9265 65.0173 -3.05413 81.9372 -3.05413 81.9372C-3.05413 81.9372 -6.9059 71.6913 -4.13705 71.461C-1.36819 71.2307 5.30386 87.0296 5.30386 87.0296C5.30386 87.0296 3.96188 77.9012 7.78161 79.3701C11.6013 80.8389 15.8237 104.459 15.8237 104.459Z" fill="#538B45"/>
<path d="M21.0528 88.0706C21.0528 88.0706 34.4031 87.4268 36.1013 85.1853C37.7996 82.9438 31.8784 83.8192 31.8784 83.8192C31.8784 83.8192 41.104 80.6105 40.7683 79.0623C40.4327 77.5141 34.9863 79.5324 34.9863 79.5324C34.9863 79.5324 44.3235 73.6414 43.2131 71.5047C42.1027 69.368 33.4699 77.4574 33.4699 77.4574C33.4699 77.4574 36.54 72.1932 35.0459 71.8144C33.5518 71.4357 28.4226 79.46 28.4226 79.46C28.4226 79.46 30.0006 74.5818 27.7879 75.0322C25.5752 75.4827 21.0528 88.0706 21.0528 88.0706Z" fill="#538B45"/>
<path d="M-4.90405 83.4541L18.2202 106.723" stroke="black" stroke-width="0.92" stroke-linecap="round" stroke-linejoin="round"/>
<path d="M19.7163 89.094L34.3943 78.2792" stroke="black" stroke-width="0.92" stroke-linecap="round" stroke-linejoin="round"/>
<path d="M8.86377 87.0391L11.2316 99.6844L-2.9773 96.5679" stroke="black" stroke-width="0.92" stroke-linecap="round" stroke-linejoin="round"/>
<path d="M27.041 79.2061L24.6788 85.4393L31.2211 85.2795" stroke="black" stroke-width="0.92" stroke-linecap="round" stroke-linejoin="round"/>
<path d="M-4.20117 89.2873L2.87569 91.279L0.590648 82.7785" stroke="black" stroke-width="0.92" stroke-linecap="round" stroke-linejoin="round"/>
<path d="M-8.74219 156.408L80.4486 143.244" stroke="black" stroke-width="0.92" stroke-linecap="round" stroke-linejoin="round"/>
<path d="M26.2382 153.866C26.2382 153.866 26.5726 177.869 22.7396 181.165C18.9066 184.461 19.8349 173.735 19.8349 173.735C19.8349 173.735 15.1137 190.642 12.2954 190.205C9.47702 189.768 12.5249 179.823 12.5249 179.823C12.5249 179.823 3.00207 197.228 -0.938443 195.511C-4.87896 193.794 8.63601 177.375 8.63601 177.375C8.63601 177.375 -0.454969 183.474 -1.32792 180.827C-2.20088 178.18 11.639 168.092 11.639 168.092C11.639 168.092 3.06848 171.488 3.62059 167.444C4.1727 163.4 26.2382 153.866 26.2382 153.866Z" fill="#538B45"/>
<path d="M9.12172 152.527C9.12172 152.527 5.43559 139.68 2.86755 138.544C0.299498 137.408 2.51482 142.966 2.51482 142.966C2.51482 142.966 -2.72517 134.724 -4.15904 135.403C-5.59291 136.081 -2.37265 140.895 -2.37265 140.895C-2.37265 140.895 -10.2436 133.153 -12.0642 134.703C-13.8847 136.254 -4.07866 142.812 -4.07866 142.812C-4.07866 142.812 -9.93167 141.015 -9.93718 142.574C-9.94268 144.132 -0.994812 147.252 -0.994812 147.252C-0.994812 147.252 -6.10963 146.828 -5.15961 148.888C-4.20959 150.949 9.12172 152.527 9.12172 152.527Z" fill="#538B45"/>
<path d="M10.5341 178.842L27.8873 151.005" stroke="black" stroke-width="0.92" stroke-linecap="round" stroke-linejoin="round"/>
<path d="M10.3871 153.588L-3.50952 141.773" stroke="black" stroke-width="0.92" stroke-linecap="round" stroke-linejoin="round"/>
<path d="M10.865 164.616L22.6405 159.418L22.857 173.965" stroke="black" stroke-width="0.92" stroke-linecap="round" stroke-linejoin="round"/>
<path d="M-0.914126 148.718L5.69542 149.593L4.03706 143.258" stroke="black" stroke-width="0.92" stroke-linecap="round" stroke-linejoin="round"/>
<path d="M114.718 71.6168C114.718 71.6168 118.947 61.7249 128.012 59.7591C137.077 57.7934 143.857 63.6863 143.857 63.6863C140.202 68.2233 135.647 71.9529 130.477 74.6396C121.832 79.1378 114.718 71.6168 114.718 71.6168Z" fill="#7DCB6A" stroke="#7DCB6A" stroke-width="0.92" stroke-miterlimit="10"/>
<path d="M87.9726 76.3001C87.9726 76.3001 82.5126 66.9977 86.3362 58.559C90.1598 50.1204 98.9124 48.1501 98.9124 48.1501C100.387 53.7857 100.676 59.666 99.7605 65.419C98.2537 75.0495 87.9726 76.3001 87.9726 76.3001Z" fill="#7DCB6A" stroke="#7DCB6A" stroke-width="0.92" stroke-miterlimit="10"/>
<path d="M128.367 67.6113C128.367 67.6113 93.6734 75.4096 74.5242 91.7673C55.3749 108.125 43.6745 148.174 43.6745 148.174" stroke="black" stroke-width="0.92" stroke-linecap="round" stroke-linejoin="round"/>
<path d="M93.4139 59.2802C93.4139 59.2802 91.1327 71.628 87.9726 76.3001C84.8124 80.9722 77.3259 89.5208 77.3259 89.5208" stroke="black" stroke-width="0.92" stroke-linecap="round" stroke-linejoin="round"/>
<path d="M67.9903 89.34C67.9903 89.34 59.6244 82.5319 60.2489 73.2916C60.8733 64.0513 68.3898 59.1397 68.3898 59.1397C71.7439 63.9042 74.0721 69.3132 75.2272 75.0243C77.1827 84.5683 67.9903 89.34 67.9903 89.34Z" fill="#7DCB6A" stroke="#7DCB6A" stroke-width="0.92" stroke-miterlimit="10"/>
<path d="M67.1371 71.4904C67.1371 71.4904 69.3211 83.859 67.9904 89.34C66.6597 94.8211 62.6402 105.456 62.6402 105.456" stroke="black" stroke-width="0.92" stroke-linecap="round" stroke-linejoin="round"/>
<path d="M51.9747 106.205C51.9747 106.205 41.6876 102.973 38.8432 94.1633C35.9988 85.3531 41.1681 78.0254 41.1681 78.0254C46.0466 81.2003 50.2136 85.3526 53.4056 90.2199C58.7488 98.3665 51.9747 106.205 51.9747 106.205Z" fill="#7DCB6A" stroke="#7DCB6A" stroke-width="0.92" stroke-miterlimit="10"/>
<path d="M44.5773 89.9378C44.5773 89.9378 51.1845 100.617 51.9747 106.205C52.7649 111.793 52.9748 123.153 52.9748 123.153" stroke="black" stroke-width="0.92" stroke-linecap="round" stroke-linejoin="round"/>
<path d="M104.869 82.7952C104.869 82.7952 109.081 92.7233 118.127 94.6926C127.174 96.662 133.99 90.8079 133.99 90.8079C130.351 86.2643 125.81 82.5248 120.652 79.8259C112.023 75.2973 104.869 82.7952 104.869 82.7952Z" fill="#7DCB6A" stroke="#7DCB6A" stroke-width="0.92" stroke-miterlimit="10"/>
<path d="M121.781 88.6198C121.781 88.6198 110.51 83.0838 104.871 82.8363C99.2331 82.5888 87.9058 83.4929 87.9058 83.4929" stroke="black" stroke-width="0.92" stroke-linecap="round" stroke-linejoin="round"/>
<path d="M84.2137 97.4674C84.2137 97.4674 89.0447 107.073 98.1883 108.519C107.332 109.964 113.773 103.651 113.773 103.651C109.854 99.3591 105.088 95.9252 99.7759 93.5659C90.8732 89.5359 84.2137 97.4674 84.2137 97.4674Z" fill="#7DCB6A" stroke="#7DCB6A" stroke-width="0.92" stroke-miterlimit="10"/>
<path d="M101.45 102.19C101.45 102.19 89.8538 97.3616 84.2137 97.4674C78.5737 97.5732 67.325 99.1542 67.325 99.1542" stroke="black" stroke-width="0.92" stroke-linecap="round" stroke-linejoin="round"/>
<path d="M68.8286 118.027C68.8286 118.027 76.0246 126.065 85.2232 125.003C94.4219 123.941 98.9777 116.198 98.9777 116.198C94.0604 113.075 88.5493 111.004 82.7919 110.117C73.1858 108.635 68.8286 118.027 68.8286 118.027Z" fill="#7DCB6A" stroke="#7DCB6A" stroke-width="0.92" stroke-miterlimit="10"/>
<path d="M86.6956 118.04C86.6956 118.04 74.2448 116.425 68.8286 118.027C63.4123 119.628 52.9789 124.159 52.9789 124.159" stroke="black" stroke-width="0.92" stroke-linecap="round" stroke-linejoin="round"/>
<path d="M139.118 117.156C139.118 117.156 95.7433 128.028 78.4879 142.566" stroke="black" stroke-width="0.92" stroke-linecap="round" stroke-linejoin="round"/>
<path d="M127.26 135.142C123.525 132.179 119.12 130.175 114.431 129.307C109.743 128.438 104.913 128.731 100.363 130.16" stroke="black" stroke-width="0.92" stroke-linecap="round" stroke-linejoin="round"/>
<path d="M162.796 125.456C154.079 128.007 145.161 123.759 142.856 115.907C140.552 108.056 145.769 99.6654 154.493 97.1106C163.217 94.5557 166.336 100.537 168.655 108.347C170.973 116.157 171.521 122.901 162.796 125.456Z" fill="#E62749"/>
<path d="M161.679 97.2164C161.679 97.2164 165.471 106.5 163.547 112.574C163.235 113.631 162.687 114.604 161.945 115.418C156.968 120.78 143.823 118.355 143.823 118.355" stroke="black" stroke-width="0.92" stroke-linecap="round" stroke-linejoin="round"/>
<path d="M168.283 122.176C168.283 122.176 168.853 118.597 167.438 116.365C166.023 114.133 163.032 113.85 163.032 113.85" stroke="black" stroke-width="0.92" stroke-linecap="round" stroke-linejoin="round"/>
<path d="M163.268 101.785C165.982 103.221 168.855 108.921 168.757 113.284C168.68 117.126 165.571 113.196 165.011 112.243C164.45 111.29 164.574 108.393 165.461 109.282C166.348 110.171 166.728 112.299 166.728 112.299" stroke="black" stroke-width="0.92" stroke-linecap="round" stroke-linejoin="round"/>
<path d="M142.321 112.504C142.321 112.504 137.833 115.176 138.429 117.208C139.025 119.239 144.319 119.331 144.319 119.331L142.321 112.504Z" fill="#538B45"/>
<path d="M138.002 145.733C132.167 143.583 128.394 139.276 129.56 136.124C130.725 132.972 136.395 132.152 142.209 134.277C148.024 136.403 147.974 139.315 146.802 142.47C145.629 145.626 143.83 147.886 138.002 145.733Z" fill="#FFC531"/>
<path d="M145.729 144.686C145.729 144.686 139.883 139.093 136.308 137.155C134.274 135.97 131.863 135.611 129.573 136.152" stroke="black" stroke-width="0.92" stroke-linecap="round" stroke-linejoin="round"/>
<path d="M147.411 140.121C147.411 140.121 142.926 140.931 140.926 140.306" stroke="black" stroke-width="0.92" stroke-linecap="round" stroke-linejoin="round"/>
<path d="M132.624 133.476C132.624 133.476 127.433 132.944 126.699 134.929C125.964 136.913 130.157 140.151 130.157 140.151L132.624 133.476Z" fill="#538B45"/>
<path d="M118.707 158.446C106.293 152.835 93.5799 147.908 80.626 143.688" stroke="black" stroke-width="0.92" stroke-linecap="round" stroke-linejoin="round"/>
<path d="M134.743 184.427C124.529 180.17 119.334 169.287 123.157 160.118C126.981 150.95 138.346 146.961 148.566 151.208C158.785 155.456 157.208 163.532 153.393 172.698C149.577 181.865 144.962 188.674 134.743 184.427Z" fill="#8A6ACD"/>
<path d="M155.299 156.811C155.299 156.811 151.793 168.518 145.286 172.83C144.178 173.585 142.917 174.085 141.593 174.294C132.77 175.57 122.194 163.211 122.194 163.211" stroke="black" stroke-width="0.92" stroke-linecap="round" stroke-linejoin="round"/>
<path d="M125.254 156.485C125.254 156.485 118.954 155.574 117.964 157.955C116.975 160.337 121.924 164.487 121.924 164.487L125.254 156.485Z" fill="#7DCB6A"/>
</g>
</svg>
