<svg width="185" height="138" viewBox="0 0 185 138" fill="none" xmlns="http://www.w3.org/2000/svg">
<g opacity="0.5">
<path d="M175.653 133.565L174.513 100.3" stroke="black" stroke-width="0.92" stroke-linecap="round" stroke-linejoin="round"/>
<path d="M173.985 135.701C173.907 135.373 173.929 135.03 174.046 134.715C174.163 134.4 174.372 134.126 174.645 133.93C174.918 133.733 175.243 133.622 175.579 133.61C175.915 133.599 176.248 133.687 176.533 133.864C176.819 134.042 177.046 134.3 177.185 134.606C177.324 134.913 177.369 135.253 177.314 135.585C177.259 135.917 177.107 136.225 176.877 136.471C176.646 136.716 176.348 136.887 176.021 136.963C175.583 137.064 175.124 136.988 174.742 136.752C174.361 136.515 174.089 136.137 173.985 135.701Z" stroke="black" stroke-width="0.92" stroke-linecap="round" stroke-linejoin="round"/>
<path d="M195.68 124.413L175.324 98.0736" stroke="black" stroke-width="0.92" stroke-linecap="round" stroke-linejoin="round"/>
<path d="M182.456 87.4444C182.456 87.4444 204.908 110.302 204.235 116.478C203.562 122.653 189.022 115.865 189.022 115.865C189.022 115.865 192.305 129.778 185.494 132.142C178.684 134.507 175.202 119.462 175.202 119.462C175.202 119.462 166.968 130.237 162.04 126.862C157.111 123.487 169.945 90.3523 169.945 90.3523L182.456 87.4444Z" fill="#3DA1E9"/>
<path d="M177.589 87.9418L188.456 104.616" stroke="black" stroke-width="0.92" stroke-linecap="round" stroke-linejoin="round"/>
<path d="M175.768 88.6534L180.283 108.091" stroke="black" stroke-width="0.92" stroke-linecap="round" stroke-linejoin="round"/>
<path d="M171.559 89.6329L169.218 110.662" stroke="black" stroke-width="0.92" stroke-linecap="round" stroke-linejoin="round"/>
<path d="M173.748 89.0973L174.697 100.255" stroke="black" stroke-width="0.92" stroke-linecap="round" stroke-linejoin="round"/>
<path d="M179.273 87.4367L186.344 95.51" stroke="black" stroke-width="0.92" stroke-linecap="round" stroke-linejoin="round"/>
<path d="M175.408 80.6261C178.569 81.1005 185.762 85.7302 184.522 89.6024C183.283 93.4745 178.936 89.3957 178.936 89.3957C178.936 89.3957 176.924 93.7347 175.072 93.0765C173.879 92.5789 172.885 91.6986 172.248 90.5742C172.248 90.5742 170.756 94.1479 168.82 93.3597C166.884 92.5715 170.496 79.8761 175.408 80.6261Z" fill="#538B45"/>
<path d="M174.437 81.5443L154.028 -6.27486" stroke="black" stroke-width="0.92" stroke-linecap="round" stroke-linejoin="round"/>
<path d="M169.034 46.8942C169.034 46.8942 192.932 44.5984 196.529 48.1415C200.126 51.6846 189.366 51.6463 189.366 51.6463C189.366 51.6463 206.592 54.9751 206.393 57.8218C206.194 60.6685 196.047 58.4417 196.047 58.4417C196.047 58.4417 214.183 66.5073 212.783 70.5784C211.382 74.6495 193.927 62.5128 193.927 62.5128C193.927 62.5128 200.746 71.0758 198.182 72.1472C195.618 73.2185 184.408 60.24 184.408 60.24C184.408 60.24 188.494 68.5123 184.408 68.2903C180.321 68.0684 169.034 46.8942 169.034 46.8942Z" fill="#538B45"/>
<path d="M169.103 64.0968C169.103 64.0968 156.599 68.8183 155.673 71.4737C154.747 74.1291 160.111 71.4737 160.111 71.4737C160.111 71.4737 152.321 77.3661 153.117 78.7359C153.913 80.1057 158.474 76.509 158.474 76.509C158.474 76.509 151.403 84.9879 153.117 86.6791C154.831 88.3703 160.555 78.0166 160.555 78.0166C160.555 78.0166 159.254 83.9701 160.792 83.8707C162.33 83.7712 164.741 74.5577 164.741 74.5577C164.741 74.5577 164.741 79.6848 166.708 78.5752C168.674 77.4656 169.103 64.0968 169.103 64.0968Z" fill="#538B45"/>
<path d="M195.221 60.5002L166.057 45.4785" stroke="black" stroke-width="0.92" stroke-linecap="round" stroke-linejoin="round"/>
<path d="M170.059 62.7117L159.423 77.5192" stroke="black" stroke-width="0.92" stroke-linecap="round" stroke-linejoin="round"/>
<path d="M181.018 61.3266L174.873 50.024L189.351 48.616" stroke="black" stroke-width="0.92" stroke-linecap="round" stroke-linejoin="round"/>
<path d="M166.134 74.374L166.463 67.7164L160.287 69.882" stroke="black" stroke-width="0.92" stroke-linecap="round" stroke-linejoin="round"/>
<path d="M192.756 55.1664L185.41 55.4496L190.201 62.8342" stroke="black" stroke-width="0.92" stroke-linecap="round" stroke-linejoin="round"/>
<path d="M176.419 -10.0934L95.6089 29.8828" stroke="black" stroke-width="0.92" stroke-linecap="round" stroke-linejoin="round"/>
<path d="M143.919 3.09174C143.919 3.09174 136.213 -19.6436 138.845 -23.9596C141.478 -28.2755 143.896 -17.7841 143.896 -17.7841C143.896 -17.7841 143.184 -35.3234 146 -35.7749C148.816 -36.2264 148.977 -25.8268 148.977 -25.8268C148.977 -25.8268 152.681 -45.3175 156.958 -44.8966C161.236 -44.4757 153.431 -24.6942 153.431 -24.6942C153.431 -24.6942 160.203 -33.2955 161.848 -31.0457C163.494 -28.7959 153.431 -14.9374 153.431 -14.9374C153.431 -14.9374 160.54 -20.8068 161.259 -16.7893C161.978 -12.7717 143.919 3.09174 143.919 3.09174Z" fill="#538B45"/>
<path d="M160.616 -0.902874C160.616 -0.902874 168.077 10.1855 170.871 10.4763C173.664 10.7671 169.845 6.16031 169.845 6.16031C169.845 6.16031 177.367 12.3894 178.523 11.3027C179.678 10.2161 175.133 6.62711 175.133 6.62711C175.133 6.62711 185.005 11.5706 186.26 9.53502C187.515 7.49947 176.166 4.27781 176.166 4.27781C176.166 4.27781 182.288 4.18598 181.813 2.70141C181.339 1.21684 171.865 1.00257 171.865 1.00257C171.865 1.00257 176.862 -0.168244 175.324 -1.83647C173.786 -3.5047 160.616 -0.902874 160.616 -0.902874Z" fill="#538B45"/>
<path d="M151.173 -25.5054L143.23 6.32102" stroke="black" stroke-width="0.92" stroke-linecap="round" stroke-linejoin="round"/>
<path d="M159.086 -1.52272L175.944 5.44098" stroke="black" stroke-width="0.92" stroke-linecap="round" stroke-linejoin="round"/>
<path d="M171.337 -0.367214L164.779 0.834222L168.307 6.35162" stroke="black" stroke-width="0.92" stroke-linecap="round" stroke-linejoin="round"/>
<path d="M85.0486 108.58C85.0486 108.58 84.0691 119.294 76.0494 123.954C68.0296 128.614 59.765 125.094 59.765 125.094C61.8458 119.653 65.0325 114.702 69.124 110.555C75.9652 103.614 85.0486 108.58 85.0486 108.58Z" fill="#7DCB6A" stroke="#7DCB6A" stroke-width="0.92" stroke-miterlimit="10"/>
<path d="M109.054 95.8926C109.054 95.8926 117.112 103.063 116.072 112.269C115.031 121.475 107.31 126.043 107.31 126.043C104.172 121.135 102.087 115.629 101.188 109.874C99.6571 100.247 109.054 95.8926 109.054 95.8926Z" fill="#7DCB6A" stroke="#7DCB6A" stroke-width="0.92" stroke-miterlimit="10"/>
<path d="M73.2945 116.592C73.2945 116.592 103.904 98.4945 117.089 77.0371C130.274 55.5797 129.081 13.874 129.081 13.874" stroke="black" stroke-width="0.92" stroke-linecap="round" stroke-linejoin="round"/>
<path d="M109.115 113.761C109.115 113.761 107.486 101.311 109.054 95.8926C110.623 90.4747 115.115 80.0368 115.115 80.0368" stroke="black" stroke-width="0.92" stroke-linecap="round" stroke-linejoin="round"/>
<path d="M124.053 77.3355C124.053 77.3355 134.108 81.2382 136.358 90.2222C138.608 99.2061 132.968 106.193 132.968 106.193C128.31 102.692 124.43 98.262 121.574 93.1837C116.776 84.7048 124.053 77.3355 124.053 77.3355Z" fill="#7DCB6A" stroke="#7DCB6A" stroke-width="0.92" stroke-miterlimit="10"/>
<path d="M130.359 94.0561C130.359 94.0561 124.474 82.96 124.053 77.3355C123.632 71.711 124.183 60.3548 124.183 60.3548" stroke="black" stroke-width="0.92" stroke-linecap="round" stroke-linejoin="round"/>
<path d="M134.101 56.3602C134.101 56.3602 144.883 56.2684 150.301 63.7754C155.719 71.2825 153.056 79.8455 153.056 79.8455C147.437 78.3262 142.194 75.658 137.659 72.0094C130.068 65.9028 134.101 56.3602 134.101 56.3602Z" fill="#7DCB6A" stroke="#7DCB6A" stroke-width="0.92" stroke-miterlimit="10"/>
<path d="M146.146 69.5606C146.146 69.5606 136.572 61.4338 134.101 56.3602C131.629 51.2867 127.933 40.5427 127.933 40.5427" stroke="black" stroke-width="0.92" stroke-linecap="round" stroke-linejoin="round"/>
<path d="M90.9792 94.9131C90.9792 94.9131 83.9161 86.7633 74.7026 87.6739C65.489 88.5846 60.8058 96.2523 60.8058 96.2523C65.6661 99.4554 71.1381 101.616 76.8758 102.596C86.4796 104.249 90.9792 94.9131 90.9792 94.9131Z" fill="#7DCB6A" stroke="#7DCB6A" stroke-width="0.92" stroke-miterlimit="10"/>
<path d="M73.0955 94.5764C73.0955 94.5764 85.5231 96.3747 90.9639 94.8749C96.4048 93.375 106.904 89.0284 106.904 89.0284" stroke="black" stroke-width="0.92" stroke-linecap="round" stroke-linejoin="round"/>
<path d="M106.116 74.5959C106.116 74.5959 98.5628 66.9435 89.4181 68.3822C80.2735 69.8208 76.0876 77.8099 76.0876 77.8099C81.1378 80.6876 86.7293 82.488 92.5097 83.0978C102.221 84.1921 106.116 74.5959 106.116 74.5959Z" fill="#7DCB6A" stroke="#7DCB6A" stroke-width="0.92" stroke-miterlimit="10"/>
<path d="M88.2626 75.4071C88.2626 75.4071 100.782 76.4325 106.116 74.5959C111.449 72.7593 121.665 67.7929 121.665 67.7929" stroke="black" stroke-width="0.92" stroke-linecap="round" stroke-linejoin="round"/>
<path d="M114.426 50.2995C114.426 50.2995 105.106 44.8663 96.6803 48.7078C88.255 52.5493 86.3036 61.319 86.3036 61.319C91.9435 62.777 97.8243 63.0506 103.575 62.1225C113.171 60.5767 114.426 50.2995 114.426 50.2995Z" fill="#7DCB6A" stroke="#7DCB6A" stroke-width="0.92" stroke-miterlimit="10"/>
<path d="M97.4226 55.7863C97.4226 55.7863 109.766 53.4906 114.426 50.2995C119.087 47.1084 127.619 39.5861 127.619 39.5861" stroke="black" stroke-width="0.92" stroke-linecap="round" stroke-linejoin="round"/>
<path d="M47.8171 72.7611C47.8171 72.7611 85.7398 49.0675 97.6829 29.9238" stroke="black" stroke-width="0.92" stroke-linecap="round" stroke-linejoin="round"/>
<path d="M53.5631 51.9988C58.0296 53.6686 62.837 54.2192 67.5653 53.6025C72.2937 52.9858 76.7991 51.2206 80.6879 48.461" stroke="black" stroke-width="0.92" stroke-linecap="round" stroke-linejoin="round"/>
<path d="M22.7332 72.1523C30.2421 67.0416 40.0353 68.3392 44.6441 75.1001C49.2529 81.8611 46.8722 91.4501 39.3577 96.5661C31.8433 101.682 27.035 96.9516 22.4252 90.2339C17.8154 83.5163 15.2188 77.2683 22.7332 72.1523Z" fill="#E62749"/>
<path d="M32.488 98.6772C32.488 98.6772 26.0224 91.0117 25.9835 84.6402C25.9551 83.5382 26.1771 82.4442 26.6328 81.4405C29.7177 74.8071 42.9709 73.0688 42.9709 73.0688" stroke="black" stroke-width="0.92" stroke-linecap="round" stroke-linejoin="round"/>
<path d="M18.5223 76.9621C18.5223 76.9621 19.0818 80.5422 21.115 82.2302C23.1481 83.9183 26.0809 83.2677 26.0809 83.2677" stroke="black" stroke-width="0.92" stroke-linecap="round" stroke-linejoin="round"/>
<path d="M29.5697 94.8194C26.5458 94.2879 22.0577 89.7489 20.8087 85.568C19.6995 81.8883 23.8664 84.6713 24.6934 85.4053C25.5204 86.1393 26.2934 88.9343 25.1757 88.3612C24.058 87.7881 23.0422 85.8805 23.0422 85.8805" stroke="black" stroke-width="0.92" stroke-linecap="round" stroke-linejoin="round"/>
<path d="M46.2006 78.1734C46.2006 78.1734 49.6491 74.2495 48.4564 72.5001C47.2636 70.7508 42.1989 72.2928 42.1989 72.2928L46.2006 78.1734Z" fill="#538B45"/>
<path d="M40.0833 45.2286C46.2964 45.4782 51.2121 48.4143 51.0732 51.7722C50.9344 55.1301 45.7923 57.6554 39.6058 57.4227C33.4193 57.19 32.5704 54.4041 32.7148 51.0409C32.8592 47.6776 33.8756 44.9737 40.0833 45.2286Z" fill="#FFC531"/>
<path d="M33.0538 48.6024C33.0538 48.6024 40.3371 52.1248 44.3356 52.8688C46.6351 53.3703 49.0393 52.9699 51.052 51.75" stroke="black" stroke-width="0.92" stroke-linecap="round" stroke-linejoin="round"/>
<path d="M32.8577 53.4637C32.8577 53.4637 36.876 51.3124 38.9712 51.2915" stroke="black" stroke-width="0.92" stroke-linecap="round" stroke-linejoin="round"/>
<path d="M48.9725 55.2354C48.9725 55.2354 54.0753 54.1435 54.1632 52.0292C54.251 49.915 49.265 48.1247 49.265 48.1247L48.9725 55.2354Z" fill="#538B45"/>
<path d="M54.5283 27.1936C68.0674 28.7119 81.6796 29.4868 95.3036 29.515" stroke="black" stroke-width="0.92" stroke-linecap="round" stroke-linejoin="round"/>
<path d="M31.2749 7.40989C42.3035 8.3165 50.5952 17.072 49.7796 26.9724C48.964 36.8728 39.3778 44.166 28.3472 43.27C17.3166 42.374 16.3311 34.2051 17.1403 24.309C17.9496 14.4129 20.2443 6.51392 31.2749 7.40989Z" fill="#8A6ACD"/>
<path d="M20.2165 40.0122C20.2165 40.0122 19.9484 27.7937 24.813 21.6884C25.6344 20.6291 26.6807 19.7652 27.8764 19.1591C35.8776 15.2294 49.7446 23.7338 49.7446 23.7338" stroke="black" stroke-width="0.92" stroke-linecap="round" stroke-linejoin="round"/>
<path d="M23.6069 8.74841C23.6069 8.74841 21.3967 12.5669 22.0316 15.72C22.6665 18.8732 25.9434 20.508 25.9434 20.508" stroke="black" stroke-width="0.92" stroke-linecap="round" stroke-linejoin="round"/>
<path d="M20.4054 34.1178C17.9511 31.2998 17.1744 23.5721 19.185 18.648C20.952 14.3167 22.7638 20.1413 22.9702 21.474C23.1766 22.8067 21.7961 26.0489 21.1686 24.6425C20.5411 23.2361 21.0527 20.662 21.0527 20.662" stroke="black" stroke-width="0.92" stroke-linecap="round" stroke-linejoin="round"/>
<path d="M48.9037 31.0748C48.9037 31.0748 55.1783 30.0027 55.3864 27.4321C55.5945 24.8614 49.6086 22.4364 49.6086 22.4364L48.9037 31.0748Z" fill="#7DCB6A"/>
</g>
</svg>
