<svg width="15" height="15" viewBox="0 0 15 15" fill="none" xmlns="http://www.w3.org/2000/svg">
<path d="M7.94312 9.11987C7.94312 8.01043 7.94312 7.4557 8.28779 7.11103C8.63246 6.76636 9.18718 6.76636 10.2966 6.76636C11.4061 6.76636 11.9608 6.76636 12.3055 7.11103C12.6501 7.4557 12.6501 8.01043 12.6501 9.11987V10.2966C12.6501 11.4061 12.6501 11.9608 12.3055 12.3055C11.9608 12.6501 11.4061 12.6501 10.2966 12.6501C9.18718 12.6501 8.63246 12.6501 8.28779 12.3055C7.94312 11.9608 7.94312 11.4061 7.94312 10.2966V9.11987Z" stroke="black" stroke-width="0.882568"/>
<path d="M1.17676 5.00122C1.17676 6.11067 1.17676 6.66539 1.52142 7.01006C1.86608 7.35474 2.42081 7.35474 3.53027 7.35474C4.63973 7.35474 5.19446 7.35474 5.53912 7.01006C5.88379 6.66539 5.88379 6.11067 5.88379 5.00122V3.82446C5.88379 2.715 5.88379 2.16027 5.53912 1.81561C5.19446 1.47095 4.63973 1.47095 3.53027 1.47095C2.42081 1.47095 1.86608 1.47095 1.52142 1.81561C1.17676 2.16027 1.17676 2.715 1.17676 3.82446V5.00122Z" stroke="black" stroke-width="0.882568"/>
<path d="M7.94312 3.23608C7.94312 2.68779 7.94312 2.41364 8.03267 2.19738C8.15211 1.90904 8.38122 1.67996 8.66953 1.56052C8.88582 1.47095 9.15994 1.47095 9.70825 1.47095H10.885C11.4333 1.47095 11.7074 1.47095 11.9237 1.56052C12.212 1.67996 12.4412 1.90904 12.5606 2.19738C12.6501 2.41364 12.6501 2.68779 12.6501 3.23608C12.6501 3.78438 12.6501 4.05853 12.5606 4.27479C12.4412 4.56313 12.212 4.79221 11.9237 4.91165C11.7074 5.00122 11.4333 5.00122 10.885 5.00122H9.70825C9.15994 5.00122 8.88582 5.00122 8.66953 4.91165C8.38122 4.79221 8.15211 4.56313 8.03267 4.27479C7.94312 4.05853 7.94312 3.78438 7.94312 3.23608Z" stroke="black" stroke-width="0.882568"/>
<path d="M1.17676 10.8853C1.17676 11.4336 1.17676 11.7077 1.26633 11.924C1.38577 12.2123 1.61485 12.4414 1.90319 12.5608C2.11945 12.6504 2.3936 12.6504 2.94189 12.6504H4.11865C4.66695 12.6504 4.9411 12.6504 5.15736 12.5608C5.44569 12.4414 5.67478 12.2123 5.79421 11.924C5.88379 11.7077 5.88379 11.4336 5.88379 10.8853C5.88379 10.3369 5.88379 10.0628 5.79421 9.84653C5.67478 9.55822 5.44569 9.32911 5.15736 9.20967C4.9411 9.12012 4.66695 9.12012 4.11865 9.12012H2.94189C2.3936 9.12012 2.11945 9.12012 1.90319 9.20967C1.61485 9.32911 1.38577 9.55822 1.26633 9.84653C1.17676 10.0628 1.17676 10.3369 1.17676 10.8853Z" stroke="black" stroke-width="0.882568"/>
</svg>
