<svg width="15" height="15" viewBox="0 0 15 15" fill="none" xmlns="http://www.w3.org/2000/svg">
<path d="M8.71387 9.28809C8.71387 8.17864 8.71387 7.62392 9.05854 7.27924C9.40321 6.93457 9.95794 6.93457 11.0674 6.93457C12.1768 6.93457 12.7316 6.93457 13.0762 7.27924C13.4209 7.62392 13.4209 8.17864 13.4209 9.28809V10.4648C13.4209 11.5743 13.4209 12.129 13.0762 12.4737C12.7316 12.8184 12.1768 12.8184 11.0674 12.8184C9.95794 12.8184 9.40321 12.8184 9.05854 12.4737C8.71387 12.129 8.71387 11.5743 8.71387 10.4648V9.28809Z" stroke="#6F6F71" stroke-width="0.882568"/>
<path d="M1.94751 5.16943C1.94751 6.27888 1.94751 6.8336 2.29218 7.17828C2.63684 7.52295 3.19157 7.52295 4.30103 7.52295C5.41048 7.52295 5.96521 7.52295 6.30987 7.17828C6.65454 6.8336 6.65454 6.27888 6.65454 5.16943V3.99268C6.65454 2.88322 6.65454 2.32849 6.30987 1.98383C5.96521 1.63916 5.41048 1.63916 4.30103 1.63916C3.19157 1.63916 2.63684 1.63916 2.29218 1.98383C1.94751 2.32849 1.94751 2.88322 1.94751 3.99268V5.16943Z" stroke="#6F6F71" stroke-width="0.882568"/>
<path d="M8.71387 3.4043C8.71387 2.856 8.71387 2.58185 8.80342 2.36559C8.92286 2.07726 9.15197 1.84817 9.44028 1.72873C9.65657 1.63916 9.93069 1.63916 10.479 1.63916H11.6558C12.2041 1.63916 12.4782 1.63916 12.6945 1.72873C12.9828 1.84817 13.2119 2.07726 13.3313 2.36559C13.4209 2.58185 13.4209 2.856 13.4209 3.4043C13.4209 3.9526 13.4209 4.22674 13.3313 4.443C13.2119 4.73134 12.9828 4.96042 12.6945 5.07986C12.4782 5.16943 12.2041 5.16943 11.6558 5.16943H10.479C9.93069 5.16943 9.65657 5.16943 9.44028 5.07986C9.15197 4.96042 8.92286 4.73134 8.80342 4.443C8.71387 4.22674 8.71387 3.9526 8.71387 3.4043Z" stroke="#6F6F71" stroke-width="0.882568"/>
<path d="M1.94751 11.0535C1.94751 11.6018 1.94751 11.8759 2.03708 12.0922C2.15652 12.3805 2.38561 12.6096 2.67394 12.7291C2.8902 12.8186 3.16435 12.8186 3.71265 12.8186H4.8894C5.4377 12.8186 5.71185 12.8186 5.92811 12.7291C6.21645 12.6096 6.44553 12.3805 6.56497 12.0922C6.65454 11.8759 6.65454 11.6018 6.65454 11.0535C6.65454 10.5052 6.65454 10.231 6.56497 10.0147C6.44553 9.72644 6.21645 9.49732 5.92811 9.37788C5.71185 9.28833 5.4377 9.28833 4.8894 9.28833H3.71265C3.16435 9.28833 2.8902 9.28833 2.67394 9.37788C2.38561 9.49732 2.15652 9.72644 2.03708 10.0147C1.94751 10.231 1.94751 10.5052 1.94751 11.0535Z" stroke="#6F6F71" stroke-width="0.882568"/>
</svg>
